<svg width="802" height="377" viewBox="0 0 802 377" fill="none" xmlns="http://www.w3.org/2000/svg">
<g filter="url(#filter0_f)">
<path d="M37 241H765V340L401 286.65L37 340V241Z" fill="#D9E2F9" fill-opacity="0.6"/>
</g>
<path fill-rule="evenodd" clip-rule="evenodd" d="M1 10C1 4.47715 5.47715 0 11 0H792C797.523 0 802 4.47715 802 10V88.6839C770.328 93.2856 746 120.552 746 153.5C746 186.448 770.328 213.714 802 218.316V296C802 301.523 797.523 306 792 306H11C5.47713 306 1 301.523 1 296V218.163C32.1831 213.138 56 186.101 56 153.5C56 120.899 32.1831 93.8616 1 88.8371V10Z" fill="#F4F6FB"/>
<defs>
<filter id="filter0_f" x="0" y="204" width="802" height="173" filterUnits="userSpaceOnUse" color-interpolation-filters="sRGB">
<feFlood flood-opacity="0" result="BackgroundImageFix"/>
<feBlend mode="normal" in="SourceGraphic" in2="BackgroundImageFix" result="shape"/>
<feGaussianBlur stdDeviation="18.5" result="effect1_foregroundBlur"/>
</filter>
</defs>
</svg>
