<svg width="130" height="64" viewBox="0 0 130 64" fill="none" xmlns="http://www.w3.org/2000/svg">
<path fill-rule="evenodd" clip-rule="evenodd" d="M104.662 27.0941L104.436 27.1989C104.141 27.548 103.619 27.583 103.149 28.6304C102.819 29.3636 102.906 30.1667 102.906 31.1967C102.906 32.6457 102.819 39.3495 102.958 40.6413C103.062 41.5317 102.975 57.3658 102.975 58.8323C102.975 60.4908 103.01 61.9048 104.732 62.6904C105.793 63.1618 108.593 62.9349 110.123 62.9349C110.384 62.8126 113.445 62.8301 113.862 62.8999C114.297 62.9698 114.819 62.9523 115.236 62.8999L116.419 62.8476C117.375 62.8476 118.541 62.7952 119.462 62.865L123.219 62.8301C124.227 62.865 125.323 62.8301 126.332 62.8476C127.514 62.8476 128.158 62.7777 128.854 62.254C130.314 61.1367 129.932 59.1116 129.932 56.9818C129.932 52.757 129.932 48.5148 129.932 44.29C129.932 40.0478 129.845 36.3118 129.845 31.9299C129.845 30.9523 129.984 29.7303 129.741 28.9097C129.375 27.6702 128.349 26.8672 127.045 26.8672H122.245L119.445 26.8846L112.941 26.8672C112.732 26.9894 110.436 27.0068 110.227 26.8672L106.541 26.9021C105.341 26.9719 105.88 26.8323 104.662 27.0941ZM119.584 42.3522C119.549 39.5764 119.567 36.7832 119.549 34.0074C119.549 33.0123 119.323 30.7777 119.793 30.0794C120.436 29.1018 121.967 29.2764 122.28 30.5333C122.436 31.1443 122.384 46.2453 122.384 47.2578C122.401 50.0336 122.419 52.8268 122.419 55.6026C122.419 56.6675 122.645 58.6228 122.21 59.4084C121.619 60.4559 120.019 60.2638 119.688 59.0767C119.497 58.3435 119.601 44.4297 119.584 42.3522ZM111.584 29.5033C112.193 29.3462 112.697 29.6779 112.975 30.0794C113.288 30.5333 113.236 31.1967 113.254 31.8252L113.358 57.0341C113.358 58.4133 113.514 59.8099 112.227 60.0892C111.549 60.2289 111.062 59.8448 110.801 59.4782C110.471 58.972 110.558 58.3609 110.558 57.6801L110.454 32.5409C110.436 31.0396 110.193 29.8874 111.584 29.5033ZM114.993 31.0396C114.993 28.9272 117.793 28.9097 117.793 31.1269L117.897 58.1165C117.897 58.6752 117.932 59.0767 117.654 59.4957C116.836 60.7352 115.149 60.1242 115.097 58.6053C114.975 54.4329 115.062 50.086 115.045 45.9136L114.993 31.0396ZM124.141 50.8716C124.071 45.2851 124.141 39.6812 124.071 34.0947C124.054 33.1869 123.897 30.7428 124.28 30.1143C124.923 29.0494 126.419 29.3113 126.784 30.4286C127.01 31.1792 126.906 37.4466 126.906 38.7559C126.923 44.3249 126.958 49.8939 126.958 55.4629C126.958 56.3882 127.149 58.7275 126.749 59.4084C126.141 60.4559 124.662 60.2464 124.262 59.1465C124.054 58.518 124.158 52.0936 124.141 50.8716ZM105.914 38.11C105.914 36.8705 105.741 31.2665 105.967 30.4984C106.262 29.4858 107.532 29.1192 108.314 29.9572C108.906 30.6031 108.697 32.2616 108.714 33.2916L108.801 56.0216C108.801 56.9818 109.01 58.7799 108.558 59.5131C108.036 60.386 106.767 60.4035 106.21 59.4608C105.862 58.8497 106.001 56.7199 106.001 55.8645L105.914 38.11Z" fill="#FF5F5F"/>
<path fill-rule="evenodd" clip-rule="evenodd" d="M49.3906 1.17167V26.9567C49.3906 27.3408 50.0863 27.2011 50.8341 27.2011C51.3906 27.2011 51.9471 27.2011 52.5211 27.2011C52.7298 26.3282 53.0776 25.4903 53.3384 24.6348L58.2254 9.28951C58.295 9.09747 58.3471 8.90544 58.4341 8.69594L58.8689 7.36916C58.9037 7.26441 58.9211 7.21204 58.9732 7.07238L59.1124 26.0838C59.1124 27.4804 58.6254 27.2011 61.8254 27.2011V1.17167C61.8254 0.979632 61.7732 0.927259 61.5819 0.927259C57.9993 0.927259 58.608 0.630478 58.1558 1.97472L52.3298 19.4848C52.2776 19.6419 52.2776 19.6943 52.2428 19.7991C52.1732 20.0085 52.1732 19.9736 52.0689 20.1133V0.927259H49.6689C49.4428 0.927259 49.3906 0.979632 49.3906 1.17167Z" fill="#F05F5F"/>
<path fill-rule="evenodd" clip-rule="evenodd" d="M104.436 27.2011L104.662 27.0963L104.68 0.909755H101.393C101.202 1.73027 97.8451 11.332 97.3581 12.7635C96.8364 14.3697 95.6364 18.4198 95.1146 19.7466L94.9755 20.0085C94.9755 19.3277 95.0451 1.18908 94.9407 1.0145C94.8016 0.787551 92.819 0.892298 92.332 0.892298V27.1487H95.3755L101.149 9.16726C101.254 8.85302 101.845 6.82792 102.019 6.58351V27.1487L104.436 27.2011Z" fill="#313131"/>
<path fill-rule="evenodd" clip-rule="evenodd" d="M34.1914 1.17117V26.9562C34.1914 27.1483 34.2436 27.2006 34.4349 27.2006H36.9914C37.1827 27.2006 37.2349 27.1483 37.2349 26.9562V3.65016H43.5479V27.1832H46.5044V1.17117C46.5044 0.979131 46.4523 0.926758 46.261 0.926758H34.4349C34.261 0.926758 34.1914 0.979131 34.1914 1.17117Z" fill="#F05F5F"/>
<path fill-rule="evenodd" clip-rule="evenodd" d="M3.48047 26.1695L4.55873 26.2219C5.56743 26.3441 5.74134 26.6933 6.43699 26.9726V19.169C6.43699 18.0342 6.52395 18.2437 7.34134 16.8646L7.95003 15.8695L12.7674 25.7156C13.0109 26.2219 13.2196 26.7107 13.4631 27.1821H16.5239L10.9587 15.433C10.6805 14.8744 10.3674 14.3157 10.1239 13.7746C10.0892 13.7047 9.77612 12.9715 9.77612 12.954C9.75873 12.7271 10.4022 11.6796 10.5587 11.3828L11.9153 8.95622C12.7326 7.61198 13.7239 5.58688 14.5761 4.15535C14.837 3.7189 16.2283 1.23991 16.2979 0.90821H13.3413L8.2109 10.2306C7.98482 10.6496 6.62829 13.2334 6.43699 13.373V1.81601C6.45438 0.646344 6.8196 0.925668 3.48047 0.925668V26.1695Z" fill="#F05F5F"/>
<path fill-rule="evenodd" clip-rule="evenodd" d="M78.5049 27.1817H81.4614V16.8991C85.0266 16.8991 88.0353 17.1435 89.6005 13.6694C90.3484 12.0109 90.1049 8.92093 90.1049 6.87837C90.1049 2.9853 87.9136 0.942749 84.0179 0.942749H78.5049V27.1817ZM83.9484 14.1757H81.4614V3.6487C84.1223 3.6487 87.1484 3.03768 87.1484 6.77363V11.1031C87.1484 13.2155 86.0527 14.1757 83.9484 14.1757Z" fill="#313131"/>
<path fill-rule="evenodd" clip-rule="evenodd" d="M20.1215 24.5293H19.565V27.1829C19.6519 27.2003 19.7911 27.2702 19.8085 27.2702C25.3041 27.2702 25.8606 24.4595 27.0258 19.903C27.1824 19.2745 27.3737 18.6984 27.5302 18.0001L29.0954 12.2565C29.4606 11.017 29.8258 9.74261 30.1563 8.43328C30.4867 7.07158 30.8867 5.91937 31.2172 4.59258L31.9824 1.74697C32.278 0.716967 32.7128 0.92646 29.3215 0.92646C28.9911 0.92646 28.8172 2.09613 28.6606 2.67223C28.0867 4.6275 27.2172 8.29362 26.6954 10.406L25.5476 15.3465C25.4606 15.6782 25.3389 16.0798 25.3389 16.4289C25.078 16.2369 25.2172 16.3416 25.0258 15.5386L23.1128 8.62531C22.7128 7.33344 22.3824 6.00666 21.965 4.71478L21.1302 1.78189C20.8172 0.682051 21.3563 0.92646 18.1389 0.92646C17.7737 0.92646 17.9998 1.2407 18.0867 1.53748C18.1737 1.83426 18.2258 2.04375 18.3128 2.35799L19.8085 7.12395C20.6085 9.67278 21.478 12.7453 22.2954 15.1545L23.8258 19.9728C23.9824 20.4616 23.6172 21.0378 23.4606 21.5091C22.9041 23.0454 22.7128 24.5293 20.1215 24.5293Z" fill="#F05F5F"/>
<path fill-rule="evenodd" clip-rule="evenodd" d="M63.793 1.17019V3.42224C63.793 3.61427 63.8451 3.66664 64.0365 3.66664H68.593V26.9552C68.593 27.1473 68.6451 27.1996 68.8364 27.1996H71.393C71.5843 27.1996 71.6364 27.1473 71.6364 26.9552V3.64919H76.4364V1.17019C76.4364 0.978154 76.3843 0.925781 76.193 0.925781H64.0365C63.8451 0.925781 63.793 0.978154 63.793 1.17019Z" fill="#313131"/>
<path fill-rule="evenodd" clip-rule="evenodd" d="M119.583 42.3526C119.6 44.4126 119.496 58.3264 119.704 59.0596C120.035 60.2467 121.635 60.4562 122.226 59.3913C122.661 58.6057 122.435 56.6504 122.435 55.5855C122.435 52.8097 122.417 50.0165 122.4 47.2407C122.4 46.2107 122.435 31.1272 122.296 30.5162C121.983 29.2593 120.452 29.0672 119.809 30.0623C119.339 30.7781 119.565 32.9952 119.565 33.9903C119.548 36.7835 119.548 39.5768 119.583 42.3526Z" fill="#FF5151"/>
<path fill-rule="evenodd" clip-rule="evenodd" d="M124.139 50.8719C124.157 52.0765 124.035 58.5184 124.261 59.1468C124.661 60.2467 126.139 60.4562 126.748 59.4087C127.148 58.7279 126.957 56.3885 126.957 55.4633C126.939 49.8943 126.922 44.3252 126.905 38.7562C126.905 37.4469 127.026 31.1796 126.783 30.4289C126.435 29.3116 124.922 29.0497 124.278 30.1147C123.896 30.7606 124.052 33.1872 124.07 34.095C124.157 39.6815 124.087 45.2854 124.139 50.8719Z" fill="#FF5151"/>
<path fill-rule="evenodd" clip-rule="evenodd" d="M114.992 31.0389L115.044 45.8954C115.062 50.0678 114.975 54.4148 115.097 58.5872C115.149 60.106 116.818 60.717 117.653 59.4775C117.931 59.0585 117.914 58.657 117.897 58.0983L117.792 31.1087C117.792 28.8916 114.992 28.9265 114.992 31.0389Z" fill="#FF5151"/>
<path fill-rule="evenodd" clip-rule="evenodd" d="M105.912 38.1104L105.981 55.8649C105.981 56.7203 105.842 58.8502 106.19 59.4612C106.747 60.4214 108.016 60.3864 108.538 59.5136C108.99 58.7803 108.781 56.9822 108.781 56.022L108.694 33.2921C108.694 32.2621 108.886 30.6036 108.294 29.9576C107.529 29.1371 106.242 29.5037 105.947 30.4988C105.755 31.2495 105.912 36.8709 105.912 38.1104Z" fill="#FF5151"/>
<path fill-rule="evenodd" clip-rule="evenodd" d="M111.584 29.5016C110.21 29.8683 110.436 31.0205 110.454 32.5568L110.558 57.6959C110.558 58.3767 110.471 58.9877 110.802 59.494C111.045 59.8781 111.549 60.2622 112.228 60.105C113.515 59.8257 113.358 58.4116 113.358 57.0499L113.254 31.841C113.254 31.2125 113.306 30.5491 112.976 30.0952C112.697 29.6762 112.176 29.3445 111.584 29.5016Z" fill="#FF5151"/>
<path fill-rule="evenodd" clip-rule="evenodd" d="M119.461 26.8864L122.261 26.8689C122.261 23.0457 122.261 19.205 122.261 15.3817C122.261 13.4789 122.261 11.576 122.261 9.67307C122.261 8.62561 122.4 4.61033 122.209 3.89457C122.017 3.80728 119.687 3.80728 119.513 3.89457C119.322 4.85474 119.478 8.36374 119.478 9.60324C119.478 11.5236 119.478 13.4614 119.478 15.3817C119.461 19.2224 119.461 23.0457 119.461 26.8864Z" fill="#313131"/>
<path fill-rule="evenodd" clip-rule="evenodd" d="M110.245 26.8696C110.454 27.0093 112.767 26.9918 112.958 26.8696L112.993 3.86035L110.193 3.89527C110.193 7.71851 110.193 11.5592 110.193 15.3824C110.193 17.2853 110.193 19.1882 110.193 21.0911C110.193 22.2084 110.037 26.0491 110.245 26.8696Z" fill="#313131"/>
<path fill-rule="evenodd" clip-rule="evenodd" d="M106.836 2.07757C110.001 2.18231 113.34 2.07757 116.523 2.07757C118.158 2.07757 119.775 2.07757 121.41 2.07757C122.592 2.07757 125.288 2.21723 126.297 2.02519C126.297 1.13485 125.845 0.541287 125.236 0.227048C124.592 -0.104649 123.358 0.0350131 122.453 0.0350131H110.766C109.219 0.0350131 106.836 -0.453803 106.836 2.07757Z" fill="#00A9AF"/>
<path fill-rule="evenodd" clip-rule="evenodd" d="M110.192 3.89446L112.992 3.85955L119.514 3.89446C119.688 3.80717 122.018 3.80717 122.21 3.89446C123.114 3.89446 124.331 3.99921 124.992 3.7548C125.775 3.45802 126.07 2.91683 126.262 2.04395C125.253 2.23598 122.557 2.09632 121.375 2.09632C119.74 2.09632 118.123 2.09632 116.488 2.09632C113.305 2.09632 109.966 2.20106 106.801 2.09632C106.801 2.88192 107.253 3.38819 107.757 3.66751C108.366 3.98175 109.288 3.91192 110.192 3.89446Z" fill="#00B2C0"/>
<path fill-rule="evenodd" clip-rule="evenodd" d="M3.59984 27.6532H3.6868C7.33897 27.5135 7.54766 32.4017 4.31288 32.8382L3.53027 32.8032L3.8781 32.9254C3.99984 32.9429 4.17375 32.9254 4.31288 32.9254L4.92158 38.1104C4.90419 38.2151 4.71288 38.1977 5.00853 38.1977C5.13027 37.9533 5.18245 37.8136 5.30419 37.5343C5.51288 37.0455 5.96506 36.2948 6.26071 35.5266C7.35636 32.7159 9.04332 29.9402 6.97375 27.4612C6.78245 27.2168 6.59114 27.1469 6.43462 26.9724C5.75636 26.693 5.58245 26.3613 4.55636 26.2217L3.53027 26.2042C3.56506 26.6581 3.73897 27.2168 3.59984 27.6532Z" fill="#FE5454"/>
<path fill-rule="evenodd" clip-rule="evenodd" d="M4.92195 38.1102L4.31325 32.9253C4.17412 32.9253 4.0176 32.9427 3.87847 32.9253L3.53064 32.8031C2.34803 32.6459 1.37412 31.5112 1.39151 30.1669C1.42629 28.7878 2.40021 27.9149 3.58282 27.653C3.73934 27.2166 3.54803 26.6754 3.51325 26.204L4.53934 26.2215L3.46108 26.1691C2.92195 26.3437 2.43499 26.2913 1.68716 26.85C-0.173707 28.2291 -0.451968 30.1495 0.556728 32.192C1.37412 33.8331 3.37412 36.3819 4.48716 37.796C4.67847 38.0229 4.66108 38.0055 4.92195 38.1102Z" fill="#FE5F5F"/>
<path fill-rule="evenodd" clip-rule="evenodd" d="M3.5321 32.8034L4.31471 32.8383L4.15819 31.3893C2.5408 31.4067 2.59297 29.5038 3.58427 29.242C3.72341 29.0674 3.56688 29.1547 3.89732 29.0849L3.70601 27.6533H3.61906C2.43645 27.9152 1.44514 28.7881 1.42775 30.1672C1.37558 31.494 2.36688 32.6462 3.5321 32.8034Z" fill="#FC4444"/>
<path fill-rule="evenodd" clip-rule="evenodd" d="M3.88057 29.0673C4.55883 29.1895 5.04579 29.3466 5.13274 30.0973C5.2197 30.848 4.75014 31.232 4.14144 31.3717L4.29796 32.8207C7.53274 32.3843 7.32405 27.4961 3.67188 27.6357L3.88057 29.0673Z" fill="#F93C3C"/>
<path fill-rule="evenodd" clip-rule="evenodd" d="M51.1484 31.0049C51.5832 32.419 52.905 31.8254 54.0528 31.5461C54.5223 31.4239 55.3223 31.2842 55.7049 31.1096C55.9136 31.0223 56.1571 30.8478 56.2789 30.6383C56.3136 30.5684 56.418 30.2891 56.4354 30.2193C56.4528 30.1495 56.4528 30.0796 56.4528 30.0098L56.3658 29.7479L51.1484 31.0049Z" fill="#313131"/>
<path fill-rule="evenodd" clip-rule="evenodd" d="M65.2354 29.8527L59.8789 29.5908C59.8789 31.162 61.3572 30.7954 62.4528 30.9351C62.7485 30.97 64.0528 30.9874 64.3311 30.9351C64.8006 30.8652 65.218 30.4113 65.2354 29.8527Z" fill="#323232"/>
<path fill-rule="evenodd" clip-rule="evenodd" d="M92.8359 47.5734C93.462 47.975 94.4881 48.4463 95.2185 48.8129C95.8794 49.1446 96.9751 49.7731 97.6359 50.0175C98.2272 48.586 96.5751 48.167 95.0794 47.4338C94.1055 46.9449 93.6185 46.526 92.8359 47.5734Z" fill="#454545"/>
<path fill-rule="evenodd" clip-rule="evenodd" d="M73.9488 32.6789C73.6184 32.644 69.1662 30.8284 69.0619 30.7236C68.9401 30.7935 68.6619 30.8633 68.9053 31.5267C69.201 32.3472 69.8271 32.3297 70.9053 32.8186C72.0532 33.3074 73.4097 34.0231 73.9488 32.6789Z" fill="#313131"/>
<path fill-rule="evenodd" clip-rule="evenodd" d="M16.799 47.904L16.7643 48.3928L11.5469 47.293C11.5469 48.8642 12.399 48.6721 14.1556 49.0562C14.6251 49.1609 15.5469 49.4577 16.0512 49.3006C16.5034 49.1435 17.0077 48.515 16.799 47.904Z" fill="#323232"/>
<path fill-rule="evenodd" clip-rule="evenodd" d="M35.3203 38.9486C35.4942 39.4374 36.1899 39.7168 36.8334 39.4724C37.0247 39.4025 37.3551 39.1756 37.5464 39.0534C39.129 38.0234 40.6942 37.744 39.929 36.1729C39.7551 36.4173 37.8768 37.4647 37.6334 37.6044C36.9203 38.0059 36.0507 38.6169 35.3203 38.9486Z" fill="#323232"/>
<path fill-rule="evenodd" clip-rule="evenodd" d="M80.8362 38.8435C80.471 38.6689 80.0536 38.2848 79.7232 38.023C79.3405 37.7262 79.0623 37.4992 78.6797 37.2199C78.3145 36.9406 76.8014 35.8407 76.6275 35.5439C75.6362 36.7136 77.2362 37.569 77.9666 38.1801C78.1927 38.3721 78.3666 38.4943 78.5927 38.6689C78.8014 38.826 79.0623 39.0704 79.271 39.1926C79.5145 39.3323 79.7927 39.4545 80.1232 39.3672C80.4188 39.2799 80.7492 39.1053 80.8362 38.8435Z" fill="#313131"/>
<path fill-rule="evenodd" clip-rule="evenodd" d="M26.9922 43.9749C27.9835 45.2493 28.7487 44.3589 29.9313 43.6955L31.34 42.8576C31.74 42.5084 31.9661 41.9847 31.7574 41.5133C31.6704 41.3213 31.7052 41.3911 31.6357 41.3213C30.9574 41.6181 30.0009 42.264 29.3226 42.6655C28.8704 42.9449 27.4096 43.8876 26.9922 43.9749Z" fill="#323232"/>
<path fill-rule="evenodd" clip-rule="evenodd" d="M42.9922 34.725C43.1139 35.2487 43.7574 35.5629 44.3487 35.3884L47.2531 33.9568C47.74 33.6775 48.0705 33.0839 47.7922 32.3682L42.9922 34.725Z" fill="#313131"/>
<path fill-rule="evenodd" clip-rule="evenodd" d="M19.7227 47.7121C20.2618 49.1437 21.9835 47.974 22.6096 47.6598C23.3574 47.2757 24.4009 47.0313 24.6444 46.3155C24.6966 46.1584 24.714 46.0013 24.714 45.8092C24.714 45.6696 24.714 45.6347 24.6618 45.5299C24.5748 45.303 24.6096 45.4252 24.5227 45.3379C24.3661 45.6172 22.54 46.3854 22.1574 46.5599C21.4618 46.8916 20.4009 47.5201 19.7227 47.7121Z" fill="#323232"/>
<path fill-rule="evenodd" clip-rule="evenodd" d="M19.7213 47.7136C20.3996 47.5216 21.4604 46.8931 22.1561 46.5614C22.5387 46.3869 24.3648 45.6187 24.5213 45.3394C24.3126 44.8506 23.7213 44.6236 23.1822 44.7808L21.7039 45.4616C21.2343 45.6885 20.7126 45.933 20.2604 46.1774C19.8256 46.4218 19.3735 46.9804 19.7213 47.7136Z" fill="#454545"/>
<path fill-rule="evenodd" clip-rule="evenodd" d="M97.6347 50.0163C96.9738 49.7894 95.8781 49.1435 95.2173 48.8118C94.4868 48.4452 93.4782 47.9738 92.8347 47.5723C92.226 48.9863 93.6347 49.3529 94.6955 49.8941C95.9303 50.5052 96.8347 51.2908 97.6347 50.0163Z" fill="#313131"/>
<path fill-rule="evenodd" clip-rule="evenodd" d="M88.5378 45.2504C87.9639 44.7441 87.0074 44.1855 86.3465 43.7316C85.9813 43.4872 85.6161 43.2253 85.2508 42.9809C84.903 42.754 84.4508 42.4921 84.19 42.1953C83.8595 42.4572 83.7378 43.1904 84.3639 43.784L87.0074 45.617C87.5465 45.9138 88.3117 45.7916 88.5378 45.2504Z" fill="#313131"/>
<path fill-rule="evenodd" clip-rule="evenodd" d="M8.92076 45.2859C8.60771 45.1812 8.88597 45.3558 8.6251 45.0764L5.56423 41.1484C5.11206 41.3056 4.86858 42.1261 5.26858 42.7196L7.33815 45.3034C7.80771 45.7573 8.50336 45.7398 8.92076 45.2859Z" fill="#313131"/>
<path fill-rule="evenodd" clip-rule="evenodd" d="M76.625 35.5261C76.8163 35.8229 78.312 36.9227 78.6772 37.202C79.0424 37.4814 79.3381 37.7083 79.7207 38.0051C80.0511 38.267 80.4685 38.651 80.8337 38.8256C81.3207 38.4241 81.0598 37.5861 80.6946 37.2719C80.5555 37.1497 80.5555 37.1671 80.4163 37.0624L79.4598 36.3292C79.0424 36.0149 78.6946 35.6832 78.2424 35.3864C77.6337 34.9675 77.1294 35.0373 76.625 35.5261Z" fill="#454545"/>
<path fill-rule="evenodd" clip-rule="evenodd" d="M35.3203 38.9485C36.0508 38.6342 36.9203 38.0232 37.616 37.6042C37.8595 37.4645 39.7551 36.4171 39.9116 36.1727C38.9029 35.1776 38.5551 35.7188 37.0595 36.5742C36.6247 36.8361 36.1029 37.0979 35.7029 37.3773C35.2508 37.709 34.9377 38.2327 35.3203 38.9485Z" fill="#454545"/>
<path fill-rule="evenodd" clip-rule="evenodd" d="M59.8789 29.592L65.2354 29.8539C65.2354 28.5271 63.9485 28.5446 62.5919 28.562C62.018 28.562 61.2354 28.4049 60.7833 28.5096C60.3137 28.6144 59.8963 29.0159 59.8789 29.592Z" fill="#454545"/>
<path fill-rule="evenodd" clip-rule="evenodd" d="M51.1464 31.0053L56.3464 29.7484C56.2247 28.2819 54.1203 29.085 53.4942 29.2246C52.6421 29.4167 51.7029 29.4865 51.3029 30.0801C51.0942 30.4292 51.1464 30.4642 51.1464 31.0053Z" fill="#454545"/>
<path fill-rule="evenodd" clip-rule="evenodd" d="M42.9905 34.7235L47.7905 32.3841C47.6339 32.1572 47.5644 32.0175 47.3035 31.8604C47.0253 31.7033 46.7296 31.6509 46.4166 31.7557C45.9992 31.8953 45.3035 32.2969 44.9035 32.4889C43.9296 32.9777 43.1818 33.1348 42.9035 33.8506C42.834 34.0077 42.7992 34.0426 42.834 34.3219C42.8687 34.5838 42.9383 34.6362 42.9905 34.7235Z" fill="#454545"/>
<path fill-rule="evenodd" clip-rule="evenodd" d="M11.5664 47.2929L16.7838 48.3927L16.8186 47.9039C16.6794 47.3802 16.3838 47.1008 15.8621 46.9786C15.3055 46.8564 13.0447 46.3502 12.6273 46.3676C12.349 46.3851 12.1055 46.4898 11.9316 46.647C11.7055 46.839 11.6708 47.031 11.5664 47.2929Z" fill="#454545"/>
<path fill-rule="evenodd" clip-rule="evenodd" d="M69.0778 30.7068C69.1647 30.829 73.6343 32.6446 73.9647 32.6621C74.156 32.0336 73.9125 31.5099 73.4778 31.2655C73.2865 31.1607 72.9734 31.0734 72.7299 30.9687C72.4517 30.8465 72.1908 30.7417 71.9473 30.637L70.7821 30.2005C70.3125 30.026 69.6343 29.799 69.1647 30.3402C68.9734 30.5846 69.0604 30.637 69.0778 30.7068Z" fill="#454545"/>
<path fill-rule="evenodd" clip-rule="evenodd" d="M26.9926 43.9759C27.41 43.8886 28.8708 42.9284 29.3056 42.6665C29.9839 42.265 30.9404 41.6191 31.6187 41.3223C31.5491 41.0255 31.3752 40.9033 31.0969 40.7811C30.4187 40.4843 30.0708 40.8509 29.4969 41.1826L27.3926 42.4396C26.923 42.7713 26.7491 43.3823 26.9926 43.9759Z" fill="#454545"/>
<path fill-rule="evenodd" clip-rule="evenodd" d="M5.56641 41.1463L8.62727 45.0568C8.88814 45.3536 8.60988 45.1616 8.92293 45.2663C9.86206 44.2887 8.83597 43.4333 8.07075 42.4731C7.75771 42.0715 7.16641 41.1812 6.74901 40.9892C6.67945 40.9543 6.43597 40.867 6.33162 40.867C6.01858 40.8321 5.72293 40.9368 5.56641 41.1463Z" fill="#454545"/>
<path fill-rule="evenodd" clip-rule="evenodd" d="M84.1914 42.1937C84.4523 42.4905 84.9045 42.7349 85.2523 42.9793C85.6175 43.2237 85.9827 43.4856 86.3479 43.73C86.9914 44.1839 87.9653 44.7426 88.5392 45.2488C88.8871 44.9346 88.8871 44.149 88.3827 43.6951L87.061 42.7873C86.5914 42.508 86.2436 42.2112 85.774 41.9144C85.4088 41.6875 84.8523 41.5827 84.4523 41.8969C84.2436 42.0366 84.3131 41.9842 84.1914 42.1937Z" fill="#454545"/>
<path fill-rule="evenodd" clip-rule="evenodd" d="M123.217 62.8291L119.461 62.864C119.461 63.4227 119.548 63.7544 119.948 63.8766C120.139 63.9289 120.313 63.9289 120.47 63.9464C122.365 63.9813 123.217 64.3479 123.217 62.8291Z" fill="#2E2E2E"/>
<path fill-rule="evenodd" clip-rule="evenodd" d="M113.86 62.8828C113.46 62.813 110.382 62.7955 110.121 62.9177C110.034 63.4939 110.19 63.7732 110.625 63.8954C110.747 63.9303 111.286 63.9652 111.773 63.9652C113.077 63.9652 113.86 64.2445 113.86 62.8828Z" fill="#2F2F2F"/>
<path fill-rule="evenodd" clip-rule="evenodd" d="M4.13934 31.3715C4.73065 31.2318 5.2176 30.8478 5.13065 30.0971C5.04369 29.3464 4.55673 29.1893 3.87847 29.0671C3.56543 29.1369 3.70456 29.0322 3.56543 29.2242L3.86108 29.1893L4.13934 31.3715Z" fill="#FE5454"/>
<path fill-rule="evenodd" clip-rule="evenodd" d="M4.13935 31.3716L3.86109 29.1894L3.56544 29.2243C2.57413 29.4862 2.52196 31.3891 4.13935 31.3716Z" fill="#FE5F5F"/>
<path fill-rule="evenodd" clip-rule="evenodd" d="M104.662 27.0941L104.436 27.1989C104.141 27.548 103.619 27.583 103.149 28.6304C102.819 29.3636 102.906 30.1667 102.906 31.1967C102.906 32.6457 102.819 39.3495 102.958 40.6413C103.062 41.5317 102.975 57.3658 102.975 58.8323C102.975 60.4908 103.01 61.9048 104.732 62.6904C105.793 63.1618 108.593 62.9349 110.123 62.9349C110.384 62.8126 113.445 62.8301 113.862 62.8999C114.297 62.9698 114.819 62.9523 115.236 62.8999L116.419 62.8476C117.375 62.8476 118.541 62.7952 119.462 62.865L123.219 62.8301C124.227 62.865 125.323 62.8301 126.332 62.8476C127.514 62.8476 128.158 62.7777 128.854 62.254C130.314 61.1367 129.932 59.1116 129.932 56.9818C129.932 52.757 129.932 48.5148 129.932 44.29C129.932 40.0478 129.845 36.3118 129.845 31.9299C129.845 30.9523 129.984 29.7303 129.741 28.9097C129.375 27.6702 128.349 26.8672 127.045 26.8672H122.245L119.445 26.8846L112.941 26.8672C112.732 26.9894 110.436 27.0068 110.227 26.8672L106.541 26.9021C105.341 26.9719 105.88 26.8323 104.662 27.0941ZM119.584 42.3522C119.549 39.5764 119.567 36.7832 119.549 34.0074C119.549 33.0123 119.323 30.7777 119.793 30.0794C120.436 29.1018 121.967 29.2764 122.28 30.5333C122.436 31.1443 122.384 46.2453 122.384 47.2578C122.401 50.0336 122.419 52.8268 122.419 55.6026C122.419 56.6675 122.645 58.6228 122.21 59.4084C121.619 60.4559 120.019 60.2638 119.688 59.0767C119.497 58.3435 119.601 44.4297 119.584 42.3522ZM111.584 29.5033C112.193 29.3462 112.697 29.6779 112.975 30.0794C113.288 30.5333 113.236 31.1967 113.254 31.8252L113.358 57.0341C113.358 58.4133 113.514 59.8099 112.227 60.0892C111.549 60.2289 111.062 59.8448 110.801 59.4782C110.471 58.972 110.558 58.3609 110.558 57.6801L110.454 32.5409C110.436 31.0396 110.193 29.8874 111.584 29.5033ZM114.993 31.0396C114.993 28.9272 117.793 28.9097 117.793 31.1269L117.897 58.1165C117.897 58.6752 117.932 59.0767 117.654 59.4957C116.836 60.7352 115.149 60.1242 115.097 58.6053C114.975 54.4329 115.062 50.086 115.045 45.9136L114.993 31.0396ZM124.141 50.8716C124.071 45.2851 124.141 39.6812 124.071 34.0947C124.054 33.1869 123.897 30.7428 124.28 30.1143C124.923 29.0494 126.419 29.3113 126.784 30.4286C127.01 31.1792 126.906 37.4466 126.906 38.7559C126.923 44.3249 126.958 49.8939 126.958 55.4629C126.958 56.3882 127.149 58.7275 126.749 59.4084C126.141 60.4559 124.662 60.2464 124.262 59.1465C124.054 58.518 124.158 52.0936 124.141 50.8716ZM105.914 38.11C105.914 36.8705 105.741 31.2665 105.967 30.4984C106.262 29.4858 107.532 29.1192 108.314 29.9572C108.906 30.6031 108.697 32.2616 108.714 33.2916L108.801 56.0216C108.801 56.9818 109.01 58.7799 108.558 59.5131C108.036 60.386 106.767 60.4035 106.21 59.4608C105.862 58.8497 106.001 56.7199 106.001 55.8645L105.914 38.11Z" fill="#FF5F5F"/>
<path fill-rule="evenodd" clip-rule="evenodd" d="M49.3906 1.17167V26.9567C49.3906 27.3408 50.0863 27.2011 50.8341 27.2011C51.3906 27.2011 51.9471 27.2011 52.5211 27.2011C52.7298 26.3282 53.0776 25.4903 53.3384 24.6348L58.2254 9.28951C58.295 9.09747 58.3471 8.90544 58.4341 8.69594L58.8689 7.36916C58.9037 7.26441 58.9211 7.21204 58.9732 7.07238L59.1124 26.0838C59.1124 27.4804 58.6254 27.2011 61.8254 27.2011V1.17167C61.8254 0.979632 61.7732 0.927259 61.5819 0.927259C57.9993 0.927259 58.608 0.630478 58.1558 1.97472L52.3298 19.4848C52.2776 19.6419 52.2776 19.6943 52.2428 19.7991C52.1732 20.0085 52.1732 19.9736 52.0689 20.1133V0.927259H49.6689C49.4428 0.927259 49.3906 0.979632 49.3906 1.17167Z" fill="#F05F5F"/>
<path fill-rule="evenodd" clip-rule="evenodd" d="M104.436 27.2011L104.662 27.0963L104.68 0.909755H101.393C101.202 1.73027 97.8451 11.332 97.3581 12.7635C96.8364 14.3697 95.6364 18.4198 95.1146 19.7466L94.9755 20.0085C94.9755 19.3277 95.0451 1.18908 94.9407 1.0145C94.8016 0.787551 92.819 0.892298 92.332 0.892298V27.1487H95.3755L101.149 9.16726C101.254 8.85302 101.845 6.82792 102.019 6.58351V27.1487L104.436 27.2011Z" fill="#313131"/>
<path fill-rule="evenodd" clip-rule="evenodd" d="M34.1914 1.17117V26.9562C34.1914 27.1483 34.2436 27.2006 34.4349 27.2006H36.9914C37.1827 27.2006 37.2349 27.1483 37.2349 26.9562V3.65016H43.5479V27.1832H46.5044V1.17117C46.5044 0.979131 46.4523 0.926758 46.261 0.926758H34.4349C34.261 0.926758 34.1914 0.979131 34.1914 1.17117Z" fill="#F05F5F"/>
<path fill-rule="evenodd" clip-rule="evenodd" d="M3.48047 26.1695L4.55873 26.2219C5.56743 26.3441 5.74134 26.6933 6.43699 26.9726V19.169C6.43699 18.0342 6.52395 18.2437 7.34134 16.8646L7.95003 15.8695L12.7674 25.7156C13.0109 26.2219 13.2196 26.7107 13.4631 27.1821H16.5239L10.9587 15.433C10.6805 14.8744 10.3674 14.3157 10.1239 13.7746C10.0892 13.7047 9.77612 12.9715 9.77612 12.954C9.75873 12.7271 10.4022 11.6796 10.5587 11.3828L11.9153 8.95622C12.7326 7.61198 13.7239 5.58688 14.5761 4.15535C14.837 3.7189 16.2283 1.23991 16.2979 0.90821H13.3413L8.2109 10.2306C7.98482 10.6496 6.62829 13.2334 6.43699 13.373V1.81601C6.45438 0.646344 6.8196 0.925668 3.48047 0.925668V26.1695Z" fill="#F05F5F"/>
<path fill-rule="evenodd" clip-rule="evenodd" d="M78.5049 27.1817H81.4614V16.8991C85.0266 16.8991 88.0353 17.1435 89.6005 13.6694C90.3484 12.0109 90.1049 8.92093 90.1049 6.87837C90.1049 2.9853 87.9136 0.942749 84.0179 0.942749H78.5049V27.1817ZM83.9484 14.1757H81.4614V3.6487C84.1223 3.6487 87.1484 3.03768 87.1484 6.77363V11.1031C87.1484 13.2155 86.0527 14.1757 83.9484 14.1757Z" fill="#313131"/>
<path fill-rule="evenodd" clip-rule="evenodd" d="M20.1215 24.5293H19.565V27.1829C19.6519 27.2003 19.7911 27.2702 19.8085 27.2702C25.3041 27.2702 25.8606 24.4595 27.0258 19.903C27.1824 19.2745 27.3737 18.6984 27.5302 18.0001L29.0954 12.2565C29.4606 11.017 29.8258 9.74261 30.1563 8.43328C30.4867 7.07158 30.8867 5.91937 31.2172 4.59258L31.9824 1.74697C32.278 0.716967 32.7128 0.92646 29.3215 0.92646C28.9911 0.92646 28.8172 2.09613 28.6606 2.67223C28.0867 4.6275 27.2172 8.29362 26.6954 10.406L25.5476 15.3465C25.4606 15.6782 25.3389 16.0798 25.3389 16.4289C25.078 16.2369 25.2172 16.3416 25.0258 15.5386L23.1128 8.62531C22.7128 7.33344 22.3824 6.00666 21.965 4.71478L21.1302 1.78189C20.8172 0.682051 21.3563 0.92646 18.1389 0.92646C17.7737 0.92646 17.9998 1.2407 18.0867 1.53748C18.1737 1.83426 18.2258 2.04375 18.3128 2.35799L19.8085 7.12395C20.6085 9.67278 21.478 12.7453 22.2954 15.1545L23.8258 19.9728C23.9824 20.4616 23.6172 21.0378 23.4606 21.5091C22.9041 23.0454 22.7128 24.5293 20.1215 24.5293Z" fill="#F05F5F"/>
<path fill-rule="evenodd" clip-rule="evenodd" d="M63.793 1.17019V3.42224C63.793 3.61427 63.8451 3.66664 64.0365 3.66664H68.593V26.9552C68.593 27.1473 68.6451 27.1996 68.8364 27.1996H71.393C71.5843 27.1996 71.6364 27.1473 71.6364 26.9552V3.64919H76.4364V1.17019C76.4364 0.978154 76.3843 0.925781 76.193 0.925781H64.0365C63.8451 0.925781 63.793 0.978154 63.793 1.17019Z" fill="#313131"/>
<path fill-rule="evenodd" clip-rule="evenodd" d="M119.583 42.3526C119.6 44.4126 119.496 58.3264 119.704 59.0596C120.035 60.2467 121.635 60.4562 122.226 59.3913C122.661 58.6057 122.435 56.6504 122.435 55.5855C122.435 52.8097 122.417 50.0165 122.4 47.2407C122.4 46.2107 122.435 31.1272 122.296 30.5162C121.983 29.2593 120.452 29.0672 119.809 30.0623C119.339 30.7781 119.565 32.9952 119.565 33.9903C119.548 36.7835 119.548 39.5768 119.583 42.3526Z" fill="#FF5151"/>
<path fill-rule="evenodd" clip-rule="evenodd" d="M124.139 50.8719C124.157 52.0765 124.035 58.5184 124.261 59.1468C124.661 60.2467 126.139 60.4562 126.748 59.4087C127.148 58.7279 126.957 56.3885 126.957 55.4633C126.939 49.8943 126.922 44.3252 126.905 38.7562C126.905 37.4469 127.026 31.1796 126.783 30.4289C126.435 29.3116 124.922 29.0497 124.278 30.1147C123.896 30.7606 124.052 33.1872 124.07 34.095C124.157 39.6815 124.087 45.2854 124.139 50.8719Z" fill="#FF5151"/>
<path fill-rule="evenodd" clip-rule="evenodd" d="M114.992 31.0389L115.044 45.8954C115.062 50.0678 114.975 54.4148 115.097 58.5872C115.149 60.106 116.818 60.717 117.653 59.4775C117.931 59.0585 117.914 58.657 117.897 58.0983L117.792 31.1087C117.792 28.8916 114.992 28.9265 114.992 31.0389Z" fill="#FF5151"/>
<path fill-rule="evenodd" clip-rule="evenodd" d="M105.912 38.1104L105.981 55.8649C105.981 56.7203 105.842 58.8502 106.19 59.4612C106.747 60.4214 108.016 60.3864 108.538 59.5136C108.99 58.7803 108.781 56.9822 108.781 56.022L108.694 33.2921C108.694 32.2621 108.886 30.6036 108.294 29.9576C107.529 29.1371 106.242 29.5037 105.947 30.4988C105.755 31.2495 105.912 36.8709 105.912 38.1104Z" fill="#FF5151"/>
<path fill-rule="evenodd" clip-rule="evenodd" d="M111.584 29.5016C110.21 29.8683 110.436 31.0205 110.454 32.5568L110.558 57.6959C110.558 58.3767 110.471 58.9877 110.802 59.494C111.045 59.8781 111.549 60.2622 112.228 60.105C113.515 59.8257 113.358 58.4116 113.358 57.0499L113.254 31.841C113.254 31.2125 113.306 30.5491 112.976 30.0952C112.697 29.6762 112.176 29.3445 111.584 29.5016Z" fill="#FF5151"/>
<path fill-rule="evenodd" clip-rule="evenodd" d="M119.461 26.8864L122.261 26.8689C122.261 23.0457 122.261 19.205 122.261 15.3817C122.261 13.4789 122.261 11.576 122.261 9.67307C122.261 8.62561 122.4 4.61033 122.209 3.89457C122.017 3.80728 119.687 3.80728 119.513 3.89457C119.322 4.85474 119.478 8.36374 119.478 9.60324C119.478 11.5236 119.478 13.4614 119.478 15.3817C119.461 19.2224 119.461 23.0457 119.461 26.8864Z" fill="#313131"/>
<path fill-rule="evenodd" clip-rule="evenodd" d="M110.245 26.8696C110.454 27.0093 112.767 26.9918 112.958 26.8696L112.993 3.86035L110.193 3.89527C110.193 7.71851 110.193 11.5592 110.193 15.3824C110.193 17.2853 110.193 19.1882 110.193 21.0911C110.193 22.2084 110.037 26.0491 110.245 26.8696Z" fill="#313131"/>
<path fill-rule="evenodd" clip-rule="evenodd" d="M106.836 2.07757C110.001 2.18231 113.34 2.07757 116.523 2.07757C118.158 2.07757 119.775 2.07757 121.41 2.07757C122.592 2.07757 125.288 2.21723 126.297 2.02519C126.297 1.13485 125.845 0.541287 125.236 0.227048C124.592 -0.104649 123.358 0.0350131 122.453 0.0350131H110.766C109.219 0.0350131 106.836 -0.453803 106.836 2.07757Z" fill="#00A9AF"/>
<path fill-rule="evenodd" clip-rule="evenodd" d="M110.192 3.89446L112.992 3.85955L119.514 3.89446C119.688 3.80717 122.018 3.80717 122.21 3.89446C123.114 3.89446 124.331 3.99921 124.992 3.7548C125.775 3.45802 126.07 2.91683 126.262 2.04395C125.253 2.23598 122.557 2.09632 121.375 2.09632C119.74 2.09632 118.123 2.09632 116.488 2.09632C113.305 2.09632 109.966 2.20106 106.801 2.09632C106.801 2.88192 107.253 3.38819 107.757 3.66751C108.366 3.98175 109.288 3.91192 110.192 3.89446Z" fill="#00B2C0"/>
<path fill-rule="evenodd" clip-rule="evenodd" d="M3.59984 27.6532H3.6868C7.33897 27.5135 7.54766 32.4017 4.31288 32.8382L3.53027 32.8032L3.8781 32.9254C3.99984 32.9429 4.17375 32.9254 4.31288 32.9254L4.92158 38.1104C4.90419 38.2151 4.71288 38.1977 5.00853 38.1977C5.13027 37.9533 5.18245 37.8136 5.30419 37.5343C5.51288 37.0455 5.96506 36.2948 6.26071 35.5266C7.35636 32.7159 9.04332 29.9402 6.97375 27.4612C6.78245 27.2168 6.59114 27.1469 6.43462 26.9724C5.75636 26.693 5.58245 26.3613 4.55636 26.2217L3.53027 26.2042C3.56506 26.6581 3.73897 27.2168 3.59984 27.6532Z" fill="#FE5454"/>
<path fill-rule="evenodd" clip-rule="evenodd" d="M4.92195 38.1102L4.31325 32.9253C4.17412 32.9253 4.0176 32.9427 3.87847 32.9253L3.53064 32.8031C2.34803 32.6459 1.37412 31.5112 1.39151 30.1669C1.42629 28.7878 2.40021 27.9149 3.58282 27.653C3.73934 27.2166 3.54803 26.6754 3.51325 26.204L4.53934 26.2215L3.46108 26.1691C2.92195 26.3437 2.43499 26.2913 1.68716 26.85C-0.173707 28.2291 -0.451968 30.1495 0.556728 32.192C1.37412 33.8331 3.37412 36.3819 4.48716 37.796C4.67847 38.0229 4.66108 38.0055 4.92195 38.1102Z" fill="#FE5F5F"/>
<path fill-rule="evenodd" clip-rule="evenodd" d="M3.5321 32.8034L4.31471 32.8383L4.15819 31.3893C2.5408 31.4067 2.59297 29.5038 3.58427 29.242C3.72341 29.0674 3.56688 29.1547 3.89732 29.0849L3.70601 27.6533H3.61906C2.43645 27.9152 1.44514 28.7881 1.42775 30.1672C1.37558 31.494 2.36688 32.6462 3.5321 32.8034Z" fill="#FC4444"/>
<path fill-rule="evenodd" clip-rule="evenodd" d="M3.88057 29.0673C4.55883 29.1895 5.04579 29.3466 5.13274 30.0973C5.2197 30.848 4.75014 31.232 4.14144 31.3717L4.29796 32.8207C7.53274 32.3843 7.32405 27.4961 3.67188 27.6357L3.88057 29.0673Z" fill="#F93C3C"/>
<path fill-rule="evenodd" clip-rule="evenodd" d="M51.1484 31.0049C51.5832 32.419 52.905 31.8254 54.0528 31.5461C54.5223 31.4239 55.3223 31.2842 55.7049 31.1096C55.9136 31.0223 56.1571 30.8478 56.2789 30.6383C56.3136 30.5684 56.418 30.2891 56.4354 30.2193C56.4528 30.1495 56.4528 30.0796 56.4528 30.0098L56.3658 29.7479L51.1484 31.0049Z" fill="#313131"/>
<path fill-rule="evenodd" clip-rule="evenodd" d="M65.2354 29.8527L59.8789 29.5908C59.8789 31.162 61.3572 30.7954 62.4528 30.9351C62.7485 30.97 64.0528 30.9874 64.3311 30.9351C64.8006 30.8652 65.218 30.4113 65.2354 29.8527Z" fill="#323232"/>
<path fill-rule="evenodd" clip-rule="evenodd" d="M92.8359 47.5734C93.462 47.975 94.4881 48.4463 95.2185 48.8129C95.8794 49.1446 96.9751 49.7731 97.6359 50.0175C98.2272 48.586 96.5751 48.167 95.0794 47.4338C94.1055 46.9449 93.6185 46.526 92.8359 47.5734Z" fill="#454545"/>
<path fill-rule="evenodd" clip-rule="evenodd" d="M73.9488 32.6789C73.6184 32.644 69.1662 30.8284 69.0619 30.7236C68.9401 30.7935 68.6619 30.8633 68.9053 31.5267C69.201 32.3472 69.8271 32.3297 70.9053 32.8186C72.0532 33.3074 73.4097 34.0231 73.9488 32.6789Z" fill="#313131"/>
<path fill-rule="evenodd" clip-rule="evenodd" d="M16.799 47.904L16.7643 48.3928L11.5469 47.293C11.5469 48.8642 12.399 48.6721 14.1556 49.0562C14.6251 49.1609 15.5469 49.4577 16.0512 49.3006C16.5034 49.1435 17.0077 48.515 16.799 47.904Z" fill="#323232"/>
<path fill-rule="evenodd" clip-rule="evenodd" d="M35.3203 38.9486C35.4942 39.4374 36.1899 39.7168 36.8334 39.4724C37.0247 39.4025 37.3551 39.1756 37.5464 39.0534C39.129 38.0234 40.6942 37.744 39.929 36.1729C39.7551 36.4173 37.8768 37.4647 37.6334 37.6044C36.9203 38.0059 36.0507 38.6169 35.3203 38.9486Z" fill="#323232"/>
<path fill-rule="evenodd" clip-rule="evenodd" d="M80.8362 38.8435C80.471 38.6689 80.0536 38.2848 79.7232 38.023C79.3405 37.7262 79.0623 37.4992 78.6797 37.2199C78.3145 36.9406 76.8014 35.8407 76.6275 35.5439C75.6362 36.7136 77.2362 37.569 77.9666 38.1801C78.1927 38.3721 78.3666 38.4943 78.5927 38.6689C78.8014 38.826 79.0623 39.0704 79.271 39.1926C79.5145 39.3323 79.7927 39.4545 80.1232 39.3672C80.4188 39.2799 80.7492 39.1053 80.8362 38.8435Z" fill="#313131"/>
<path fill-rule="evenodd" clip-rule="evenodd" d="M26.9922 43.9749C27.9835 45.2493 28.7487 44.3589 29.9313 43.6955L31.34 42.8576C31.74 42.5084 31.9661 41.9847 31.7574 41.5133C31.6704 41.3213 31.7052 41.3911 31.6357 41.3213C30.9574 41.6181 30.0009 42.264 29.3226 42.6655C28.8704 42.9449 27.4096 43.8876 26.9922 43.9749Z" fill="#323232"/>
<path fill-rule="evenodd" clip-rule="evenodd" d="M42.9922 34.725C43.1139 35.2487 43.7574 35.5629 44.3487 35.3884L47.2531 33.9568C47.74 33.6775 48.0705 33.0839 47.7922 32.3682L42.9922 34.725Z" fill="#313131"/>
<path fill-rule="evenodd" clip-rule="evenodd" d="M19.7227 47.7121C20.2618 49.1437 21.9835 47.974 22.6096 47.6598C23.3574 47.2757 24.4009 47.0313 24.6444 46.3155C24.6966 46.1584 24.714 46.0013 24.714 45.8092C24.714 45.6696 24.714 45.6347 24.6618 45.5299C24.5748 45.303 24.6096 45.4252 24.5227 45.3379C24.3661 45.6172 22.54 46.3854 22.1574 46.5599C21.4618 46.8916 20.4009 47.5201 19.7227 47.7121Z" fill="#323232"/>
<path fill-rule="evenodd" clip-rule="evenodd" d="M19.7213 47.7136C20.3996 47.5216 21.4604 46.8931 22.1561 46.5614C22.5387 46.3869 24.3648 45.6187 24.5213 45.3394C24.3126 44.8506 23.7213 44.6236 23.1822 44.7808L21.7039 45.4616C21.2343 45.6885 20.7126 45.933 20.2604 46.1774C19.8256 46.4218 19.3735 46.9804 19.7213 47.7136Z" fill="#454545"/>
<path fill-rule="evenodd" clip-rule="evenodd" d="M97.6347 50.0163C96.9738 49.7894 95.8781 49.1435 95.2173 48.8118C94.4868 48.4452 93.4782 47.9738 92.8347 47.5723C92.226 48.9863 93.6347 49.3529 94.6955 49.8941C95.9303 50.5052 96.8347 51.2908 97.6347 50.0163Z" fill="#313131"/>
<path fill-rule="evenodd" clip-rule="evenodd" d="M88.5378 45.2504C87.9639 44.7441 87.0074 44.1855 86.3465 43.7316C85.9813 43.4872 85.6161 43.2253 85.2508 42.9809C84.903 42.754 84.4508 42.4921 84.19 42.1953C83.8595 42.4572 83.7378 43.1904 84.3639 43.784L87.0074 45.617C87.5465 45.9138 88.3117 45.7916 88.5378 45.2504Z" fill="#313131"/>
<path fill-rule="evenodd" clip-rule="evenodd" d="M8.92076 45.2859C8.60771 45.1812 8.88597 45.3558 8.6251 45.0764L5.56423 41.1484C5.11206 41.3056 4.86858 42.1261 5.26858 42.7196L7.33815 45.3034C7.80771 45.7573 8.50336 45.7398 8.92076 45.2859Z" fill="#313131"/>
<path fill-rule="evenodd" clip-rule="evenodd" d="M76.625 35.5261C76.8163 35.8229 78.312 36.9227 78.6772 37.202C79.0424 37.4814 79.3381 37.7083 79.7207 38.0051C80.0511 38.267 80.4685 38.651 80.8337 38.8256C81.3207 38.4241 81.0598 37.5861 80.6946 37.2719C80.5555 37.1497 80.5555 37.1671 80.4163 37.0624L79.4598 36.3292C79.0424 36.0149 78.6946 35.6832 78.2424 35.3864C77.6337 34.9675 77.1294 35.0373 76.625 35.5261Z" fill="#454545"/>
<path fill-rule="evenodd" clip-rule="evenodd" d="M35.3203 38.9485C36.0508 38.6342 36.9203 38.0232 37.616 37.6042C37.8595 37.4645 39.7551 36.4171 39.9116 36.1727C38.9029 35.1776 38.5551 35.7188 37.0595 36.5742C36.6247 36.8361 36.1029 37.0979 35.7029 37.3773C35.2508 37.709 34.9377 38.2327 35.3203 38.9485Z" fill="#454545"/>
<path fill-rule="evenodd" clip-rule="evenodd" d="M59.8789 29.592L65.2354 29.8539C65.2354 28.5271 63.9485 28.5446 62.5919 28.562C62.018 28.562 61.2354 28.4049 60.7833 28.5096C60.3137 28.6144 59.8963 29.0159 59.8789 29.592Z" fill="#454545"/>
<path fill-rule="evenodd" clip-rule="evenodd" d="M51.1464 31.0053L56.3464 29.7484C56.2247 28.2819 54.1203 29.085 53.4942 29.2246C52.6421 29.4167 51.7029 29.4865 51.3029 30.0801C51.0942 30.4292 51.1464 30.4642 51.1464 31.0053Z" fill="#454545"/>
<path fill-rule="evenodd" clip-rule="evenodd" d="M42.9905 34.7235L47.7905 32.3841C47.6339 32.1572 47.5644 32.0175 47.3035 31.8604C47.0253 31.7033 46.7296 31.6509 46.4166 31.7557C45.9992 31.8953 45.3035 32.2969 44.9035 32.4889C43.9296 32.9777 43.1818 33.1348 42.9035 33.8506C42.834 34.0077 42.7992 34.0426 42.834 34.3219C42.8687 34.5838 42.9383 34.6362 42.9905 34.7235Z" fill="#454545"/>
<path fill-rule="evenodd" clip-rule="evenodd" d="M11.5664 47.2929L16.7838 48.3927L16.8186 47.9039C16.6794 47.3802 16.3838 47.1008 15.8621 46.9786C15.3055 46.8564 13.0447 46.3502 12.6273 46.3676C12.349 46.3851 12.1055 46.4898 11.9316 46.647C11.7055 46.839 11.6708 47.031 11.5664 47.2929Z" fill="#454545"/>
<path fill-rule="evenodd" clip-rule="evenodd" d="M69.0778 30.7068C69.1647 30.829 73.6343 32.6446 73.9647 32.6621C74.156 32.0336 73.9125 31.5099 73.4778 31.2655C73.2865 31.1607 72.9734 31.0734 72.7299 30.9687C72.4517 30.8465 72.1908 30.7417 71.9473 30.637L70.7821 30.2005C70.3125 30.026 69.6343 29.799 69.1647 30.3402C68.9734 30.5846 69.0604 30.637 69.0778 30.7068Z" fill="#454545"/>
<path fill-rule="evenodd" clip-rule="evenodd" d="M26.9926 43.9759C27.41 43.8886 28.8708 42.9284 29.3056 42.6665C29.9839 42.265 30.9404 41.6191 31.6187 41.3223C31.5491 41.0255 31.3752 40.9033 31.0969 40.7811C30.4187 40.4843 30.0708 40.8509 29.4969 41.1826L27.3926 42.4396C26.923 42.7713 26.7491 43.3823 26.9926 43.9759Z" fill="#454545"/>
<path fill-rule="evenodd" clip-rule="evenodd" d="M5.56641 41.1463L8.62727 45.0568C8.88814 45.3536 8.60988 45.1616 8.92293 45.2663C9.86206 44.2887 8.83597 43.4333 8.07075 42.4731C7.75771 42.0715 7.16641 41.1812 6.74901 40.9892C6.67945 40.9543 6.43597 40.867 6.33162 40.867C6.01858 40.8321 5.72293 40.9368 5.56641 41.1463Z" fill="#454545"/>
<path fill-rule="evenodd" clip-rule="evenodd" d="M84.1914 42.1937C84.4523 42.4905 84.9045 42.7349 85.2523 42.9793C85.6175 43.2237 85.9827 43.4856 86.3479 43.73C86.9914 44.1839 87.9653 44.7426 88.5392 45.2488C88.8871 44.9346 88.8871 44.149 88.3827 43.6951L87.061 42.7873C86.5914 42.508 86.2436 42.2112 85.774 41.9144C85.4088 41.6875 84.8523 41.5827 84.4523 41.8969C84.2436 42.0366 84.3131 41.9842 84.1914 42.1937Z" fill="#454545"/>
<path fill-rule="evenodd" clip-rule="evenodd" d="M123.217 62.8291L119.461 62.864C119.461 63.4227 119.548 63.7544 119.948 63.8766C120.139 63.9289 120.313 63.9289 120.47 63.9464C122.365 63.9813 123.217 64.3479 123.217 62.8291Z" fill="#2E2E2E"/>
<path fill-rule="evenodd" clip-rule="evenodd" d="M113.86 62.8828C113.46 62.813 110.382 62.7955 110.121 62.9177C110.034 63.4939 110.19 63.7732 110.625 63.8954C110.747 63.9303 111.286 63.9652 111.773 63.9652C113.077 63.9652 113.86 64.2445 113.86 62.8828Z" fill="#2F2F2F"/>
<path fill-rule="evenodd" clip-rule="evenodd" d="M4.13934 31.3715C4.73065 31.2318 5.2176 30.8478 5.13065 30.0971C5.04369 29.3464 4.55673 29.1893 3.87847 29.0671C3.56543 29.1369 3.70456 29.0322 3.56543 29.2242L3.86108 29.1893L4.13934 31.3715Z" fill="#FE5454"/>
<path fill-rule="evenodd" clip-rule="evenodd" d="M4.13935 31.3716L3.86109 29.1894L3.56544 29.2243C2.57413 29.4862 2.52196 31.3891 4.13935 31.3716Z" fill="#FE5F5F"/>
<path fill-rule="evenodd" clip-rule="evenodd" d="M104.662 27.0941L104.436 27.1989C104.141 27.548 103.619 27.583 103.149 28.6304C102.819 29.3636 102.906 30.1667 102.906 31.1967C102.906 32.6457 102.819 39.3495 102.958 40.6413C103.062 41.5317 102.975 57.3658 102.975 58.8323C102.975 60.4908 103.01 61.9048 104.732 62.6904C105.793 63.1618 108.593 62.9349 110.123 62.9349C110.384 62.8126 113.445 62.8301 113.862 62.8999C114.297 62.9698 114.819 62.9523 115.236 62.8999L116.419 62.8476C117.375 62.8476 118.541 62.7952 119.462 62.865L123.219 62.8301C124.227 62.865 125.323 62.8301 126.332 62.8476C127.514 62.8476 128.158 62.7777 128.854 62.254C130.314 61.1367 129.932 59.1116 129.932 56.9818C129.932 52.757 129.932 48.5148 129.932 44.29C129.932 40.0478 129.845 36.3118 129.845 31.9299C129.845 30.9523 129.984 29.7303 129.741 28.9097C129.375 27.6702 128.349 26.8672 127.045 26.8672H122.245L119.445 26.8846L112.941 26.8672C112.732 26.9894 110.436 27.0068 110.227 26.8672L106.541 26.9021C105.341 26.9719 105.88 26.8323 104.662 27.0941ZM119.584 42.3522C119.549 39.5764 119.567 36.7832 119.549 34.0074C119.549 33.0123 119.323 30.7777 119.793 30.0794C120.436 29.1018 121.967 29.2764 122.28 30.5333C122.436 31.1443 122.384 46.2453 122.384 47.2578C122.401 50.0336 122.419 52.8268 122.419 55.6026C122.419 56.6675 122.645 58.6228 122.21 59.4084C121.619 60.4559 120.019 60.2638 119.688 59.0767C119.497 58.3435 119.601 44.4297 119.584 42.3522ZM111.584 29.5033C112.193 29.3462 112.697 29.6779 112.975 30.0794C113.288 30.5333 113.236 31.1967 113.254 31.8252L113.358 57.0341C113.358 58.4133 113.514 59.8099 112.227 60.0892C111.549 60.2289 111.062 59.8448 110.801 59.4782C110.471 58.972 110.558 58.3609 110.558 57.6801L110.454 32.5409C110.436 31.0396 110.193 29.8874 111.584 29.5033ZM114.993 31.0396C114.993 28.9272 117.793 28.9097 117.793 31.1269L117.897 58.1165C117.897 58.6752 117.932 59.0767 117.654 59.4957C116.836 60.7352 115.149 60.1242 115.097 58.6053C114.975 54.4329 115.062 50.086 115.045 45.9136L114.993 31.0396ZM124.141 50.8716C124.071 45.2851 124.141 39.6812 124.071 34.0947C124.054 33.1869 123.897 30.7428 124.28 30.1143C124.923 29.0494 126.419 29.3113 126.784 30.4286C127.01 31.1792 126.906 37.4466 126.906 38.7559C126.923 44.3249 126.958 49.8939 126.958 55.4629C126.958 56.3882 127.149 58.7275 126.749 59.4084C126.141 60.4559 124.662 60.2464 124.262 59.1465C124.054 58.518 124.158 52.0936 124.141 50.8716ZM105.914 38.11C105.914 36.8705 105.741 31.2665 105.967 30.4984C106.262 29.4858 107.532 29.1192 108.314 29.9572C108.906 30.6031 108.697 32.2616 108.714 33.2916L108.801 56.0216C108.801 56.9818 109.01 58.7799 108.558 59.5131C108.036 60.386 106.767 60.4035 106.21 59.4608C105.862 58.8497 106.001 56.7199 106.001 55.8645L105.914 38.11Z" fill="#FF5F5F"/>
<path fill-rule="evenodd" clip-rule="evenodd" d="M49.3906 1.17167V26.9567C49.3906 27.3408 50.0863 27.2011 50.8341 27.2011C51.3906 27.2011 51.9471 27.2011 52.5211 27.2011C52.7298 26.3282 53.0776 25.4903 53.3384 24.6348L58.2254 9.28951C58.295 9.09747 58.3471 8.90544 58.4341 8.69594L58.8689 7.36916C58.9037 7.26441 58.9211 7.21204 58.9732 7.07238L59.1124 26.0838C59.1124 27.4804 58.6254 27.2011 61.8254 27.2011V1.17167C61.8254 0.979632 61.7732 0.927259 61.5819 0.927259C57.9993 0.927259 58.608 0.630478 58.1558 1.97472L52.3298 19.4848C52.2776 19.6419 52.2776 19.6943 52.2428 19.7991C52.1732 20.0085 52.1732 19.9736 52.0689 20.1133V0.927259H49.6689C49.4428 0.927259 49.3906 0.979632 49.3906 1.17167Z" fill="#F05F5F"/>
<path fill-rule="evenodd" clip-rule="evenodd" d="M104.436 27.2011L104.662 27.0963L104.68 0.909755H101.393C101.202 1.73027 97.8451 11.332 97.3581 12.7635C96.8364 14.3697 95.6364 18.4198 95.1146 19.7466L94.9755 20.0085C94.9755 19.3277 95.0451 1.18908 94.9407 1.0145C94.8016 0.787551 92.819 0.892298 92.332 0.892298V27.1487H95.3755L101.149 9.16726C101.254 8.85302 101.845 6.82792 102.019 6.58351V27.1487L104.436 27.2011Z" fill="white"/>
<path fill-rule="evenodd" clip-rule="evenodd" d="M34.1914 1.17117V26.9562C34.1914 27.1483 34.2436 27.2006 34.4349 27.2006H36.9914C37.1827 27.2006 37.2349 27.1483 37.2349 26.9562V3.65016H43.5479V27.1832H46.5044V1.17117C46.5044 0.979131 46.4523 0.926758 46.261 0.926758H34.4349C34.261 0.926758 34.1914 0.979131 34.1914 1.17117Z" fill="#F05F5F"/>
<path fill-rule="evenodd" clip-rule="evenodd" d="M3.48047 26.1695L4.55873 26.2219C5.56743 26.3441 5.74134 26.6933 6.43699 26.9726V19.169C6.43699 18.0342 6.52395 18.2437 7.34134 16.8646L7.95003 15.8695L12.7674 25.7156C13.0109 26.2219 13.2196 26.7107 13.4631 27.1821H16.5239L10.9587 15.433C10.6805 14.8744 10.3674 14.3157 10.1239 13.7746C10.0892 13.7047 9.77612 12.9715 9.77612 12.954C9.75873 12.7271 10.4022 11.6796 10.5587 11.3828L11.9153 8.95622C12.7326 7.61198 13.7239 5.58688 14.5761 4.15535C14.837 3.7189 16.2283 1.23991 16.2979 0.90821H13.3413L8.2109 10.2306C7.98482 10.6496 6.62829 13.2334 6.43699 13.373V1.81601C6.45438 0.646344 6.8196 0.925668 3.48047 0.925668V26.1695Z" fill="#F05F5F"/>
<path fill-rule="evenodd" clip-rule="evenodd" d="M78.5049 27.1817H81.4614V16.8991C85.0266 16.8991 88.0353 17.1435 89.6005 13.6694C90.3484 12.0109 90.1049 8.92093 90.1049 6.87837C90.1049 2.9853 87.9136 0.942749 84.0179 0.942749H78.5049V27.1817ZM83.9484 14.1757H81.4614V3.6487C84.1223 3.6487 87.1484 3.03768 87.1484 6.77363V11.1031C87.1484 13.2155 86.0527 14.1757 83.9484 14.1757Z" fill="white"/>
<path fill-rule="evenodd" clip-rule="evenodd" d="M20.1215 24.5293H19.565V27.1829C19.6519 27.2003 19.7911 27.2702 19.8085 27.2702C25.3041 27.2702 25.8606 24.4595 27.0258 19.903C27.1824 19.2745 27.3737 18.6984 27.5302 18.0001L29.0954 12.2565C29.4606 11.017 29.8258 9.74261 30.1563 8.43328C30.4867 7.07158 30.8867 5.91937 31.2172 4.59258L31.9824 1.74697C32.278 0.716967 32.7128 0.92646 29.3215 0.92646C28.9911 0.92646 28.8172 2.09613 28.6606 2.67223C28.0867 4.6275 27.2172 8.29362 26.6954 10.406L25.5476 15.3465C25.4606 15.6782 25.3389 16.0798 25.3389 16.4289C25.078 16.2369 25.2172 16.3416 25.0258 15.5386L23.1128 8.62531C22.7128 7.33344 22.3824 6.00666 21.965 4.71478L21.1302 1.78189C20.8172 0.682051 21.3563 0.92646 18.1389 0.92646C17.7737 0.92646 17.9998 1.2407 18.0867 1.53748C18.1737 1.83426 18.2258 2.04375 18.3128 2.35799L19.8085 7.12395C20.6085 9.67278 21.478 12.7453 22.2954 15.1545L23.8258 19.9728C23.9824 20.4616 23.6172 21.0378 23.4606 21.5091C22.9041 23.0454 22.7128 24.5293 20.1215 24.5293Z" fill="#F05F5F"/>
<path fill-rule="evenodd" clip-rule="evenodd" d="M63.793 1.17019V3.42224C63.793 3.61427 63.8451 3.66664 64.0365 3.66664H68.593V26.9552C68.593 27.1473 68.6451 27.1996 68.8364 27.1996H71.393C71.5843 27.1996 71.6364 27.1473 71.6364 26.9552V3.64919H76.4364V1.17019C76.4364 0.978154 76.3843 0.925781 76.193 0.925781H64.0365C63.8451 0.925781 63.793 0.978154 63.793 1.17019Z" fill="white"/>
<path fill-rule="evenodd" clip-rule="evenodd" d="M119.583 42.3526C119.6 44.4126 119.496 58.3264 119.704 59.0596C120.035 60.2467 121.635 60.4562 122.226 59.3913C122.661 58.6057 122.435 56.6504 122.435 55.5855C122.435 52.8097 122.417 50.0165 122.4 47.2407C122.4 46.2107 122.435 31.1272 122.296 30.5162C121.983 29.2593 120.452 29.0672 119.809 30.0623C119.339 30.7781 119.565 32.9952 119.565 33.9903C119.548 36.7835 119.548 39.5768 119.583 42.3526Z" fill="#FF5151"/>
<path fill-rule="evenodd" clip-rule="evenodd" d="M124.139 50.8719C124.157 52.0765 124.035 58.5184 124.261 59.1468C124.661 60.2467 126.139 60.4562 126.748 59.4087C127.148 58.7279 126.957 56.3885 126.957 55.4633C126.939 49.8943 126.922 44.3252 126.905 38.7562C126.905 37.4469 127.026 31.1796 126.783 30.4289C126.435 29.3116 124.922 29.0497 124.278 30.1147C123.896 30.7606 124.052 33.1872 124.07 34.095C124.157 39.6815 124.087 45.2854 124.139 50.8719Z" fill="#FF5151"/>
<path fill-rule="evenodd" clip-rule="evenodd" d="M114.992 31.0389L115.044 45.8954C115.062 50.0678 114.975 54.4148 115.097 58.5872C115.149 60.106 116.818 60.717 117.653 59.4775C117.931 59.0585 117.914 58.657 117.897 58.0983L117.792 31.1087C117.792 28.8916 114.992 28.9265 114.992 31.0389Z" fill="#FF5151"/>
<path fill-rule="evenodd" clip-rule="evenodd" d="M105.912 38.1104L105.981 55.8649C105.981 56.7203 105.842 58.8502 106.19 59.4612C106.747 60.4214 108.016 60.3864 108.538 59.5136C108.99 58.7803 108.781 56.9822 108.781 56.022L108.694 33.2921C108.694 32.2621 108.886 30.6036 108.294 29.9576C107.529 29.1371 106.242 29.5037 105.947 30.4988C105.755 31.2495 105.912 36.8709 105.912 38.1104Z" fill="#FF5151"/>
<path fill-rule="evenodd" clip-rule="evenodd" d="M111.584 29.5016C110.21 29.8683 110.436 31.0205 110.454 32.5568L110.558 57.6959C110.558 58.3767 110.471 58.9877 110.802 59.494C111.045 59.8781 111.549 60.2622 112.228 60.105C113.515 59.8257 113.358 58.4116 113.358 57.0499L113.254 31.841C113.254 31.2125 113.306 30.5491 112.976 30.0952C112.697 29.6762 112.176 29.3445 111.584 29.5016Z" fill="#FF5151"/>
<path fill-rule="evenodd" clip-rule="evenodd" d="M119.461 26.8864L122.261 26.8689C122.261 23.0457 122.261 19.205 122.261 15.3817C122.261 13.4789 122.261 11.576 122.261 9.67307C122.261 8.62561 122.4 4.61033 122.209 3.89457C122.017 3.80728 119.687 3.80728 119.513 3.89457C119.322 4.85474 119.478 8.36374 119.478 9.60324C119.478 11.5236 119.478 13.4614 119.478 15.3817C119.461 19.2224 119.461 23.0457 119.461 26.8864Z" fill="white"/>
<path fill-rule="evenodd" clip-rule="evenodd" d="M110.245 26.8696C110.454 27.0093 112.767 26.9918 112.958 26.8696L112.993 3.86035L110.193 3.89527C110.193 7.71851 110.193 11.5592 110.193 15.3824C110.193 17.2853 110.193 19.1882 110.193 21.0911C110.193 22.2084 110.037 26.0491 110.245 26.8696Z" fill="white"/>
<path fill-rule="evenodd" clip-rule="evenodd" d="M106.836 2.07757C110.001 2.18231 113.34 2.07757 116.523 2.07757C118.158 2.07757 119.775 2.07757 121.41 2.07757C122.592 2.07757 125.288 2.21723 126.297 2.02519C126.297 1.13485 125.845 0.541287 125.236 0.227048C124.592 -0.104649 123.358 0.0350131 122.453 0.0350131H110.766C109.219 0.0350131 106.836 -0.453803 106.836 2.07757Z" fill="#00A9AF"/>
<path fill-rule="evenodd" clip-rule="evenodd" d="M110.192 3.89446L112.992 3.85955L119.514 3.89446C119.688 3.80717 122.018 3.80717 122.21 3.89446C123.114 3.89446 124.331 3.99921 124.992 3.7548C125.775 3.45802 126.07 2.91683 126.262 2.04395C125.253 2.23598 122.557 2.09632 121.375 2.09632C119.74 2.09632 118.123 2.09632 116.488 2.09632C113.305 2.09632 109.966 2.20106 106.801 2.09632C106.801 2.88192 107.253 3.38819 107.757 3.66751C108.366 3.98175 109.288 3.91192 110.192 3.89446Z" fill="#00B2C0"/>
<path fill-rule="evenodd" clip-rule="evenodd" d="M3.59984 27.6532H3.6868C7.33897 27.5135 7.54766 32.4017 4.31288 32.8382L3.53027 32.8032L3.8781 32.9254C3.99984 32.9429 4.17375 32.9254 4.31288 32.9254L4.92158 38.1104C4.90419 38.2151 4.71288 38.1977 5.00853 38.1977C5.13027 37.9533 5.18245 37.8136 5.30419 37.5343C5.51288 37.0455 5.96506 36.2948 6.26071 35.5266C7.35636 32.7159 9.04332 29.9402 6.97375 27.4612C6.78245 27.2168 6.59114 27.1469 6.43462 26.9724C5.75636 26.693 5.58245 26.3613 4.55636 26.2217L3.53027 26.2042C3.56506 26.6581 3.73897 27.2168 3.59984 27.6532Z" fill="#FE5454"/>
<path fill-rule="evenodd" clip-rule="evenodd" d="M4.92195 38.1102L4.31325 32.9253C4.17412 32.9253 4.0176 32.9427 3.87847 32.9253L3.53064 32.8031C2.34803 32.6459 1.37412 31.5112 1.39151 30.1669C1.42629 28.7878 2.40021 27.9149 3.58282 27.653C3.73934 27.2166 3.54803 26.6754 3.51325 26.204L4.53934 26.2215L3.46108 26.1691C2.92195 26.3437 2.43499 26.2913 1.68716 26.85C-0.173707 28.2291 -0.451968 30.1495 0.556728 32.192C1.37412 33.8331 3.37412 36.3819 4.48716 37.796C4.67847 38.0229 4.66108 38.0055 4.92195 38.1102Z" fill="#FE5F5F"/>
<path fill-rule="evenodd" clip-rule="evenodd" d="M3.5321 32.8034L4.31471 32.8383L4.15819 31.3893C2.5408 31.4067 2.59297 29.5038 3.58427 29.242C3.72341 29.0674 3.56688 29.1547 3.89732 29.0849L3.70601 27.6533H3.61906C2.43645 27.9152 1.44514 28.7881 1.42775 30.1672C1.37558 31.494 2.36688 32.6462 3.5321 32.8034Z" fill="#FC4444"/>
<path fill-rule="evenodd" clip-rule="evenodd" d="M3.88057 29.0673C4.55883 29.1895 5.04579 29.3466 5.13274 30.0973C5.2197 30.848 4.75014 31.232 4.14144 31.3717L4.29796 32.8207C7.53274 32.3843 7.32405 27.4961 3.67188 27.6357L3.88057 29.0673Z" fill="#F93C3C"/>
<path fill-rule="evenodd" clip-rule="evenodd" d="M92.8359 47.5735C93.462 47.9751 94.4881 48.4464 95.2186 48.813C95.8794 49.1447 96.9751 49.7732 97.636 50.0176C98.2273 48.5861 96.5751 48.1671 95.0794 47.4339C94.1055 46.9451 93.6185 46.5261 92.8359 47.5735Z" fill="#B1B0B0"/>
<path fill-rule="evenodd" clip-rule="evenodd" d="M19.7213 47.7127C20.3996 47.5206 21.4604 46.8922 22.1561 46.5605C22.5387 46.3859 24.3648 45.6177 24.5213 45.3384C24.3126 44.8496 23.7213 44.6227 23.1822 44.7798L21.7039 45.4606C21.2343 45.6876 20.7126 45.932 20.2604 46.1764C19.8256 46.4208 19.3735 46.9794 19.7213 47.7127Z" fill="#B1B0B0"/>
<path fill-rule="evenodd" clip-rule="evenodd" d="M76.6289 35.5281C76.8202 35.8248 78.3159 36.9247 78.6811 37.204C79.0463 37.4833 79.342 37.7103 79.7246 38.0071C80.055 38.2689 80.4724 38.653 80.8376 38.8276C81.3246 38.426 81.0637 37.5881 80.6985 37.2738C80.5594 37.1516 80.5594 37.1691 80.4202 37.0643L79.4637 36.3311C79.0463 36.0169 78.6985 35.6852 78.2463 35.3884C77.6376 34.9694 77.1333 35.0392 76.6289 35.5281Z" fill="#B1B0B0"/>
<path fill-rule="evenodd" clip-rule="evenodd" d="M35.3242 38.9494C36.0547 38.6352 36.9242 38.0242 37.6199 37.6052C37.8634 37.4655 39.759 36.4181 39.9155 36.1736C38.9068 35.1786 38.559 35.7197 37.0634 36.5752C36.6286 36.837 36.1068 37.0989 35.7068 37.3782C35.2547 37.7099 34.9416 38.2337 35.3242 38.9494Z" fill="#B1B0B0"/>
<path fill-rule="evenodd" clip-rule="evenodd" d="M59.8799 29.592L65.2364 29.8539C65.2364 28.5271 63.9494 28.5446 62.5929 28.562C62.019 28.562 61.2364 28.4049 60.7842 28.5096C60.3147 28.6144 59.8973 29.0159 59.8799 29.592Z" fill="#B1B0B0"/>
<path fill-rule="evenodd" clip-rule="evenodd" d="M51.1503 31.0063L56.3503 29.7494C56.2286 28.2829 54.1242 29.086 53.4981 29.2256C52.646 29.4177 51.7068 29.4875 51.3068 30.081C51.0982 30.4302 51.1503 30.4651 51.1503 31.0063Z" fill="#B1B0B0"/>
<path fill-rule="evenodd" clip-rule="evenodd" d="M42.9944 34.7264L47.7944 32.3871C47.6379 32.1601 47.5683 32.0205 47.3074 31.8633C47.0292 31.7062 46.7335 31.6539 46.4205 31.7586C46.0031 31.8983 45.3074 32.2998 44.9074 32.4918C43.9335 32.9806 43.1857 33.1378 42.9074 33.8535C42.8379 34.0106 42.8031 34.0456 42.8379 34.3249C42.8726 34.5868 42.9422 34.6391 42.9944 34.7264Z" fill="#B1B0B0"/>
<path fill-rule="evenodd" clip-rule="evenodd" d="M11.5664 47.294L16.7838 48.3939L16.8186 47.9051C16.6794 47.3813 16.3838 47.102 15.8621 46.9798C15.3055 46.8576 13.0447 46.3513 12.6273 46.3688C12.349 46.3862 12.1055 46.491 11.9316 46.6481C11.7055 46.8401 11.6708 47.0322 11.5664 47.294Z" fill="#B1B0B0"/>
<path fill-rule="evenodd" clip-rule="evenodd" d="M69.0778 30.7097C69.1647 30.8319 73.6343 32.6475 73.9647 32.665C74.156 32.0365 73.9125 31.5128 73.4777 31.2684C73.2864 31.1636 72.9734 31.0763 72.7299 30.9716C72.4517 30.8494 72.1908 30.7447 71.9473 30.6399L70.7821 30.2035C70.3125 30.0289 69.6343 29.8019 69.1647 30.3431C68.9734 30.5875 69.0604 30.6399 69.0778 30.7097Z" fill="#B1B0B0"/>
<path fill-rule="evenodd" clip-rule="evenodd" d="M26.9926 43.9773C27.41 43.89 28.8708 42.9299 29.3056 42.668C29.9839 42.2665 30.9404 41.6205 31.6187 41.3238C31.5491 41.027 31.3752 40.9048 31.0969 40.7826C30.4187 40.4858 30.0708 40.8524 29.4969 41.1841L27.3926 42.441C26.923 42.7727 26.7491 43.3838 26.9926 43.9773Z" fill="#B1B0B0"/>
<path fill-rule="evenodd" clip-rule="evenodd" d="M5.56641 41.1502L8.62727 45.0607C8.88814 45.3575 8.60988 45.1655 8.92293 45.2702C9.86206 44.2926 8.83597 43.4372 8.07075 42.477C7.75771 42.0755 7.16641 41.1851 6.74901 40.9931C6.67945 40.9582 6.43597 40.8709 6.33162 40.8709C6.01858 40.836 5.72293 40.9407 5.56641 41.1502Z" fill="#B1B0B0"/>
<path fill-rule="evenodd" clip-rule="evenodd" d="M84.1914 42.1967C84.4523 42.4934 84.9045 42.7379 85.2523 42.9823C85.6175 43.2267 85.9827 43.4885 86.3479 43.7329C86.9914 44.1868 87.9653 44.7455 88.5392 45.2518C88.8871 44.9375 88.8871 44.1519 88.3827 43.698L87.061 42.7902C86.5914 42.5109 86.2436 42.2141 85.774 41.9173C85.4088 41.6904 84.8523 41.5856 84.4523 41.8999C84.2436 42.0395 84.3131 41.9872 84.1914 42.1967Z" fill="#B1B0B0"/>
<path fill-rule="evenodd" clip-rule="evenodd" d="M51.1484 31.005C51.5832 32.4191 52.905 31.8255 54.0528 31.5462C54.5223 31.424 55.3223 31.2843 55.705 31.1098C55.9137 31.0225 56.1571 30.8479 56.2789 30.6384C56.3137 30.5686 56.418 30.2892 56.4354 30.2194C56.4528 30.1496 56.4528 30.0797 56.4528 30.0099L56.3658 29.748L51.1484 31.005Z" fill="white"/>
<path fill-rule="evenodd" clip-rule="evenodd" d="M65.2354 29.8527L59.8789 29.5908C59.8789 31.162 61.3572 30.7954 62.4528 30.9351C62.7485 30.97 64.0528 30.9874 64.3311 30.9351C64.8006 30.8652 65.218 30.4113 65.2354 29.8527Z" fill="white"/>
<path fill-rule="evenodd" clip-rule="evenodd" d="M73.9449 32.6828C73.6145 32.6479 69.1623 30.8323 69.058 30.7275C68.9362 30.7974 68.658 30.8672 68.9014 31.5306C69.1971 32.3511 69.8232 32.3336 70.9014 32.8225C72.0493 33.3113 73.4058 34.027 73.9449 32.6828Z" fill="white"/>
<path fill-rule="evenodd" clip-rule="evenodd" d="M16.799 47.904L16.7643 48.3928L11.5469 47.293C11.5469 48.8642 12.399 48.6721 14.1556 49.0562C14.6251 49.1609 15.5469 49.4577 16.0512 49.3006C16.5034 49.1435 17.0077 48.515 16.799 47.904Z" fill="white"/>
<path fill-rule="evenodd" clip-rule="evenodd" d="M35.3203 38.948C35.4942 39.4368 36.1899 39.7162 36.8334 39.4718C37.0247 39.4019 37.3551 39.175 37.5464 39.0528C39.129 38.0228 40.6942 37.7434 39.929 36.1722C39.7551 36.4166 37.8768 37.4641 37.6334 37.6038C36.9203 38.0053 36.0507 38.6163 35.3203 38.948Z" fill="white"/>
<path fill-rule="evenodd" clip-rule="evenodd" d="M80.8323 38.8435C80.4671 38.6689 80.0497 38.2848 79.7193 38.0229C79.3366 37.7262 79.0584 37.4992 78.6758 37.2199C78.3106 36.9406 76.7975 35.8407 76.6236 35.5439C75.6323 36.7136 77.2323 37.569 77.9627 38.1801C78.1888 38.3721 78.3627 38.4943 78.5888 38.6689C78.7975 38.826 79.0584 39.0704 79.2671 39.1926C79.5106 39.3323 79.7888 39.4545 80.1193 39.3672C80.4149 39.2799 80.7453 39.1053 80.8323 38.8435Z" fill="white"/>
<path fill-rule="evenodd" clip-rule="evenodd" d="M26.9883 43.9758C27.9796 45.2502 28.7448 44.3599 29.9274 43.6965L31.3361 42.8585C31.7361 42.5094 31.9622 41.9857 31.7535 41.5143C31.6665 41.3223 31.7013 41.3921 31.6318 41.3223C30.9535 41.619 29.997 42.265 29.3187 42.6665C28.8665 42.9458 27.4057 43.8885 26.9883 43.9758Z" fill="white"/>
<path fill-rule="evenodd" clip-rule="evenodd" d="M42.9922 34.725C43.1139 35.2487 43.7574 35.5629 44.3487 35.3884L47.2531 33.9568C47.74 33.6775 48.0705 33.0839 47.7922 32.3682L42.9922 34.725Z" fill="white"/>
<path fill-rule="evenodd" clip-rule="evenodd" d="M19.7227 47.7121C20.2618 49.1437 21.9835 47.974 22.6096 47.6598C23.3574 47.2757 24.4009 47.0313 24.6444 46.3155C24.6966 46.1584 24.714 46.0013 24.714 45.8092C24.714 45.6696 24.714 45.6347 24.6618 45.5299C24.5748 45.303 24.6096 45.4252 24.5227 45.3379C24.3661 45.6172 22.54 46.3854 22.1574 46.5599C21.4618 46.8916 20.4009 47.5201 19.7227 47.7121Z" fill="white"/>
<path fill-rule="evenodd" clip-rule="evenodd" d="M97.6347 50.0164C96.9738 49.7894 95.8781 49.1435 95.2173 48.8118C94.4868 48.4452 93.4782 47.9738 92.8347 47.5723C92.226 48.9863 93.6347 49.353 94.6955 49.8941C95.9303 50.5052 96.8347 51.2908 97.6347 50.0164Z" fill="white"/>
<path fill-rule="evenodd" clip-rule="evenodd" d="M88.5378 45.2514C87.9639 44.7451 87.0074 44.1865 86.3465 43.7326C85.9813 43.4882 85.6161 43.2263 85.2508 42.9819C84.903 42.7549 84.4508 42.4931 84.19 42.1963C83.8595 42.4582 83.7378 43.1914 84.3639 43.785L87.0074 45.618C87.5465 45.9148 88.3117 45.7926 88.5378 45.2514Z" fill="white"/>
<path fill-rule="evenodd" clip-rule="evenodd" d="M8.92076 45.2869C8.60771 45.1821 8.88597 45.3567 8.6251 45.0774L5.56423 41.1494C5.11206 41.3065 4.86858 42.127 5.26858 42.7206L7.33815 45.3043C7.80771 45.7582 8.50336 45.7408 8.92076 45.2869Z" fill="white"/>
<path fill-rule="evenodd" clip-rule="evenodd" d="M123.217 62.8301L119.461 62.865C119.461 63.4236 119.548 63.7553 119.948 63.8775C120.139 63.9299 120.313 63.9299 120.47 63.9474C122.365 63.9823 123.217 64.3489 123.217 62.8301Z" fill="white"/>
<path fill-rule="evenodd" clip-rule="evenodd" d="M113.86 62.8838C113.46 62.814 110.382 62.7965 110.121 62.9187C110.034 63.4948 110.19 63.7741 110.625 63.8963C110.747 63.9313 111.286 63.9662 111.773 63.9662C113.077 63.9662 113.86 64.2455 113.86 62.8838Z" fill="white"/>
<path fill-rule="evenodd" clip-rule="evenodd" d="M4.13934 31.3715C4.73065 31.2318 5.2176 30.8478 5.13065 30.0971C5.04369 29.3464 4.55673 29.1893 3.87847 29.0671C3.56543 29.1369 3.70456 29.0322 3.56543 29.2242L3.86108 29.1893L4.13934 31.3715Z" fill="#FE5454"/>
<path fill-rule="evenodd" clip-rule="evenodd" d="M4.13935 31.3716L3.86109 29.1894L3.56544 29.2243C2.57413 29.4862 2.52196 31.3891 4.13935 31.3716Z" fill="#FE5F5F"/>
</svg>
