<svg width="30" height="30" viewBox="0 0 30 30" fill="none" xmlns="http://www.w3.org/2000/svg">
<path d="M25.6066 4.39348C22.7735 1.56023 19.0066 0 15 0C10.9934 0 7.22654 1.56023 4.39342 4.39348C1.56023 7.22654 0 10.9934 0 15C0 19.0066 1.56023 22.7735 4.39342 25.6066C7.22654 28.4398 10.9934 30 15 30C19.0066 30 22.7735 28.4398 25.6066 25.6065C28.4398 22.7735 30 19.0066 30 15C30 10.9934 28.4398 7.22654 25.6066 4.39348ZM15 29.0527C7.25133 29.0527 0.947344 22.7487 0.947344 15C0.947344 7.25133 7.25133 0.947344 15 0.947344C22.7487 0.947344 29.0527 7.25133 29.0527 15C29.0527 22.7487 22.7487 29.0527 15 29.0527Z" fill="#2C2C2C"/>
<path d="M26.2864 17.058C26.2818 16.7981 26.0693 16.5896 25.8094 16.5896C25.5426 16.5896 25.3281 16.809 25.3332 17.0759C25.3614 18.574 25.3057 19.9926 25.1709 21.1922C23.036 22.8477 20.0457 23.8284 17.9696 24.0895L16.9157 21.2674C18.3761 21.0387 20.6 20.3986 22.4042 18.6216C22.5591 18.469 22.5902 18.2305 22.4797 18.0433C22.3692 17.856 22.1453 17.7683 21.9368 17.8301C21.7237 17.8934 21.44 18.0043 21.1396 18.1216C20.8005 18.2541 20.416 18.4043 20.1997 18.4557C18.4752 18.8658 16.7273 19.0736 15.0038 19.0736C15.0027 19.0736 14.9999 19.0736 14.9999 19.0736H14.9961C13.2728 19.0736 11.5247 18.8657 9.80021 18.4557C9.58388 18.4043 9.19945 18.2541 8.86031 18.1216C8.57133 18.0087 8.29775 17.9018 8.08769 17.8375C7.89228 17.7776 7.67355 17.8349 7.55057 17.9981C7.40543 18.1907 7.4281 18.4564 7.5958 18.6217C9.40635 20.4049 11.6266 21.0467 13.084 21.2756L12.0308 24.0894C9.95484 23.8284 6.96416 22.8476 4.8293 21.1921C4.38299 17.2221 4.80223 10.8543 6.26894 7.13758C7.6132 6.52704 9.58804 6.35342 11.4428 6.27954L8.48496 7.6511C8.26037 7.75516 8.15385 8.01473 8.24045 8.2467C8.32717 8.47862 8.57777 8.60465 8.8156 8.53592C10.8684 7.94295 12.9491 7.64219 15 7.64219C17.0509 7.64219 19.1317 7.94295 21.1844 8.53592C21.422 8.60436 21.6728 8.47856 21.7595 8.2467C21.8463 8.01479 21.7397 7.75528 21.515 7.65116L18.5572 6.2796C20.412 6.35348 22.3868 6.5271 23.731 7.13764C24.5333 9.17049 25.022 11.9963 25.2273 14.7892C25.2456 15.0378 25.4532 15.2297 25.7024 15.2297H25.7042C25.9816 15.2297 26.2003 14.9939 26.18 14.7173C25.9632 11.7588 25.4291 8.76737 24.5393 6.60895C24.4957 6.50331 24.4154 6.41688 24.3131 6.36579C22.4299 5.42436 19.4828 5.34866 17.1146 5.28772C16.8248 5.28028 16.5448 5.27313 16.2782 5.26452C16.0534 5.25796 15.8541 5.40948 15.8021 5.62856C15.7501 5.84758 15.8594 6.07299 16.0637 6.16768L17.5055 6.83629C16.6683 6.74213 15.8319 6.69473 14.9999 6.69473C14.1679 6.69473 13.3314 6.74208 12.4942 6.83629L13.936 6.16768C14.1403 6.07299 14.2496 5.84758 14.1976 5.62856C14.1456 5.40948 13.9469 5.25819 13.7215 5.26452C13.4549 5.27313 13.1749 5.28022 12.8851 5.28772C10.5169 5.3486 7.56973 5.4243 5.68658 6.36579C5.58434 6.41688 5.504 6.50331 5.46041 6.60895C3.83496 10.5524 3.39633 17.2767 3.91137 21.4994C3.92625 21.6218 3.9883 21.7335 4.08428 21.8109C6.51738 23.7723 9.96533 24.8619 12.303 25.0718C12.3173 25.0731 12.3315 25.0736 12.3456 25.0736C12.5415 25.0736 12.7193 24.9522 12.789 24.766L14.1804 21.0486C14.2486 20.8664 14.1997 20.6559 14.0441 20.5216C13.9679 20.4559 13.8706 20.4201 13.7705 20.4099C13.0403 20.3353 11.935 20.1391 10.7705 19.6288C12.1782 19.8893 13.5946 20.0211 14.9962 20.0211H14.9999C15 20.0211 15.0001 20.0211 15.0001 20.0211H15.0039C16.3991 20.0211 17.8092 19.8906 19.2105 19.6323C18.0549 20.1331 16.9574 20.3271 16.2302 20.4015C16.1301 20.4118 16.0327 20.4474 15.9564 20.5129C15.8005 20.6469 15.7513 20.8575 15.8194 21.0399L17.2109 24.7657C17.2805 24.9522 17.4583 25.0737 17.6544 25.0737C17.6685 25.0737 17.6827 25.0731 17.6969 25.0718C20.0347 24.862 23.4826 23.7723 25.9157 21.8109C26.0116 21.7336 26.0736 21.6219 26.0886 21.4995C26.2466 20.2037 26.3147 18.6722 26.2864 17.058Z" fill="#2C2C2C"/>
<path d="M10.5789 10.7368C8.92477 10.7368 7.57893 12.0827 7.57893 13.7368C7.57893 15.391 8.92477 16.7368 10.5789 16.7368C12.2331 16.7368 13.5789 15.391 13.5789 13.7368C13.5789 12.0827 12.2331 10.7368 10.5789 10.7368ZM10.5789 15.7895C9.44713 15.7895 8.52627 14.8687 8.52627 13.7368C8.52627 12.605 9.44713 11.6842 10.5789 11.6842C11.7107 11.6842 12.6316 12.605 12.6316 13.7368C12.6316 14.8687 11.7107 15.7895 10.5789 15.7895Z" fill="#2C2C2C"/>
<path d="M19.4211 10.7368C17.7669 10.7368 16.4211 12.0827 16.4211 13.7368C16.4211 15.391 17.7669 16.7368 19.4211 16.7368C21.0752 16.7368 22.4211 15.391 22.4211 13.7368C22.4211 12.0827 21.0752 10.7368 19.4211 10.7368ZM19.4211 15.7895C18.2893 15.7895 17.3684 14.8687 17.3684 13.7368C17.3684 12.605 18.2893 11.6842 19.4211 11.6842C20.5529 11.6842 21.4737 12.605 21.4737 13.7368C21.4737 14.8687 20.5528 15.7895 19.4211 15.7895Z" fill="#2C2C2C"/>
</svg>
