<svg width="15" height="15" viewBox="0 0 15 15" fill="none" xmlns="http://www.w3.org/2000/svg">
<g clip-path="url(#clip0)">
<path d="M12.587 3.67055H4.86523C4.74389 3.67055 4.64551 3.57217 4.64551 3.45082C4.64551 3.32947 4.74389 3.23109 4.86523 3.23109H12.587C12.7083 3.23109 12.8067 3.32947 12.8067 3.45082C12.8067 3.57217 12.7083 3.67055 12.587 3.67055Z" fill="#9E9E9E"/>
<path d="M12.587 6.00146H2.41309C2.29174 6.00146 2.19336 5.90309 2.19336 5.78174C2.19336 5.66039 2.29174 5.56201 2.41309 5.56201H12.587C12.7084 5.56201 12.8068 5.66039 12.8068 5.78174C12.8068 5.90309 12.7084 6.00146 12.587 6.00146Z" fill="#9E9E9E"/>
<path d="M12.587 8.33238H2.41309C2.29174 8.33238 2.19336 8.234 2.19336 8.11266C2.19336 7.99131 2.29174 7.89293 2.41309 7.89293H12.587C12.7084 7.89293 12.8068 7.99131 12.8068 8.11266C12.8068 8.234 12.7084 8.33238 12.587 8.33238Z" fill="#9E9E9E"/>
<path d="M14.7803 7.81837C14.6589 7.81837 14.5605 7.71999 14.5605 7.59864V2.09209C14.5605 1.27268 13.8939 0.606033 13.0745 0.606033H1.92551C1.1061 0.606033 0.439453 1.27268 0.439453 2.09209V2.9368C0.439453 3.05815 0.341074 3.15653 0.219727 3.15653C0.0983789 3.15653 0 3.05815 0 2.9368V2.09209C0 1.03037 0.863789 0.16658 1.92551 0.16658H13.0745C14.1362 0.16658 15 1.03037 15 2.09209V7.59864C15 7.71999 14.9016 7.81837 14.7803 7.81837Z" fill="#9E9E9E"/>
<path d="M2.23685 14.7954C2.06244 14.7211 1.94977 14.5505 1.94977 14.3609V11.9907C1.94977 11.9773 1.93887 11.9664 1.92551 11.9664C0.86376 11.9664 0 11.1027 0 10.0409V3.96483C0 3.84348 0.0983789 3.7451 0.219727 3.7451C0.341074 3.7451 0.439453 3.84348 0.439453 3.96483V10.0409C0.439453 10.8603 1.10607 11.527 1.92551 11.527C2.18121 11.527 2.38922 11.735 2.38922 11.9907V14.3609C2.38922 14.3904 2.42367 14.4051 2.44494 14.3847L5.1982 11.7441C5.34419 11.6041 5.53597 11.527 5.73826 11.527H13.0745C13.8939 11.527 14.5606 10.8604 14.5606 10.0409V8.62669C14.5606 8.50535 14.659 8.40697 14.7803 8.40697C14.9017 8.40697 15 8.50535 15 8.62669V10.0409C15 11.1027 14.1363 11.9664 13.0745 11.9664H5.73823C5.64987 11.9664 5.56611 12.0001 5.50236 12.0613L2.74913 14.7019C2.61188 14.8335 2.41063 14.8696 2.23685 14.7954Z" fill="#9E9E9E"/>
</g>
<defs>
<clipPath id="clip0">
<rect width="15" height="15" fill="white"/>
</clipPath>
</defs>
</svg>
