<svg width="30" height="30" viewBox="0 0 30 30" fill="none" xmlns="http://www.w3.org/2000/svg">
<g clip-path="url(#clip0)">
<path d="M25.1739 7.34109H9.73042C9.48773 7.34109 9.29097 7.14434 9.29097 6.90164C9.29097 6.65895 9.48773 6.46219 9.73042 6.46219H25.1739C25.4166 6.46219 25.6134 6.65895 25.6134 6.90164C25.6134 7.14434 25.4166 7.34109 25.1739 7.34109Z" fill="#2C2C2C"/>
<path d="M25.1739 12.0029H4.82607C4.58337 12.0029 4.38662 11.8062 4.38662 11.5635C4.38662 11.3208 4.58337 11.124 4.82607 11.124H25.174C25.4167 11.124 25.6134 11.3208 25.6134 11.5635C25.6134 11.8062 25.4166 12.0029 25.1739 12.0029Z" fill="#2C2C2C"/>
<path d="M25.1739 16.6648H4.82607C4.58337 16.6648 4.38662 16.468 4.38662 16.2253C4.38662 15.9826 4.58337 15.7859 4.82607 15.7859H25.174C25.4167 15.7859 25.6134 15.9826 25.6134 16.2253C25.6134 16.468 25.4166 16.6648 25.1739 16.6648Z" fill="#2C2C2C"/>
<path d="M29.5605 15.6367C29.3179 15.6367 29.1211 15.44 29.1211 15.1973V4.18418C29.1211 2.54537 27.7879 1.21207 26.149 1.21207H3.85102C2.21221 1.21207 0.878906 2.54537 0.878906 4.18418V5.87361C0.878906 6.1163 0.682148 6.31306 0.439453 6.31306C0.196758 6.31306 0 6.1163 0 5.87361V4.18418C0 2.06074 1.72758 0.33316 3.85102 0.33316H26.149C28.2725 0.33316 30 2.06074 30 4.18418V15.1973C30 15.44 29.8032 15.6367 29.5605 15.6367Z" fill="#2C2C2C"/>
<path d="M4.47369 29.5909C4.12488 29.4421 3.89953 29.101 3.89953 28.7218V23.9814C3.89953 23.9546 3.87773 23.9328 3.85102 23.9328C1.72752 23.9328 0 22.2053 0 20.0818V7.92966C0 7.68696 0.196758 7.4902 0.439453 7.4902C0.682148 7.4902 0.878906 7.68696 0.878906 7.92966V20.0818C0.878906 21.7206 2.21215 23.0539 3.85102 23.0539C4.36242 23.0539 4.77844 23.47 4.77844 23.9814V28.7218C4.77844 28.7808 4.84734 28.8102 4.88988 28.7694L10.3964 23.4882C10.6884 23.2082 11.0719 23.054 11.4765 23.054H26.149C27.7879 23.054 29.1212 21.7207 29.1212 20.0819V17.2534C29.1212 17.0107 29.3179 16.8139 29.5606 16.8139C29.8033 16.8139 30.0001 17.0107 30.0001 17.2534V20.0819C30.0001 22.2053 28.2725 23.9329 26.149 23.9329H11.4765C11.2997 23.9329 11.1322 24.0002 11.0047 24.1226L5.49826 29.4037C5.22375 29.667 4.82127 29.7391 4.47369 29.5909Z" fill="#2C2C2C"/>
</g>
<defs>
<clipPath id="clip0">
<rect width="30" height="30" fill="white"/>
</clipPath>
</defs>
</svg>
