<svg width="30" height="30" viewBox="0 0 30 30" fill="none" xmlns="http://www.w3.org/2000/svg">
<g clip-path="url(#clip0)">
<path d="M29.681 12.1912L15.4605 1.77931C15.1863 1.57857 14.8137 1.57857 14.5396 1.77931L0.319046 12.1912C-0.0282974 12.4456 -0.103766 12.9333 0.150589 13.2807C0.404945 13.628 0.892738 13.7034 1.24002 13.4491L15 3.37429L28.76 13.4491C28.8987 13.5507 29.06 13.5997 29.2198 13.5997C29.4598 13.5997 29.6967 13.4892 29.8494 13.2806C30.1038 12.9333 30.0283 12.4456 29.681 12.1912Z" fill="#2C2C2C"/>
<path d="M25.9128 13.6256C25.4824 13.6256 25.1334 13.9745 25.1334 14.405V26.8122H18.8977V20.0396C18.8977 17.8904 17.1492 16.1419 15.0001 16.1419C12.851 16.1419 11.1024 17.8905 11.1024 20.0396V26.8123H4.86668V14.4051C4.86668 13.9746 4.51763 13.6256 4.0872 13.6256C3.65677 13.6256 3.30773 13.9746 3.30773 14.4051V27.5918C3.30773 28.0223 3.65677 28.3713 4.0872 28.3713H11.8819C12.2918 28.3713 12.6272 28.0546 12.6583 27.6525C12.6602 27.6343 12.6613 27.6144 12.6613 27.5918V20.0396C12.6613 18.7501 13.7105 17.7009 15.0001 17.7009C16.2896 17.7009 17.3388 18.7501 17.3388 20.0396V27.5918C17.3388 27.6142 17.3399 27.6338 17.3418 27.6518C17.3725 28.0542 17.7081 28.3713 18.1182 28.3713H25.9129C26.3434 28.3713 26.6924 28.0223 26.6924 27.5918V14.4051C26.6923 13.9745 26.3433 13.6256 25.9128 13.6256Z" fill="#2C2C2C"/>
</g>
<defs>
<clipPath id="clip0">
<rect width="30" height="30" fill="white"/>
</clipPath>
</defs>
</svg>
