<svg width="20" height="20" viewBox="0 0 20 20" fill="none" xmlns="http://www.w3.org/2000/svg">
<g clip-path="url(#clip0)">
<path d="M17.3655 7.46646H8.0686C7.90681 7.46646 7.77563 7.59763 7.77563 7.75943C7.77563 7.92123 7.90681 8.0524 8.0686 8.0524H17.3655C17.5273 8.0524 17.6584 7.92123 17.6584 7.75943C17.6584 7.59763 17.5273 7.46646 17.3655 7.46646Z" fill="black"/>
<path d="M17.3655 9.70602H8.0686C7.90681 9.70602 7.77563 9.8372 7.77563 9.99899C7.77563 10.1608 7.90681 10.292 8.0686 10.292H17.3655C17.5273 10.292 17.6584 10.1608 17.6584 9.99899C17.6584 9.8372 17.5273 9.70602 17.3655 9.70602Z" fill="black"/>
<path d="M17.3655 11.9456H8.0686C7.90681 11.9456 7.77563 12.0768 7.77563 12.2386C7.77563 12.4004 7.90681 12.5315 8.0686 12.5315H17.3655C17.5273 12.5315 17.6584 12.4004 17.6584 12.2386C17.6584 12.0768 17.5273 11.9456 17.3655 11.9456Z" fill="black"/>
<path d="M18.296 4.90427H7.13794C6.19837 4.90427 5.43396 5.66864 5.43396 6.60825V13.6245C5.43396 14.5641 6.19833 15.3285 7.13794 15.3285H14.9587C15.0423 15.3285 15.12 15.3661 15.1719 15.4318L17.6975 18.6292C17.797 18.7552 17.9422 18.8239 18.0943 18.8239C18.1508 18.8239 18.2083 18.8144 18.2647 18.7948C18.4728 18.7225 18.6073 18.5335 18.6073 18.3132V15.2994C19.3973 15.1518 20 14.4534 20 13.6245V6.60821C20 5.66864 19.2356 4.90427 18.296 4.90427ZM19.414 13.6245C19.414 14.233 18.919 14.7344 18.3105 14.7421C18.1502 14.7442 18.0213 14.8747 18.0213 15.0351V18.0939L15.6317 15.0686C15.4681 14.8614 15.2227 14.7425 14.9587 14.7425H7.13794C6.52146 14.7425 6.0199 14.241 6.0199 13.6245V6.60821C6.0199 5.99173 6.52142 5.49016 7.13794 5.49016H18.296C18.9125 5.49016 19.414 5.99173 19.414 6.60821V13.6245Z" fill="black"/>
<path d="M4.31617 9.74848C4.11578 9.77692 3.93633 9.88008 3.81086 10.0389L1.79832 12.5868V10.0332C1.79832 9.8729 1.66941 9.74235 1.5091 9.74028C1.00008 9.7338 0.585938 9.31438 0.585938 8.80532V2.69747C0.585938 2.18172 1.00555 1.76212 1.52129 1.76212H11.2347C11.7504 1.76212 12.17 2.18172 12.17 2.69747V3.82762C12.17 3.98942 12.3012 4.12059 12.463 4.12059C12.6248 4.12059 12.756 3.98942 12.756 3.82762V2.69747C12.756 1.85864 12.0735 1.17618 11.2347 1.17618H1.52129C0.682461 1.17618 0 1.85864 0 2.69747V8.80532C0 9.5345 0.522305 10.1506 1.21242 10.2945V12.887C1.21242 13.0951 1.33945 13.2737 1.53609 13.342C1.58941 13.3605 1.64371 13.3695 1.69715 13.3695C1.84078 13.3695 1.97809 13.3046 2.07211 13.1856L4.2707 10.4021C4.30242 10.3619 4.34785 10.3358 4.39855 10.3286C4.55875 10.3059 4.6702 10.1575 4.64742 9.99735C4.62469 9.83716 4.4766 9.72563 4.31617 9.74848Z" fill="black"/>
</g>
<defs>
<clipPath id="clip0">
<rect width="20" height="20" fill="white"/>
</clipPath>
</defs>
</svg>
