<svg width="20" height="20" viewBox="0 0 20 20" fill="none" xmlns="http://www.w3.org/2000/svg">
<g clip-path="url(#clip0)">
<path d="M17.5256 1.58252H6.66467C6.50284 1.58252 6.3717 1.71369 6.3717 1.87549C6.3717 2.03729 6.50284 2.16846 6.66467 2.16846H17.5256C18.5668 2.16846 19.414 3.02693 19.414 4.08209V12.9528C19.414 14.0079 18.5668 14.8664 17.5256 14.8664H13.4355C13.2737 14.8664 13.1426 14.9976 13.1426 15.1594C13.1426 15.3212 13.2737 15.4523 13.4355 15.4523H17.5256C18.8899 15.4523 19.9999 14.331 19.9999 12.9528V4.08209C19.9999 2.70385 18.8899 1.58252 17.5256 1.58252Z" fill="black"/>
<path d="M12.0702 15.139L8.22129 17.772C8.04562 17.8922 7.88805 17.8011 7.84395 17.7703C7.79812 17.7383 7.65281 17.6171 7.70785 17.4L8.25754 15.2313C8.27973 15.1437 8.26023 15.0508 8.20473 14.9794C8.14922 14.9081 8.06391 14.8664 7.97352 14.8664H2.47434C1.43309 14.8664 0.585938 14.0079 0.585938 12.9528V4.08209C0.585938 3.02689 1.43309 2.16846 2.47434 2.16846H5.29578C5.45762 2.16846 5.58875 2.03729 5.58875 1.87549C5.58875 1.71369 5.45762 1.58252 5.29578 1.58252H2.47434C1.10996 1.58252 0 2.70385 0 4.08209V12.9528C0 14.331 1.10996 15.4523 2.47434 15.4523H7.59703L7.13984 17.256C7.0434 17.6366 7.18813 18.027 7.50852 18.2507C7.6677 18.3619 7.8507 18.4175 8.03375 18.4175C8.21398 18.4175 8.3943 18.3636 8.55211 18.2556L12.401 15.6226C12.5345 15.5312 12.5687 15.3489 12.4774 15.2153C12.386 15.0818 12.2037 15.0476 12.0702 15.139Z" fill="black"/>
</g>
<defs>
<clipPath id="clip0">
<rect width="20" height="20" fill="white"/>
</clipPath>
</defs>
</svg>
