<svg width="30" height="30" viewBox="0 0 30 30" fill="none" xmlns="http://www.w3.org/2000/svg">
<g clip-path="url(#clip0)">
<path d="M28.6671 19.6689C28.0145 18.8868 27.2773 18.1886 26.5643 17.5133C26.3137 17.2759 26.0545 17.0305 25.8049 16.7868C25.8048 16.7867 25.8048 16.7866 25.8047 16.7866C25.469 16.4591 25.3046 16.2267 25.2874 16.055C25.2706 15.8862 25.3859 15.6359 25.6511 15.2658C26.0478 14.7091 26.4705 14.1516 26.8795 13.6124C27.243 13.1331 27.6188 12.6374 27.9791 12.139L28.0599 12.0271C28.7628 11.0543 29.4895 10.0484 29.8789 8.82261C29.9901 8.47116 30.1056 7.95108 29.827 7.49451C29.5483 7.03783 29.0317 6.90248 28.6676 6.84049C28.4898 6.81002 28.321 6.8075 28.164 6.8075L23.605 6.80346C22.8168 6.79033 22.27 7.16393 21.972 7.91416C21.7335 8.51335 21.4519 9.20774 21.1256 9.86646C20.5013 11.1381 19.708 12.6028 18.5581 13.8231L18.507 13.8775C18.4287 13.9611 18.3008 14.0977 18.2351 14.1291C18.1106 14.0508 17.9668 13.6031 17.9734 13.3685C17.9736 13.3627 17.9736 13.357 17.9736 13.3512L17.9696 8.08344C17.9696 8.05666 17.9677 8.02989 17.9641 8.00334C17.8619 7.25182 17.6626 6.49842 16.4731 6.26369C16.435 6.25613 16.3962 6.25238 16.3574 6.25238H11.6151C10.7229 6.25238 10.251 6.66096 9.87261 7.10393C9.7631 7.23307 9.47212 7.57596 9.62036 7.99514C9.77036 8.4193 10.2173 8.50397 10.364 8.53174C10.8808 8.62983 11.1481 8.92192 11.2308 9.48032C11.3944 10.5653 11.4144 11.726 11.294 13.1313C11.2604 13.5085 11.1979 13.7953 11.0972 14.0338C11.0693 14.0998 11.0448 14.1407 11.0277 14.1648C11.0004 14.1538 10.9579 14.1327 10.8991 14.0924C10.5359 13.8439 10.2622 13.4576 9.99753 13.0841C8.94038 11.5916 8.05116 9.9431 7.27871 8.04377C6.96061 7.26547 6.3626 6.83076 5.59595 6.81951C4.13532 6.7952 2.78444 6.79578 1.46748 6.82139C0.84633 6.83217 0.410742 7.0277 0.172616 7.40264C-0.0658023 7.77828 -0.0570718 8.25723 0.198632 8.82641C2.02653 12.8911 3.68626 15.848 5.58002 18.414C6.91344 20.2206 8.25571 21.4746 9.80417 22.3606C11.4311 23.2913 13.2659 23.7475 15.3945 23.7474C15.6366 23.7474 15.8828 23.7415 16.1324 23.7296C17.4456 23.6698 17.98 23.1474 18.0383 21.8684C18.071 21.1924 18.1462 20.6448 18.4072 20.169C18.4802 20.0358 18.5626 19.9465 18.6275 19.9302C18.6966 19.9129 18.819 19.9552 18.9551 20.0436C19.2039 20.2052 19.4182 20.4243 19.5944 20.6167C19.773 20.8122 19.9535 21.0142 20.1281 21.2095C20.4998 21.6253 20.8841 22.0554 21.2868 22.4655C22.1975 23.3939 23.2474 23.8196 24.4085 23.7304L28.5807 23.7324C28.5808 23.7324 28.5809 23.7324 28.581 23.7324C28.5942 23.7324 28.6074 23.732 28.6207 23.7311C29.1019 23.699 29.518 23.4326 29.7623 22.9999C30.0565 22.4789 30.0521 21.819 29.7502 21.2339C29.4352 20.6257 29.0265 20.1021 28.6671 19.6689ZM28.7216 22.4123C28.6641 22.5142 28.5931 22.5328 28.5565 22.5372L24.3852 22.5353C24.3851 22.5353 24.385 22.5353 24.3848 22.5353C24.3683 22.5353 24.3519 22.5359 24.3355 22.5373C23.5138 22.6058 22.8153 22.3169 22.1398 21.6284C21.7566 21.2381 21.3817 20.8187 21.0192 20.4131C20.8426 20.2155 20.6599 20.0111 20.4764 19.8102C20.2488 19.5617 19.9675 19.276 19.6061 19.0413C19.0649 18.69 18.6164 18.7006 18.3356 18.7714C18.0577 18.8414 17.6626 19.0412 17.3594 19.5946C16.9666 20.3105 16.8799 21.0829 16.8446 21.8126C16.8243 22.2589 16.7488 22.3767 16.7173 22.4067C16.676 22.4459 16.5379 22.515 16.0773 22.536C13.8639 22.6401 12.0063 22.2437 10.3977 21.3233C8.99839 20.5227 7.77307 19.3727 6.54172 17.7045C4.7004 15.2096 3.08028 12.3204 1.28877 8.33663C1.22385 8.19231 1.20381 8.10225 1.19801 8.05403C1.24371 8.03903 1.33301 8.01928 1.48957 8.01641C2.79317 7.99116 4.12993 7.99045 5.57738 8.01459C5.77554 8.01752 6.00119 8.077 6.17205 8.49506C6.97912 10.4796 7.91141 12.2066 9.02235 13.7751C9.31732 14.1914 9.68447 14.7096 10.2241 15.0788C10.7183 15.4172 11.1194 15.4011 11.3689 15.3279C11.6185 15.2548 11.9649 15.0514 12.1982 14.499C12.3487 14.1429 12.4397 13.742 12.4848 13.2354C12.6135 11.7323 12.5907 10.4826 12.413 9.30384C12.2878 8.45932 11.8517 7.84924 11.1648 7.5377C11.2868 7.47418 11.4243 7.4477 11.6152 7.4477H16.2955C16.5588 7.50676 16.611 7.57614 16.6288 7.59987C16.7047 7.70071 16.748 7.93924 16.7745 8.12563L16.7785 13.3448C16.7679 13.8452 17.0111 14.9548 17.839 15.2591C17.8458 15.2616 17.8527 15.264 17.8596 15.2662C18.6133 15.5125 19.1119 14.9804 19.3795 14.6945L19.4272 14.6438C20.6868 13.307 21.5349 11.745 22.1976 10.3953C22.5429 9.69829 22.8354 8.97735 23.0827 8.3559C23.2065 8.04424 23.3191 7.99291 23.5878 7.9986C23.5915 7.99872 23.5951 7.99872 23.5989 7.99872L28.1636 8.00276C28.2698 8.00276 28.3806 8.00399 28.4666 8.0187C28.6841 8.05573 28.7737 8.10084 28.8032 8.11954C28.8062 8.15417 28.8055 8.25378 28.7398 8.46167C28.4087 9.50399 27.7688 10.3896 27.0914 11.3272L27.0105 11.4393C26.6585 11.9263 26.2868 12.4164 25.9275 12.8903C25.5132 13.4365 25.085 14.0011 24.679 14.571C23.811 15.7821 23.8873 16.5858 24.9705 17.6423C25.2265 17.8923 25.4889 18.1408 25.7427 18.3812C26.4623 19.0628 27.1421 19.7066 27.7487 20.4335C28.0663 20.8163 28.4263 21.2761 28.6887 21.7828C28.8255 22.0481 28.792 22.2877 28.7216 22.4123Z" fill="#2C2C2C"/>
<path d="M4.35833 9.93961C4.27056 9.76594 4.18355 9.5918 4.09736 9.41731C3.95111 9.12146 3.59298 8.99994 3.29691 9.14619C3.00101 9.29238 2.8796 9.65075 3.02579 9.94665C3.11362 10.1244 3.20228 10.3018 3.29163 10.4787C3.39681 10.6869 3.60722 10.8069 3.82542 10.8069C3.91601 10.8069 4.00806 10.7862 4.09449 10.7425C4.38915 10.5936 4.50722 10.2342 4.35833 9.93961Z" fill="#2C2C2C"/>
<path d="M8.10665 16.1392C7.12672 14.8115 6.20996 13.3695 5.3041 11.7306C5.14443 11.4418 4.7808 11.3371 4.49199 11.4967C4.20318 11.6564 4.09841 12.02 4.25808 12.3088C5.18949 13.9938 6.13385 15.4789 7.14506 16.849C7.26225 17.0078 7.44313 17.0918 7.62635 17.0918C7.74963 17.0918 7.87397 17.0538 7.98073 16.9749C8.24622 16.7789 8.30258 16.4048 8.10665 16.1392Z" fill="#2C2C2C"/>
</g>
<defs>
<clipPath id="clip0">
<rect width="30" height="30" fill="white"/>
</clipPath>
</defs>
</svg>
