<svg width="32" height="27" viewBox="0 0 32 27" fill="none" xmlns="http://www.w3.org/2000/svg">
<path d="M31.5058 0.739192C31.115 0.262467 30.5295 0 29.8572 0C29.4917 0 29.1045 0.0766949 28.7065 0.22838L1.61919 10.5403C0.18169 11.0874 -0.0119126 11.9084 0.000538504 12.3491C0.0129896 12.7898 0.252979 13.5986 1.71928 14.0639C1.72807 14.0666 1.73686 14.0692 1.74565 14.0717L7.36429 15.6752L10.4029 24.3405C10.8172 25.5219 11.7471 26.2557 12.8301 26.2557C13.513 26.2557 14.1846 25.9703 14.7725 25.4308L18.2478 22.2396L23.2886 26.2873C23.2891 26.2878 23.2898 26.2881 23.2903 26.2886L23.3381 26.327C23.3425 26.3304 23.3472 26.3341 23.3516 26.3375C23.9119 26.7709 24.5234 26.9998 25.1208 27H25.1211C26.2883 27 27.2178 26.1383 27.4885 24.8051L31.9267 2.94971C32.105 2.07247 31.9555 1.2875 31.5058 0.739192ZM9.24392 15.3706L20.084 9.84786L13.3342 17.0005C13.2237 17.1176 13.1453 17.261 13.1067 17.417L11.8052 22.6747L9.24392 15.3706ZM13.5022 24.0552C13.4573 24.0963 13.4121 24.1331 13.367 24.1669L14.5745 19.2896L16.771 21.0536L13.5022 24.0552ZM30.0891 2.57841L25.6509 24.434C25.6081 24.6432 25.4717 25.1299 25.1208 25.1299C24.9475 25.1299 24.7297 25.0356 24.5068 24.8645L18.7949 20.2779C18.7942 20.2771 18.7932 20.2764 18.7922 20.2759L15.3936 17.5466L25.1545 7.20299C25.467 6.87186 25.4954 6.3647 25.2217 6.00095C24.9477 5.63719 24.4514 5.52276 24.0454 5.72971L7.99124 13.909L2.29619 12.2841L29.3752 1.97532C29.604 1.88815 29.7637 1.86989 29.8572 1.86989C29.9145 1.86989 30.0166 1.87671 30.0544 1.92321C30.1042 1.98384 30.1677 2.19055 30.0891 2.57841Z" fill="#22A9BF"/>
</svg>
