<svg width="178" height="87" viewBox="0 0 178 87" fill="none" xmlns="http://www.w3.org/2000/svg">
<g clip-path="url(#clip0)">
<path fill-rule="evenodd" clip-rule="evenodd" d="M143.305 36.8315L142.996 36.9739C142.591 37.4485 141.876 37.4959 141.233 38.9198C140.781 39.9166 140.9 41.0082 140.9 42.4084C140.9 44.3781 140.781 53.491 140.971 55.2472C141.114 56.4575 140.995 77.982 140.995 79.9755C140.995 82.23 141.043 84.1522 143.4 85.2202C144.853 85.8609 148.687 85.5524 150.782 85.5524C151.139 85.3863 155.331 85.41 155.902 85.5049C156.497 85.5999 157.212 85.5761 157.783 85.5049L159.403 85.4337C160.712 85.4337 162.308 85.3625 163.57 85.4575L168.713 85.41C170.094 85.4575 171.595 85.41 172.976 85.4337C174.595 85.4337 175.476 85.3388 176.429 84.6269C178.429 83.108 177.905 80.3552 177.905 77.4599C177.905 71.7169 177.905 65.9501 177.905 60.2071C177.905 54.4403 177.786 49.3617 177.786 43.4051C177.786 42.0761 177.976 40.4149 177.643 39.2995C177.143 37.6146 175.738 36.5229 173.952 36.5229H167.38L163.546 36.5467L154.64 36.5229C154.354 36.6891 151.211 36.7128 150.925 36.5229L145.877 36.5704C144.234 36.6653 144.972 36.4755 143.305 36.8315ZM163.736 57.5729C163.689 53.7995 163.713 50.0025 163.689 46.2292C163.689 44.8765 163.379 41.8388 164.022 40.8896C164.903 39.5606 166.999 39.7979 167.427 41.5066C167.642 42.3372 167.57 62.865 167.57 64.2414C167.594 68.0148 167.618 71.8118 167.618 75.5851C167.618 77.0328 167.927 79.6907 167.332 80.7586C166.523 82.1825 164.332 81.9215 163.879 80.3077C163.617 79.311 163.76 60.3969 163.736 57.5729ZM152.783 40.1064C153.616 39.8928 154.307 40.3437 154.688 40.8896C155.116 41.5066 155.045 42.4084 155.069 43.2627L155.211 77.5311C155.211 79.4059 155.426 81.3044 153.664 81.6842C152.735 81.874 152.068 81.3519 151.711 80.8535C151.259 80.1653 151.378 79.3347 151.378 78.4092L151.235 44.2357C151.211 42.1948 150.878 40.6285 152.783 40.1064ZM157.45 42.1948C157.45 39.3233 161.284 39.2995 161.284 42.3135L161.427 79.0025C161.427 79.7619 161.474 80.3077 161.093 80.8773C159.974 82.5622 157.664 81.7316 157.593 79.667C157.426 73.9951 157.545 68.086 157.521 62.4141L157.45 42.1948ZM169.975 69.1539C169.88 61.5598 169.975 53.9419 169.88 46.3478C169.856 45.1138 169.642 41.7914 170.166 40.937C171.047 39.4894 173.095 39.8454 173.595 41.3642C173.904 42.3847 173.762 50.9043 173.762 52.6842C173.785 60.2545 173.833 67.8249 173.833 75.3953C173.833 76.6531 174.095 79.8331 173.547 80.7586C172.714 82.1825 170.69 81.8977 170.142 80.4026C169.856 79.5483 169.999 70.8151 169.975 69.1539ZM145.02 51.8061C145.02 50.1211 144.781 42.5033 145.091 41.4591C145.496 40.0827 147.234 39.5843 148.306 40.7234C149.115 41.6015 148.83 43.856 148.853 45.2562L148.973 76.1547C148.973 77.4599 149.258 79.9043 148.639 80.901C147.925 82.0876 146.186 82.1113 145.424 80.8298C144.948 79.9992 145.139 77.104 145.139 75.9411L145.02 51.8061Z" fill="#FF5F5F"/>
<path fill-rule="evenodd" clip-rule="evenodd" d="M67.6279 1.59006V36.6416C67.6279 37.1637 68.5804 36.9739 69.6044 36.9739C70.3664 36.9739 71.1284 36.9739 71.9142 36.9739C72.2 35.7873 72.6762 34.6482 73.0334 33.4853L79.7248 12.6253C79.82 12.3642 79.8915 12.1032 80.0105 11.8184L80.6059 10.0148C80.6535 9.87239 80.6773 9.80119 80.7487 9.61134L80.9392 35.455C80.9392 37.3536 80.2725 36.9739 84.654 36.9739V1.59006C84.654 1.32902 84.5826 1.25782 84.3206 1.25782C79.4152 1.25782 80.2487 0.854386 79.6295 2.68172L71.6523 26.4845C71.5808 26.6981 71.5808 26.7693 71.5332 26.9117C71.438 27.1964 71.438 27.149 71.2951 27.3388V1.25782H68.0089C67.6994 1.25782 67.6279 1.32902 67.6279 1.59006Z" fill="#F05F5F"/>
<path fill-rule="evenodd" clip-rule="evenodd" d="M142.996 36.9738L143.305 36.8314L143.329 1.23403H138.828C138.566 2.34941 133.97 15.4018 133.304 17.3478C132.589 19.5311 130.946 25.0368 130.232 26.8404L130.041 27.1964C130.041 26.2709 130.137 1.61373 129.994 1.37642C129.803 1.06791 127.089 1.2103 126.422 1.2103V36.9026H130.589L138.495 12.4591C138.638 12.0319 139.447 9.27904 139.686 8.94679V36.9026L142.996 36.9738Z" fill="#313131"/>
<path fill-rule="evenodd" clip-rule="evenodd" d="M46.8154 1.59005V36.6416C46.8154 36.9027 46.8869 36.9739 47.1488 36.9739H50.6493C50.9112 36.9739 50.9827 36.9027 50.9827 36.6416V4.95994H59.6267V36.9501H63.6748V1.59005C63.6748 1.32901 63.6034 1.25781 63.3414 1.25781H47.1488C46.9107 1.25781 46.8154 1.32901 46.8154 1.59005Z" fill="#F05F5F"/>
<path fill-rule="evenodd" clip-rule="evenodd" d="M4.7627 35.5736L6.23908 35.6448C7.62022 35.8109 7.85835 36.2855 8.81086 36.6652V26.0572C8.81086 24.5146 8.92992 24.7994 10.0491 22.9246L10.8826 21.5719L17.4787 34.9565C17.8121 35.6448 18.0978 36.3092 18.4312 36.95H22.6222L15.0022 20.9786C14.6212 20.2192 14.1925 19.4598 13.8591 18.7241C13.8115 18.6292 13.3829 17.6325 13.3829 17.6087C13.3591 17.3002 14.2402 15.8763 14.4545 15.4729L16.3119 12.1742C17.4311 10.3469 18.7884 7.59402 19.9552 5.64803C20.3124 5.05474 22.2174 1.68486 22.3127 1.23396H18.2645L11.2398 13.9066C10.9302 14.4762 9.0728 17.9885 8.81086 18.1783V2.468C8.83467 0.877983 9.33474 1.25769 4.7627 1.25769V35.5736Z" fill="#F05F5F"/>
<path fill-rule="evenodd" clip-rule="evenodd" d="M107.49 36.9501H111.538V22.9722C116.42 22.9722 120.54 23.3044 122.683 18.5818C123.707 16.3273 123.373 12.1268 123.373 9.35023C123.373 4.05809 120.373 1.28149 115.039 1.28149H107.49V36.9501ZM114.944 19.27H111.538V4.95989C115.182 4.95989 119.325 4.12928 119.325 9.20784V15.0933C119.325 17.9648 117.825 19.27 114.944 19.27Z" fill="#313131"/>
<path fill-rule="evenodd" clip-rule="evenodd" d="M27.5509 33.3429H26.7889V36.9501C26.908 36.9738 27.0985 37.0687 27.1223 37.0687C34.6471 37.0687 35.4091 33.248 37.0046 27.054C37.2189 26.1997 37.4808 25.4165 37.6952 24.4673L39.8383 16.6596C40.3384 14.9746 40.8384 13.2422 41.2909 11.4624C41.7433 9.61129 42.291 8.04501 42.7435 6.24141L43.7912 2.37316C44.196 0.972994 44.7913 1.25777 40.1479 1.25777C39.6954 1.25777 39.4573 2.84779 39.243 3.63093C38.4572 6.28887 37.2665 11.2725 36.5521 14.144L34.9805 20.8601C34.8614 21.311 34.6948 21.8568 34.6948 22.3314C34.3376 22.0704 34.5281 22.2128 34.2661 21.1211L31.6467 11.7234C31.099 9.96727 30.6466 8.16366 30.0751 6.40753L28.9321 2.42062C28.5035 0.925531 29.2416 1.25777 24.8363 1.25777C24.3362 1.25777 24.6458 1.68494 24.7649 2.08838C24.8839 2.49182 24.9554 2.77659 25.0744 3.20376L27.1223 9.68249C28.2177 13.1473 29.4083 17.3241 30.5275 20.599L32.6231 27.1489C32.8374 27.8134 32.3373 28.5966 32.123 29.2373C31.361 31.3257 31.099 33.3429 27.5509 33.3429Z" fill="#F05F5F"/>
<path fill-rule="evenodd" clip-rule="evenodd" d="M87.3447 1.59005V4.65143C87.3447 4.91248 87.4162 4.98367 87.6781 4.98367H93.917V36.6416C93.917 36.9027 93.9885 36.9739 94.2504 36.9739H97.7509C98.0128 36.9739 98.0843 36.9027 98.0843 36.6416V4.95994H104.657V1.59005C104.657 1.32901 104.585 1.25781 104.323 1.25781H87.6781C87.4162 1.25781 87.3447 1.32901 87.3447 1.59005Z" fill="#313131"/>
<path fill-rule="evenodd" clip-rule="evenodd" d="M163.736 57.5728C163.76 60.3731 163.617 79.2872 163.903 80.2839C164.355 81.8976 166.546 82.1824 167.356 80.7348C167.951 79.6669 167.641 77.0089 167.641 75.5613C167.641 71.788 167.617 67.9909 167.594 64.2176C167.594 62.8175 167.641 42.3134 167.451 41.4828C167.022 39.7741 164.927 39.513 164.046 40.8657C163.403 41.8387 163.712 44.8526 163.712 46.2053C163.688 50.0024 163.688 53.7995 163.736 57.5728Z" fill="#FF5151"/>
<path fill-rule="evenodd" clip-rule="evenodd" d="M169.975 69.1539C169.999 70.7914 169.832 79.5484 170.142 80.4027C170.689 81.8978 172.714 82.1826 173.547 80.7587C174.095 79.8332 173.833 76.6531 173.833 75.3954C173.809 67.825 173.785 60.2546 173.761 52.6842C173.761 50.9043 173.928 42.3847 173.595 41.3642C173.118 39.8454 171.047 39.4895 170.166 40.9371C169.642 41.8151 169.856 45.1138 169.88 46.3479C169.999 53.942 169.904 61.5598 169.975 69.1539Z" fill="#FF5151"/>
<path fill-rule="evenodd" clip-rule="evenodd" d="M157.449 42.1948L157.521 62.3903C157.544 68.0622 157.425 73.9714 157.592 79.6432C157.664 81.7079 159.95 82.5385 161.093 80.8535C161.474 80.284 161.45 79.7381 161.426 78.9787L161.283 42.2897C161.283 39.2758 157.449 39.3232 157.449 42.1948Z" fill="#FF5151"/>
<path fill-rule="evenodd" clip-rule="evenodd" d="M145.019 51.8059L145.114 75.9409C145.114 77.1038 144.924 79.999 145.4 80.8296C146.162 82.1349 147.9 82.0874 148.615 80.9008C149.234 79.9041 148.948 77.4598 148.948 76.1545L148.829 45.256C148.829 43.8558 149.091 41.6013 148.281 40.7233C147.234 39.6079 145.472 40.1062 145.067 41.4589C144.805 42.4794 145.019 50.121 145.019 51.8059Z" fill="#FF5151"/>
<path fill-rule="evenodd" clip-rule="evenodd" d="M152.782 40.1063C150.901 40.6046 151.21 42.1709 151.234 44.2593L151.377 78.4328C151.377 79.3583 151.258 80.1889 151.71 80.8771C152.044 81.3992 152.734 81.9213 153.663 81.7077C155.425 81.328 155.211 79.4058 155.211 77.5547L155.068 43.2863C155.068 42.432 155.14 41.5302 154.687 40.9131C154.306 40.3436 153.592 39.8927 152.782 40.1063Z" fill="#FF5151"/>
<path fill-rule="evenodd" clip-rule="evenodd" d="M163.569 36.5466L167.403 36.5229C167.403 31.3257 167.403 26.1047 167.403 20.9075C167.403 18.3208 167.403 15.734 167.403 13.1473C167.403 11.7234 167.594 6.26511 167.332 5.29212C167.07 5.17346 163.879 5.17346 163.641 5.29212C163.379 6.59736 163.593 11.3674 163.593 13.0523C163.593 15.6628 163.593 18.297 163.593 20.9075C163.569 26.1285 163.569 31.3257 163.569 36.5466Z" fill="#313131"/>
<path fill-rule="evenodd" clip-rule="evenodd" d="M150.948 36.5229C151.234 36.7127 154.401 36.689 154.663 36.5229L154.711 5.24463L150.877 5.29209C150.877 10.4893 150.877 15.7103 150.877 20.9075C150.877 23.4942 150.877 26.081 150.877 28.6677C150.877 30.1865 150.663 35.4075 150.948 36.5229Z" fill="#313131"/>
<path fill-rule="evenodd" clip-rule="evenodd" d="M146.281 2.82402C150.615 2.96641 155.187 2.82402 159.545 2.82402C161.783 2.82402 163.998 2.82402 166.236 2.82402C167.856 2.82402 171.547 3.01388 172.928 2.75283C172.928 1.54252 172.309 0.735644 171.475 0.308476C170.594 -0.142425 168.903 0.0474281 167.665 0.0474281H151.663C149.544 0.0474281 146.281 -0.617056 146.281 2.82402Z" fill="#00A9AF"/>
<path fill-rule="evenodd" clip-rule="evenodd" d="M150.877 5.29216L154.711 5.2447L163.64 5.29216C163.879 5.1735 167.07 5.1735 167.331 5.29216C168.57 5.29216 170.237 5.43455 171.141 5.10231C172.213 4.69887 172.618 3.96319 172.88 2.77661C171.499 3.03766 167.808 2.84781 166.188 2.84781C163.95 2.84781 161.735 2.84781 159.497 2.84781C155.139 2.84781 150.567 2.9902 146.233 2.84781C146.233 3.91573 146.853 4.60394 147.543 4.98365C148.377 5.41082 149.639 5.31589 150.877 5.29216Z" fill="#00B2C0"/>
<path fill-rule="evenodd" clip-rule="evenodd" d="M4.92924 37.5908H5.0483C10.049 37.401 10.3347 44.0458 5.90556 44.6391L4.83398 44.5916L5.31024 44.7578C5.47693 44.7815 5.71505 44.7578 5.90556 44.7578L6.739 51.806C6.71519 51.9484 6.45325 51.9247 6.85806 51.9247C7.02475 51.5925 7.09619 51.4026 7.26288 51.0229C7.54863 50.3584 8.16776 49.338 8.57258 48.2938C10.0728 44.473 12.3826 40.6997 9.5489 37.3298C9.28696 36.9975 9.02502 36.9026 8.81071 36.6653C7.88201 36.2856 7.64388 35.8347 6.23893 35.6448L4.83398 35.6211C4.88161 36.2381 5.11974 36.9975 4.92924 37.5908Z" fill="#FE5454"/>
<path fill-rule="evenodd" clip-rule="evenodd" d="M6.73868 51.8061L5.90523 44.7579C5.71473 44.7579 5.50042 44.7816 5.30991 44.7579L4.83366 44.5917C3.2144 44.3781 1.88088 42.8356 1.9047 41.0083C1.95232 39.1335 3.28583 37.9469 4.9051 37.5909C5.11941 36.9976 4.85747 36.2619 4.80985 35.6212L6.2148 35.6449L4.73841 35.5737C4.00022 35.811 3.33346 35.7399 2.30951 36.4993C-0.238446 38.3741 -0.61945 40.9845 0.761687 43.7611C1.88088 45.9919 4.61935 49.4567 6.14336 51.379C6.4053 51.6875 6.38149 51.6637 6.73868 51.8061Z" fill="#FE5F5F"/>
<path fill-rule="evenodd" clip-rule="evenodd" d="M4.83423 44.5917L5.9058 44.6391L5.69149 42.6694C3.47691 42.6931 3.54835 40.1064 4.90567 39.7504C5.09617 39.5131 4.88186 39.6317 5.3343 39.5368L5.07236 37.5908H4.95329C3.33403 37.9468 1.97671 39.1334 1.95289 41.0082C1.88146 42.8118 3.23878 44.3781 4.83423 44.5917Z" fill="#FC4444"/>
<path fill-rule="evenodd" clip-rule="evenodd" d="M5.31017 39.513C6.23886 39.6791 6.90562 39.8927 7.02468 40.9131C7.14374 41.9336 6.5008 42.4557 5.66736 42.6455L5.88167 44.6153C10.3108 44.022 10.0251 37.3771 5.02441 37.567L5.31017 39.513Z" fill="#F93C3C"/>
<path fill-rule="evenodd" clip-rule="evenodd" d="M70.0332 42.1472C70.6285 44.0694 72.4383 43.2625 74.0099 42.8828C74.6529 42.7167 75.7482 42.5269 76.2721 42.2895C76.5579 42.1709 76.8913 41.9336 77.0579 41.6488C77.1056 41.5539 77.2484 41.1742 77.2723 41.0792C77.2961 40.9843 77.2961 40.8894 77.2961 40.7945L77.177 40.4385L70.0332 42.1472Z" fill="#313131"/>
<path fill-rule="evenodd" clip-rule="evenodd" d="M89.3216 40.5811L81.9873 40.2251C81.9873 42.3609 84.0114 41.8626 85.5116 42.0524C85.9164 42.0999 87.7024 42.1236 88.0834 42.0524C88.7263 41.9575 89.2978 41.3405 89.3216 40.5811Z" fill="#323232"/>
<path fill-rule="evenodd" clip-rule="evenodd" d="M127.112 64.6686C127.97 65.2144 129.375 65.8551 130.375 66.3535C131.28 66.8044 132.78 67.6587 133.685 67.991C134.494 66.045 132.232 65.4754 130.184 64.4787C128.851 63.8142 128.184 63.2447 127.112 64.6686Z" fill="#454545"/>
<path fill-rule="evenodd" clip-rule="evenodd" d="M101.252 44.4255C100.8 44.3781 94.7035 41.91 94.5606 41.7676C94.394 41.8625 94.013 41.9574 94.3463 42.8592C94.7511 43.9746 95.6084 43.9509 97.0848 44.6154C98.6564 45.2799 100.514 46.2528 101.252 44.4255Z" fill="#313131"/>
<path fill-rule="evenodd" clip-rule="evenodd" d="M23.003 65.1194L22.9553 65.7839L15.8115 64.2888C15.8115 66.4247 16.9783 66.1636 19.3834 66.6857C20.0264 66.8281 21.2884 67.2315 21.979 67.018C22.5981 66.8044 23.2887 65.95 23.003 65.1194Z" fill="#323232"/>
<path fill-rule="evenodd" clip-rule="evenodd" d="M48.3633 52.9452C48.6014 53.6097 49.5539 53.9894 50.435 53.6571C50.6969 53.5622 51.1494 53.2537 51.4113 53.0876C53.5783 51.6874 55.7214 51.3077 54.6737 49.1719C54.4355 49.5041 51.8637 50.928 51.5304 51.1179C50.554 51.6637 49.3634 52.4943 48.3633 52.9452Z" fill="#323232"/>
<path fill-rule="evenodd" clip-rule="evenodd" d="M110.681 52.8029C110.181 52.5656 109.61 52.0435 109.157 51.6875C108.633 51.2841 108.252 50.9756 107.729 50.5959C107.228 50.2161 105.157 48.7211 104.919 48.3176C103.561 49.9076 105.752 51.0705 106.752 51.9011C107.062 52.1621 107.3 52.3283 107.609 52.5656C107.895 52.7792 108.252 53.1114 108.538 53.2775C108.872 53.4674 109.253 53.6335 109.705 53.5148C110.11 53.3962 110.562 53.1589 110.681 52.8029Z" fill="#313131"/>
<path fill-rule="evenodd" clip-rule="evenodd" d="M36.957 59.7798C38.3144 61.5122 39.3621 60.3019 40.9814 59.4001L42.9102 58.261C43.4579 57.7864 43.7675 57.0744 43.4817 56.4337C43.3626 56.1726 43.4103 56.2675 43.315 56.1726C42.3863 56.576 41.0766 57.4541 40.1479 57.9999C39.5288 58.3797 37.5285 59.6612 36.957 59.7798Z" fill="#323232"/>
<path fill-rule="evenodd" clip-rule="evenodd" d="M58.8652 47.202C59.0319 47.914 59.913 48.3412 60.7226 48.1038L64.6994 46.1579C65.3661 45.7782 65.8186 44.9713 65.4376 43.9983L58.8652 47.202Z" fill="#313131"/>
<path fill-rule="evenodd" clip-rule="evenodd" d="M27.0039 64.8583C27.7421 66.8043 30.0996 65.2143 30.9568 64.7872C31.9808 64.2651 33.4095 63.9328 33.7429 62.9598C33.8143 62.7462 33.8382 62.5327 33.8382 62.2716C33.8382 62.0818 33.8382 62.0343 33.7667 61.8919C33.6477 61.5834 33.6953 61.7495 33.5762 61.6309C33.3619 62.0106 30.8616 63.0548 30.3377 63.2921C29.3852 63.743 27.9326 64.5973 27.0039 64.8583Z" fill="#323232"/>
<path fill-rule="evenodd" clip-rule="evenodd" d="M27.0033 64.8584C27.932 64.5973 29.3846 63.743 30.3371 63.2921C30.8609 63.0548 33.3613 62.0106 33.5756 61.6309C33.2898 60.9664 32.4802 60.6579 31.742 60.8715L29.7179 61.797C29.075 62.1055 28.3606 62.4378 27.7415 62.77C27.1462 63.1022 26.527 63.8617 27.0033 64.8584Z" fill="#454545"/>
<path fill-rule="evenodd" clip-rule="evenodd" d="M133.685 67.9909C132.78 67.6824 131.28 66.8043 130.375 66.3534C129.375 65.855 127.994 65.2143 127.113 64.6685C126.279 66.5907 128.208 67.0891 129.661 67.8248C131.351 68.6554 132.59 69.7233 133.685 67.9909Z" fill="#313131"/>
<path fill-rule="evenodd" clip-rule="evenodd" d="M121.231 61.5124C120.445 60.8242 119.135 60.0648 118.23 59.4478C117.73 59.1155 117.23 58.7595 116.73 58.4273C116.254 58.1188 115.635 57.7628 115.278 57.3594C114.825 57.7153 114.659 58.7121 115.516 59.5189L119.135 62.0108C119.874 62.4142 120.921 62.2481 121.231 61.5124Z" fill="#313131"/>
<path fill-rule="evenodd" clip-rule="evenodd" d="M12.216 61.5597C11.7873 61.4173 12.1683 61.6546 11.8112 61.2749L7.62012 55.9353C7.00099 56.1489 6.66761 57.2643 7.2153 58.0711L10.049 61.5834C10.692 62.2005 11.6445 62.1767 12.216 61.5597Z" fill="#313131"/>
<path fill-rule="evenodd" clip-rule="evenodd" d="M104.919 48.2938C105.181 48.6973 107.229 50.1923 107.729 50.5721C108.229 50.9518 108.634 51.2603 109.158 51.6637C109.61 52.0197 110.182 52.5418 110.682 52.7791C111.348 52.2333 110.991 51.0941 110.491 50.667C110.301 50.5009 110.301 50.5246 110.11 50.3822L108.8 49.3855C108.229 48.9583 107.753 48.5074 107.134 48.104C106.3 47.5344 105.61 47.6293 104.919 48.2938Z" fill="#454545"/>
<path fill-rule="evenodd" clip-rule="evenodd" d="M48.3633 52.9452C49.3634 52.5181 50.5541 51.6875 51.5066 51.1179C51.8399 50.9281 54.4355 49.5042 54.6498 49.1719C53.2687 47.8192 52.7925 48.5549 50.7446 49.7177C50.1492 50.0737 49.4349 50.4297 48.8872 50.8094C48.268 51.2603 47.8394 51.9722 48.3633 52.9452Z" fill="#454545"/>
<path fill-rule="evenodd" clip-rule="evenodd" d="M81.9873 40.2251L89.3216 40.5811C89.3216 38.7775 87.5595 38.8012 85.7021 38.825C84.9163 38.825 83.8447 38.6114 83.2256 38.7538C82.5826 38.8962 82.0111 39.442 81.9873 40.2251Z" fill="#454545"/>
<path fill-rule="evenodd" clip-rule="evenodd" d="M70.0333 42.1473L77.1533 40.4387C76.9866 38.4452 74.1053 39.5369 73.248 39.7267C72.0812 39.9878 70.7953 40.0827 70.2476 40.8896C69.9619 41.3642 70.0333 41.4117 70.0333 42.1473Z" fill="#454545"/>
<path fill-rule="evenodd" clip-rule="evenodd" d="M58.8648 47.2022L65.4371 44.0222C65.2228 43.7137 65.1276 43.5238 64.7704 43.3102C64.3894 43.0966 63.9846 43.0254 63.5559 43.1678C62.9844 43.3577 62.0319 43.9035 61.4842 44.1646C60.1507 44.829 59.1268 45.0426 58.7458 46.0156C58.6505 46.2292 58.6029 46.2767 58.6505 46.6564C58.6981 47.0124 58.7934 47.0835 58.8648 47.2022Z" fill="#454545"/>
<path fill-rule="evenodd" clip-rule="evenodd" d="M15.8359 64.2889L22.9797 65.784L23.0274 65.1195C22.8369 64.4075 22.4321 64.0278 21.7177 63.8617C20.9557 63.6956 17.86 63.0074 17.2885 63.0311C16.9075 63.0548 16.5741 63.1972 16.336 63.4108C16.0264 63.6719 15.9788 63.9329 15.8359 64.2889Z" fill="#454545"/>
<path fill-rule="evenodd" clip-rule="evenodd" d="M94.5838 41.7439C94.7028 41.91 100.823 44.3781 101.275 44.4018C101.537 43.5475 101.204 42.8356 100.608 42.5033C100.346 42.3609 99.9178 42.2423 99.5844 42.0999C99.2034 41.9338 98.8462 41.7914 98.5129 41.649L96.9174 41.0557C96.2745 40.8184 95.3458 40.5099 94.7028 41.2455C94.4409 41.5778 94.5599 41.649 94.5838 41.7439Z" fill="#454545"/>
<path fill-rule="evenodd" clip-rule="evenodd" d="M36.9569 59.7799C37.5284 59.6613 39.5287 58.356 40.124 58.0001C41.0527 57.4542 42.3624 56.5762 43.2911 56.1727C43.1959 55.7693 42.9577 55.6032 42.5767 55.4371C41.648 55.0336 41.1718 55.532 40.386 55.9829L37.5046 57.6916C36.8617 58.1425 36.6235 58.9731 36.9569 59.7799Z" fill="#454545"/>
<path fill-rule="evenodd" clip-rule="evenodd" d="M7.62012 55.9353L11.8112 61.2512C12.1683 61.6547 11.7873 61.3936 12.216 61.536C13.5019 60.207 12.0969 59.0442 11.0491 57.7389C10.6205 57.1931 9.81089 55.9828 9.23938 55.7217C9.14413 55.6743 8.81075 55.5556 8.66788 55.5556C8.23925 55.5082 7.83443 55.6505 7.62012 55.9353Z" fill="#454545"/>
<path fill-rule="evenodd" clip-rule="evenodd" d="M115.277 57.3594C115.635 57.7628 116.254 58.0951 116.73 58.4273C117.23 58.7595 117.73 59.1155 118.23 59.4478C119.111 60.0648 120.445 60.8242 121.231 61.5124C121.707 61.0852 121.707 60.0173 121.016 59.4003L119.206 58.1662C118.564 57.7865 118.087 57.3831 117.444 56.9797C116.944 56.6712 116.182 56.5288 115.635 56.9559C115.349 57.1458 115.444 57.0746 115.277 57.3594Z" fill="#454545"/>
<path fill-rule="evenodd" clip-rule="evenodd" d="M168.713 85.4099L163.569 85.4574C163.569 86.2168 163.688 86.6677 164.236 86.8338C164.498 86.905 164.736 86.905 164.95 86.9287C167.546 86.9762 168.713 87.4746 168.713 85.4099Z" fill="#2E2E2E"/>
<path fill-rule="evenodd" clip-rule="evenodd" d="M155.902 85.4811C155.355 85.3862 151.14 85.3624 150.783 85.5286C150.664 86.3117 150.878 86.6914 151.473 86.8576C151.64 86.905 152.378 86.9525 153.045 86.9525C154.831 86.9525 155.902 87.3322 155.902 85.4811Z" fill="#2F2F2F"/>
<path fill-rule="evenodd" clip-rule="evenodd" d="M5.66766 42.6458C6.47729 42.4559 7.14404 41.9338 7.02498 40.9133C6.90592 39.8929 6.23916 39.6793 5.31046 39.5132C4.88184 39.6081 5.07234 39.4657 4.88184 39.7268L5.28665 39.6793L5.66766 42.6458Z" fill="#FE5454"/>
<path fill-rule="evenodd" clip-rule="evenodd" d="M5.66777 42.6456L5.28677 39.6792L4.88195 39.7267C3.52463 40.0826 3.45319 42.6694 5.66777 42.6456Z" fill="#FE5F5F"/>
<path fill-rule="evenodd" clip-rule="evenodd" d="M143.305 36.8315L142.996 36.9739C142.591 37.4485 141.876 37.4959 141.233 38.9198C140.781 39.9166 140.9 41.0082 140.9 42.4084C140.9 44.3781 140.781 53.491 140.971 55.2472C141.114 56.4575 140.995 77.982 140.995 79.9755C140.995 82.23 141.043 84.1522 143.4 85.2202C144.853 85.8609 148.687 85.5524 150.782 85.5524C151.139 85.3863 155.331 85.41 155.902 85.5049C156.497 85.5999 157.212 85.5761 157.783 85.5049L159.403 85.4337C160.712 85.4337 162.308 85.3625 163.57 85.4575L168.713 85.41C170.094 85.4575 171.595 85.41 172.976 85.4337C174.595 85.4337 175.476 85.3388 176.429 84.6269C178.429 83.108 177.905 80.3552 177.905 77.4599C177.905 71.7169 177.905 65.9501 177.905 60.2071C177.905 54.4403 177.786 49.3617 177.786 43.4051C177.786 42.0761 177.976 40.4149 177.643 39.2995C177.143 37.6146 175.738 36.5229 173.952 36.5229H167.38L163.546 36.5467L154.64 36.5229C154.354 36.6891 151.211 36.7128 150.925 36.5229L145.877 36.5704C144.234 36.6653 144.972 36.4755 143.305 36.8315ZM163.736 57.5729C163.689 53.7995 163.713 50.0025 163.689 46.2292C163.689 44.8765 163.379 41.8388 164.022 40.8896C164.903 39.5606 166.999 39.7979 167.427 41.5066C167.642 42.3372 167.57 62.865 167.57 64.2414C167.594 68.0148 167.618 71.8118 167.618 75.5851C167.618 77.0328 167.927 79.6907 167.332 80.7586C166.523 82.1825 164.332 81.9215 163.879 80.3077C163.617 79.311 163.76 60.3969 163.736 57.5729ZM152.783 40.1064C153.616 39.8928 154.307 40.3437 154.688 40.8896C155.116 41.5066 155.045 42.4084 155.069 43.2627L155.211 77.5311C155.211 79.4059 155.426 81.3044 153.664 81.6842C152.735 81.874 152.068 81.3519 151.711 80.8535C151.259 80.1653 151.378 79.3347 151.378 78.4092L151.235 44.2357C151.211 42.1948 150.878 40.6285 152.783 40.1064ZM157.45 42.1948C157.45 39.3233 161.284 39.2995 161.284 42.3135L161.427 79.0025C161.427 79.7619 161.474 80.3077 161.093 80.8773C159.974 82.5622 157.664 81.7316 157.593 79.667C157.426 73.9951 157.545 68.086 157.521 62.4141L157.45 42.1948ZM169.975 69.1539C169.88 61.5598 169.975 53.9419 169.88 46.3478C169.856 45.1138 169.642 41.7914 170.166 40.937C171.047 39.4894 173.095 39.8454 173.595 41.3642C173.904 42.3847 173.762 50.9043 173.762 52.6842C173.785 60.2545 173.833 67.8249 173.833 75.3953C173.833 76.6531 174.095 79.8331 173.547 80.7586C172.714 82.1825 170.69 81.8977 170.142 80.4026C169.856 79.5483 169.999 70.8151 169.975 69.1539ZM145.02 51.8061C145.02 50.1211 144.781 42.5033 145.091 41.4591C145.496 40.0827 147.234 39.5843 148.306 40.7234C149.115 41.6015 148.83 43.856 148.853 45.2562L148.973 76.1547C148.973 77.4599 149.258 79.9043 148.639 80.901C147.925 82.0876 146.186 82.1113 145.424 80.8298C144.948 79.9992 145.139 77.104 145.139 75.9411L145.02 51.8061Z" fill="#FF5F5F"/>
<path fill-rule="evenodd" clip-rule="evenodd" d="M67.6279 1.59006V36.6416C67.6279 37.1637 68.5804 36.9739 69.6044 36.9739C70.3664 36.9739 71.1284 36.9739 71.9142 36.9739C72.2 35.7873 72.6762 34.6482 73.0334 33.4853L79.7248 12.6253C79.82 12.3642 79.8915 12.1032 80.0105 11.8184L80.6059 10.0148C80.6535 9.87239 80.6773 9.80119 80.7487 9.61134L80.9392 35.455C80.9392 37.3536 80.2725 36.9739 84.654 36.9739V1.59006C84.654 1.32902 84.5826 1.25782 84.3206 1.25782C79.4152 1.25782 80.2487 0.854386 79.6295 2.68172L71.6523 26.4845C71.5808 26.6981 71.5808 26.7693 71.5332 26.9117C71.438 27.1964 71.438 27.149 71.2951 27.3388V1.25782H68.0089C67.6994 1.25782 67.6279 1.32902 67.6279 1.59006Z" fill="#F05F5F"/>
<path fill-rule="evenodd" clip-rule="evenodd" d="M142.996 36.9738L143.305 36.8314L143.329 1.23403H138.828C138.566 2.34941 133.97 15.4018 133.304 17.3478C132.589 19.5311 130.946 25.0368 130.232 26.8404L130.041 27.1964C130.041 26.2709 130.137 1.61373 129.994 1.37642C129.803 1.06791 127.089 1.2103 126.422 1.2103V36.9026H130.589L138.495 12.4591C138.638 12.0319 139.447 9.27904 139.686 8.94679V36.9026L142.996 36.9738Z" fill="#313131"/>
<path fill-rule="evenodd" clip-rule="evenodd" d="M46.8154 1.59005V36.6416C46.8154 36.9027 46.8869 36.9739 47.1488 36.9739H50.6493C50.9112 36.9739 50.9827 36.9027 50.9827 36.6416V4.95994H59.6267V36.9501H63.6748V1.59005C63.6748 1.32901 63.6034 1.25781 63.3414 1.25781H47.1488C46.9107 1.25781 46.8154 1.32901 46.8154 1.59005Z" fill="#F05F5F"/>
<path fill-rule="evenodd" clip-rule="evenodd" d="M4.7627 35.5736L6.23908 35.6448C7.62022 35.8109 7.85835 36.2855 8.81086 36.6652V26.0572C8.81086 24.5146 8.92992 24.7994 10.0491 22.9246L10.8826 21.5719L17.4787 34.9565C17.8121 35.6448 18.0978 36.3092 18.4312 36.95H22.6222L15.0022 20.9786C14.6212 20.2192 14.1925 19.4598 13.8591 18.7241C13.8115 18.6292 13.3829 17.6325 13.3829 17.6087C13.3591 17.3002 14.2402 15.8763 14.4545 15.4729L16.3119 12.1742C17.4311 10.3469 18.7884 7.59402 19.9552 5.64803C20.3124 5.05474 22.2174 1.68486 22.3127 1.23396H18.2645L11.2398 13.9066C10.9302 14.4762 9.0728 17.9885 8.81086 18.1783V2.468C8.83467 0.877983 9.33474 1.25769 4.7627 1.25769V35.5736Z" fill="#F05F5F"/>
<path fill-rule="evenodd" clip-rule="evenodd" d="M107.49 36.9501H111.538V22.9722C116.42 22.9722 120.54 23.3044 122.683 18.5818C123.707 16.3273 123.373 12.1268 123.373 9.35023C123.373 4.05809 120.373 1.28149 115.039 1.28149H107.49V36.9501ZM114.944 19.27H111.538V4.95989C115.182 4.95989 119.325 4.12928 119.325 9.20784V15.0933C119.325 17.9648 117.825 19.27 114.944 19.27Z" fill="#313131"/>
<path fill-rule="evenodd" clip-rule="evenodd" d="M27.5509 33.3429H26.7889V36.9501C26.908 36.9738 27.0985 37.0687 27.1223 37.0687C34.6471 37.0687 35.4091 33.248 37.0046 27.054C37.2189 26.1997 37.4808 25.4165 37.6952 24.4673L39.8383 16.6596C40.3384 14.9746 40.8384 13.2422 41.2909 11.4624C41.7433 9.61129 42.291 8.04501 42.7435 6.24141L43.7912 2.37316C44.196 0.972994 44.7913 1.25777 40.1479 1.25777C39.6954 1.25777 39.4573 2.84779 39.243 3.63093C38.4572 6.28887 37.2665 11.2725 36.5521 14.144L34.9805 20.8601C34.8614 21.311 34.6948 21.8568 34.6948 22.3314C34.3376 22.0704 34.5281 22.2128 34.2661 21.1211L31.6467 11.7234C31.099 9.96727 30.6466 8.16366 30.0751 6.40753L28.9321 2.42062C28.5035 0.925531 29.2416 1.25777 24.8363 1.25777C24.3362 1.25777 24.6458 1.68494 24.7649 2.08838C24.8839 2.49182 24.9554 2.77659 25.0744 3.20376L27.1223 9.68249C28.2177 13.1473 29.4083 17.3241 30.5275 20.599L32.6231 27.1489C32.8374 27.8134 32.3373 28.5966 32.123 29.2373C31.361 31.3257 31.099 33.3429 27.5509 33.3429Z" fill="#F05F5F"/>
<path fill-rule="evenodd" clip-rule="evenodd" d="M87.3447 1.59005V4.65143C87.3447 4.91248 87.4162 4.98367 87.6781 4.98367H93.917V36.6416C93.917 36.9027 93.9885 36.9739 94.2504 36.9739H97.7509C98.0128 36.9739 98.0843 36.9027 98.0843 36.6416V4.95994H104.657V1.59005C104.657 1.32901 104.585 1.25781 104.323 1.25781H87.6781C87.4162 1.25781 87.3447 1.32901 87.3447 1.59005Z" fill="#313131"/>
<path fill-rule="evenodd" clip-rule="evenodd" d="M163.736 57.5728C163.76 60.3731 163.617 79.2872 163.903 80.2839C164.355 81.8976 166.546 82.1824 167.356 80.7348C167.951 79.6669 167.641 77.0089 167.641 75.5613C167.641 71.788 167.617 67.9909 167.594 64.2176C167.594 62.8175 167.641 42.3134 167.451 41.4828C167.022 39.7741 164.927 39.513 164.046 40.8657C163.403 41.8387 163.712 44.8526 163.712 46.2053C163.688 50.0024 163.688 53.7995 163.736 57.5728Z" fill="#FF5151"/>
<path fill-rule="evenodd" clip-rule="evenodd" d="M169.975 69.1539C169.999 70.7914 169.832 79.5484 170.142 80.4027C170.689 81.8978 172.714 82.1826 173.547 80.7587C174.095 79.8332 173.833 76.6531 173.833 75.3954C173.809 67.825 173.785 60.2546 173.761 52.6842C173.761 50.9043 173.928 42.3847 173.595 41.3642C173.118 39.8454 171.047 39.4895 170.166 40.9371C169.642 41.8151 169.856 45.1138 169.88 46.3479C169.999 53.942 169.904 61.5598 169.975 69.1539Z" fill="#FF5151"/>
<path fill-rule="evenodd" clip-rule="evenodd" d="M157.449 42.1948L157.521 62.3903C157.544 68.0622 157.425 73.9714 157.592 79.6432C157.664 81.7079 159.95 82.5385 161.093 80.8535C161.474 80.284 161.45 79.7381 161.426 78.9787L161.283 42.2897C161.283 39.2758 157.449 39.3232 157.449 42.1948Z" fill="#FF5151"/>
<path fill-rule="evenodd" clip-rule="evenodd" d="M145.019 51.8059L145.114 75.9409C145.114 77.1038 144.924 79.999 145.4 80.8296C146.162 82.1349 147.9 82.0874 148.615 80.9008C149.234 79.9041 148.948 77.4598 148.948 76.1545L148.829 45.256C148.829 43.8558 149.091 41.6013 148.281 40.7233C147.234 39.6079 145.472 40.1062 145.067 41.4589C144.805 42.4794 145.019 50.121 145.019 51.8059Z" fill="#FF5151"/>
<path fill-rule="evenodd" clip-rule="evenodd" d="M152.782 40.1063C150.901 40.6046 151.21 42.1709 151.234 44.2593L151.377 78.4328C151.377 79.3583 151.258 80.1889 151.71 80.8771C152.044 81.3992 152.734 81.9213 153.663 81.7077C155.425 81.328 155.211 79.4058 155.211 77.5547L155.068 43.2863C155.068 42.432 155.14 41.5302 154.687 40.9131C154.306 40.3436 153.592 39.8927 152.782 40.1063Z" fill="#FF5151"/>
<path fill-rule="evenodd" clip-rule="evenodd" d="M163.569 36.5466L167.403 36.5229C167.403 31.3257 167.403 26.1047 167.403 20.9075C167.403 18.3208 167.403 15.734 167.403 13.1473C167.403 11.7234 167.594 6.26511 167.332 5.29212C167.07 5.17346 163.879 5.17346 163.641 5.29212C163.379 6.59736 163.593 11.3674 163.593 13.0523C163.593 15.6628 163.593 18.297 163.593 20.9075C163.569 26.1285 163.569 31.3257 163.569 36.5466Z" fill="#313131"/>
<path fill-rule="evenodd" clip-rule="evenodd" d="M150.948 36.5229C151.234 36.7127 154.401 36.689 154.663 36.5229L154.711 5.24463L150.877 5.29209C150.877 10.4893 150.877 15.7103 150.877 20.9075C150.877 23.4942 150.877 26.081 150.877 28.6677C150.877 30.1865 150.663 35.4075 150.948 36.5229Z" fill="#313131"/>
<path fill-rule="evenodd" clip-rule="evenodd" d="M146.281 2.82402C150.615 2.96641 155.187 2.82402 159.545 2.82402C161.783 2.82402 163.998 2.82402 166.236 2.82402C167.856 2.82402 171.547 3.01388 172.928 2.75283C172.928 1.54252 172.309 0.735644 171.475 0.308476C170.594 -0.142425 168.903 0.0474281 167.665 0.0474281H151.663C149.544 0.0474281 146.281 -0.617056 146.281 2.82402Z" fill="#00A9AF"/>
<path fill-rule="evenodd" clip-rule="evenodd" d="M150.877 5.29216L154.711 5.2447L163.64 5.29216C163.879 5.1735 167.07 5.1735 167.331 5.29216C168.57 5.29216 170.237 5.43455 171.141 5.10231C172.213 4.69887 172.618 3.96319 172.88 2.77661C171.499 3.03766 167.808 2.84781 166.188 2.84781C163.95 2.84781 161.735 2.84781 159.497 2.84781C155.139 2.84781 150.567 2.9902 146.233 2.84781C146.233 3.91573 146.853 4.60394 147.543 4.98365C148.377 5.41082 149.639 5.31589 150.877 5.29216Z" fill="#00B2C0"/>
<path fill-rule="evenodd" clip-rule="evenodd" d="M4.92924 37.5908H5.0483C10.049 37.401 10.3347 44.0458 5.90556 44.6391L4.83398 44.5916L5.31024 44.7578C5.47693 44.7815 5.71505 44.7578 5.90556 44.7578L6.739 51.806C6.71519 51.9484 6.45325 51.9247 6.85806 51.9247C7.02475 51.5925 7.09619 51.4026 7.26288 51.0229C7.54863 50.3584 8.16776 49.338 8.57258 48.2938C10.0728 44.473 12.3826 40.6997 9.5489 37.3298C9.28696 36.9975 9.02502 36.9026 8.81071 36.6653C7.88201 36.2856 7.64388 35.8347 6.23893 35.6448L4.83398 35.6211C4.88161 36.2381 5.11974 36.9975 4.92924 37.5908Z" fill="#FE5454"/>
<path fill-rule="evenodd" clip-rule="evenodd" d="M6.73868 51.8061L5.90523 44.7579C5.71473 44.7579 5.50042 44.7816 5.30991 44.7579L4.83366 44.5917C3.2144 44.3781 1.88088 42.8356 1.9047 41.0083C1.95232 39.1335 3.28583 37.9469 4.9051 37.5909C5.11941 36.9976 4.85747 36.2619 4.80985 35.6212L6.2148 35.6449L4.73841 35.5737C4.00022 35.811 3.33346 35.7399 2.30951 36.4993C-0.238446 38.3741 -0.61945 40.9845 0.761687 43.7611C1.88088 45.9919 4.61935 49.4567 6.14336 51.379C6.4053 51.6875 6.38149 51.6637 6.73868 51.8061Z" fill="#FE5F5F"/>
<path fill-rule="evenodd" clip-rule="evenodd" d="M4.83423 44.5917L5.9058 44.6391L5.69149 42.6694C3.47691 42.6931 3.54835 40.1064 4.90567 39.7504C5.09617 39.5131 4.88186 39.6317 5.3343 39.5368L5.07236 37.5908H4.95329C3.33403 37.9468 1.97671 39.1334 1.95289 41.0082C1.88146 42.8118 3.23878 44.3781 4.83423 44.5917Z" fill="#FC4444"/>
<path fill-rule="evenodd" clip-rule="evenodd" d="M5.31017 39.513C6.23886 39.6791 6.90562 39.8927 7.02468 40.9131C7.14374 41.9336 6.5008 42.4557 5.66736 42.6455L5.88167 44.6153C10.3108 44.022 10.0251 37.3771 5.02441 37.567L5.31017 39.513Z" fill="#F93C3C"/>
<path fill-rule="evenodd" clip-rule="evenodd" d="M70.0332 42.1472C70.6285 44.0694 72.4383 43.2625 74.0099 42.8828C74.6529 42.7167 75.7482 42.5269 76.2721 42.2895C76.5579 42.1709 76.8913 41.9336 77.0579 41.6488C77.1056 41.5539 77.2484 41.1742 77.2723 41.0792C77.2961 40.9843 77.2961 40.8894 77.2961 40.7945L77.177 40.4385L70.0332 42.1472Z" fill="#313131"/>
<path fill-rule="evenodd" clip-rule="evenodd" d="M89.3216 40.5811L81.9873 40.2251C81.9873 42.3609 84.0114 41.8626 85.5116 42.0524C85.9164 42.0999 87.7024 42.1236 88.0834 42.0524C88.7263 41.9575 89.2978 41.3405 89.3216 40.5811Z" fill="#323232"/>
<path fill-rule="evenodd" clip-rule="evenodd" d="M127.112 64.6686C127.97 65.2144 129.375 65.8551 130.375 66.3535C131.28 66.8044 132.78 67.6587 133.685 67.991C134.494 66.045 132.232 65.4754 130.184 64.4787C128.851 63.8142 128.184 63.2447 127.112 64.6686Z" fill="#454545"/>
<path fill-rule="evenodd" clip-rule="evenodd" d="M101.252 44.4255C100.8 44.3781 94.7035 41.91 94.5606 41.7676C94.394 41.8625 94.013 41.9574 94.3463 42.8592C94.7511 43.9746 95.6084 43.9509 97.0848 44.6154C98.6564 45.2799 100.514 46.2528 101.252 44.4255Z" fill="#313131"/>
<path fill-rule="evenodd" clip-rule="evenodd" d="M23.003 65.1194L22.9553 65.7839L15.8115 64.2888C15.8115 66.4247 16.9783 66.1636 19.3834 66.6857C20.0264 66.8281 21.2884 67.2315 21.979 67.018C22.5981 66.8044 23.2887 65.95 23.003 65.1194Z" fill="#323232"/>
<path fill-rule="evenodd" clip-rule="evenodd" d="M48.3633 52.9452C48.6014 53.6097 49.5539 53.9894 50.435 53.6571C50.6969 53.5622 51.1494 53.2537 51.4113 53.0876C53.5783 51.6874 55.7214 51.3077 54.6737 49.1719C54.4355 49.5041 51.8637 50.928 51.5304 51.1179C50.554 51.6637 49.3634 52.4943 48.3633 52.9452Z" fill="#323232"/>
<path fill-rule="evenodd" clip-rule="evenodd" d="M110.681 52.8029C110.181 52.5656 109.61 52.0435 109.157 51.6875C108.633 51.2841 108.252 50.9756 107.729 50.5959C107.228 50.2161 105.157 48.7211 104.919 48.3176C103.561 49.9076 105.752 51.0705 106.752 51.9011C107.062 52.1621 107.3 52.3283 107.609 52.5656C107.895 52.7792 108.252 53.1114 108.538 53.2775C108.872 53.4674 109.253 53.6335 109.705 53.5148C110.11 53.3962 110.562 53.1589 110.681 52.8029Z" fill="#313131"/>
<path fill-rule="evenodd" clip-rule="evenodd" d="M36.957 59.7798C38.3144 61.5122 39.3621 60.3019 40.9814 59.4001L42.9102 58.261C43.4579 57.7864 43.7675 57.0744 43.4817 56.4337C43.3626 56.1726 43.4103 56.2675 43.315 56.1726C42.3863 56.576 41.0766 57.4541 40.1479 57.9999C39.5288 58.3797 37.5285 59.6612 36.957 59.7798Z" fill="#323232"/>
<path fill-rule="evenodd" clip-rule="evenodd" d="M58.8652 47.202C59.0319 47.914 59.913 48.3412 60.7226 48.1038L64.6994 46.1579C65.3661 45.7782 65.8186 44.9713 65.4376 43.9983L58.8652 47.202Z" fill="#313131"/>
<path fill-rule="evenodd" clip-rule="evenodd" d="M27.0039 64.8583C27.7421 66.8043 30.0996 65.2143 30.9568 64.7872C31.9808 64.2651 33.4095 63.9328 33.7429 62.9598C33.8143 62.7462 33.8382 62.5327 33.8382 62.2716C33.8382 62.0818 33.8382 62.0343 33.7667 61.8919C33.6477 61.5834 33.6953 61.7495 33.5762 61.6309C33.3619 62.0106 30.8616 63.0548 30.3377 63.2921C29.3852 63.743 27.9326 64.5973 27.0039 64.8583Z" fill="#323232"/>
<path fill-rule="evenodd" clip-rule="evenodd" d="M27.0033 64.8584C27.932 64.5973 29.3846 63.743 30.3371 63.2921C30.8609 63.0548 33.3613 62.0106 33.5756 61.6309C33.2898 60.9664 32.4802 60.6579 31.742 60.8715L29.7179 61.797C29.075 62.1055 28.3606 62.4378 27.7415 62.77C27.1462 63.1022 26.527 63.8617 27.0033 64.8584Z" fill="#454545"/>
<path fill-rule="evenodd" clip-rule="evenodd" d="M133.685 67.9909C132.78 67.6824 131.28 66.8043 130.375 66.3534C129.375 65.855 127.994 65.2143 127.113 64.6685C126.279 66.5907 128.208 67.0891 129.661 67.8248C131.351 68.6554 132.59 69.7233 133.685 67.9909Z" fill="#313131"/>
<path fill-rule="evenodd" clip-rule="evenodd" d="M121.231 61.5124C120.445 60.8242 119.135 60.0648 118.23 59.4478C117.73 59.1155 117.23 58.7595 116.73 58.4273C116.254 58.1188 115.635 57.7628 115.278 57.3594C114.825 57.7153 114.659 58.7121 115.516 59.5189L119.135 62.0108C119.874 62.4142 120.921 62.2481 121.231 61.5124Z" fill="#313131"/>
<path fill-rule="evenodd" clip-rule="evenodd" d="M12.216 61.5597C11.7873 61.4173 12.1683 61.6546 11.8112 61.2749L7.62012 55.9353C7.00099 56.1489 6.66761 57.2643 7.2153 58.0711L10.049 61.5834C10.692 62.2005 11.6445 62.1767 12.216 61.5597Z" fill="#313131"/>
<path fill-rule="evenodd" clip-rule="evenodd" d="M104.919 48.2938C105.181 48.6973 107.229 50.1923 107.729 50.5721C108.229 50.9518 108.634 51.2603 109.158 51.6637C109.61 52.0197 110.182 52.5418 110.682 52.7791C111.348 52.2333 110.991 51.0941 110.491 50.667C110.301 50.5009 110.301 50.5246 110.11 50.3822L108.8 49.3855C108.229 48.9583 107.753 48.5074 107.134 48.104C106.3 47.5344 105.61 47.6293 104.919 48.2938Z" fill="#454545"/>
<path fill-rule="evenodd" clip-rule="evenodd" d="M48.3633 52.9452C49.3634 52.5181 50.5541 51.6875 51.5066 51.1179C51.8399 50.9281 54.4355 49.5042 54.6498 49.1719C53.2687 47.8192 52.7925 48.5549 50.7446 49.7177C50.1492 50.0737 49.4349 50.4297 48.8872 50.8094C48.268 51.2603 47.8394 51.9722 48.3633 52.9452Z" fill="#454545"/>
<path fill-rule="evenodd" clip-rule="evenodd" d="M81.9873 40.2251L89.3216 40.5811C89.3216 38.7775 87.5595 38.8012 85.7021 38.825C84.9163 38.825 83.8447 38.6114 83.2256 38.7538C82.5826 38.8962 82.0111 39.442 81.9873 40.2251Z" fill="#454545"/>
<path fill-rule="evenodd" clip-rule="evenodd" d="M70.0333 42.1473L77.1533 40.4387C76.9866 38.4452 74.1053 39.5369 73.248 39.7267C72.0812 39.9878 70.7953 40.0827 70.2476 40.8896C69.9619 41.3642 70.0333 41.4117 70.0333 42.1473Z" fill="#454545"/>
<path fill-rule="evenodd" clip-rule="evenodd" d="M58.8648 47.2022L65.4371 44.0222C65.2228 43.7137 65.1276 43.5238 64.7704 43.3102C64.3894 43.0966 63.9846 43.0254 63.5559 43.1678C62.9844 43.3577 62.0319 43.9035 61.4842 44.1646C60.1507 44.829 59.1268 45.0426 58.7458 46.0156C58.6505 46.2292 58.6029 46.2767 58.6505 46.6564C58.6981 47.0124 58.7934 47.0835 58.8648 47.2022Z" fill="#454545"/>
<path fill-rule="evenodd" clip-rule="evenodd" d="M15.8359 64.2889L22.9797 65.784L23.0274 65.1195C22.8369 64.4075 22.4321 64.0278 21.7177 63.8617C20.9557 63.6956 17.86 63.0074 17.2885 63.0311C16.9075 63.0548 16.5741 63.1972 16.336 63.4108C16.0264 63.6719 15.9788 63.9329 15.8359 64.2889Z" fill="#454545"/>
<path fill-rule="evenodd" clip-rule="evenodd" d="M94.5838 41.7439C94.7028 41.91 100.823 44.3781 101.275 44.4018C101.537 43.5475 101.204 42.8356 100.608 42.5033C100.346 42.3609 99.9178 42.2423 99.5844 42.0999C99.2034 41.9338 98.8462 41.7914 98.5129 41.649L96.9174 41.0557C96.2745 40.8184 95.3458 40.5099 94.7028 41.2455C94.4409 41.5778 94.5599 41.649 94.5838 41.7439Z" fill="#454545"/>
<path fill-rule="evenodd" clip-rule="evenodd" d="M36.9569 59.7799C37.5284 59.6613 39.5287 58.356 40.124 58.0001C41.0527 57.4542 42.3624 56.5762 43.2911 56.1727C43.1959 55.7693 42.9577 55.6032 42.5767 55.4371C41.648 55.0336 41.1718 55.532 40.386 55.9829L37.5046 57.6916C36.8617 58.1425 36.6235 58.9731 36.9569 59.7799Z" fill="#454545"/>
<path fill-rule="evenodd" clip-rule="evenodd" d="M7.62012 55.9353L11.8112 61.2512C12.1683 61.6547 11.7873 61.3936 12.216 61.536C13.5019 60.207 12.0969 59.0442 11.0491 57.7389C10.6205 57.1931 9.81089 55.9828 9.23938 55.7217C9.14413 55.6743 8.81075 55.5556 8.66788 55.5556C8.23925 55.5082 7.83443 55.6505 7.62012 55.9353Z" fill="#454545"/>
<path fill-rule="evenodd" clip-rule="evenodd" d="M115.277 57.3594C115.635 57.7628 116.254 58.0951 116.73 58.4273C117.23 58.7595 117.73 59.1155 118.23 59.4478C119.111 60.0648 120.445 60.8242 121.231 61.5124C121.707 61.0852 121.707 60.0173 121.016 59.4003L119.206 58.1662C118.564 57.7865 118.087 57.3831 117.444 56.9797C116.944 56.6712 116.182 56.5288 115.635 56.9559C115.349 57.1458 115.444 57.0746 115.277 57.3594Z" fill="#454545"/>
<path fill-rule="evenodd" clip-rule="evenodd" d="M168.713 85.4099L163.569 85.4574C163.569 86.2168 163.688 86.6677 164.236 86.8338C164.498 86.905 164.736 86.905 164.95 86.9287C167.546 86.9762 168.713 87.4746 168.713 85.4099Z" fill="#2E2E2E"/>
<path fill-rule="evenodd" clip-rule="evenodd" d="M155.902 85.4811C155.355 85.3862 151.14 85.3624 150.783 85.5286C150.664 86.3117 150.878 86.6914 151.473 86.8576C151.64 86.905 152.378 86.9525 153.045 86.9525C154.831 86.9525 155.902 87.3322 155.902 85.4811Z" fill="#2F2F2F"/>
<path fill-rule="evenodd" clip-rule="evenodd" d="M5.66766 42.6458C6.47729 42.4559 7.14404 41.9338 7.02498 40.9133C6.90592 39.8929 6.23916 39.6793 5.31046 39.5132C4.88184 39.6081 5.07234 39.4657 4.88184 39.7268L5.28665 39.6793L5.66766 42.6458Z" fill="#FE5454"/>
<path fill-rule="evenodd" clip-rule="evenodd" d="M5.66777 42.6456L5.28677 39.6792L4.88195 39.7267C3.52463 40.0826 3.45319 42.6694 5.66777 42.6456Z" fill="#FE5F5F"/>
<path fill-rule="evenodd" clip-rule="evenodd" d="M143.305 36.8315L142.996 36.9739C142.591 37.4485 141.876 37.4959 141.233 38.9198C140.781 39.9166 140.9 41.0082 140.9 42.4084C140.9 44.3781 140.781 53.491 140.971 55.2472C141.114 56.4575 140.995 77.982 140.995 79.9755C140.995 82.23 141.043 84.1522 143.4 85.2202C144.853 85.8609 148.687 85.5524 150.782 85.5524C151.139 85.3863 155.331 85.41 155.902 85.5049C156.497 85.5999 157.212 85.5761 157.783 85.5049L159.403 85.4337C160.712 85.4337 162.308 85.3625 163.57 85.4575L168.713 85.41C170.094 85.4575 171.595 85.41 172.976 85.4337C174.595 85.4337 175.476 85.3388 176.429 84.6269C178.429 83.108 177.905 80.3552 177.905 77.4599C177.905 71.7169 177.905 65.9501 177.905 60.2071C177.905 54.4403 177.786 49.3617 177.786 43.4051C177.786 42.0761 177.976 40.4149 177.643 39.2995C177.143 37.6146 175.738 36.5229 173.952 36.5229H167.38L163.546 36.5467L154.64 36.5229C154.354 36.6891 151.211 36.7128 150.925 36.5229L145.877 36.5704C144.234 36.6653 144.972 36.4755 143.305 36.8315ZM163.736 57.5729C163.689 53.7995 163.713 50.0025 163.689 46.2292C163.689 44.8765 163.379 41.8388 164.022 40.8896C164.903 39.5606 166.999 39.7979 167.427 41.5066C167.642 42.3372 167.57 62.865 167.57 64.2414C167.594 68.0148 167.618 71.8118 167.618 75.5851C167.618 77.0328 167.927 79.6907 167.332 80.7586C166.523 82.1825 164.332 81.9215 163.879 80.3077C163.617 79.311 163.76 60.3969 163.736 57.5729ZM152.783 40.1064C153.616 39.8928 154.307 40.3437 154.688 40.8896C155.116 41.5066 155.045 42.4084 155.069 43.2627L155.211 77.5311C155.211 79.4059 155.426 81.3044 153.664 81.6842C152.735 81.874 152.068 81.3519 151.711 80.8535C151.259 80.1653 151.378 79.3347 151.378 78.4092L151.235 44.2357C151.211 42.1948 150.878 40.6285 152.783 40.1064ZM157.45 42.1948C157.45 39.3233 161.284 39.2995 161.284 42.3135L161.427 79.0025C161.427 79.7619 161.474 80.3077 161.093 80.8773C159.974 82.5622 157.664 81.7316 157.593 79.667C157.426 73.9951 157.545 68.086 157.521 62.4141L157.45 42.1948ZM169.975 69.1539C169.88 61.5598 169.975 53.9419 169.88 46.3478C169.856 45.1138 169.642 41.7914 170.166 40.937C171.047 39.4894 173.095 39.8454 173.595 41.3642C173.904 42.3847 173.762 50.9043 173.762 52.6842C173.785 60.2545 173.833 67.8249 173.833 75.3953C173.833 76.6531 174.095 79.8331 173.547 80.7586C172.714 82.1825 170.69 81.8977 170.142 80.4026C169.856 79.5483 169.999 70.8151 169.975 69.1539ZM145.02 51.8061C145.02 50.1211 144.781 42.5033 145.091 41.4591C145.496 40.0827 147.234 39.5843 148.306 40.7234C149.115 41.6015 148.83 43.856 148.853 45.2562L148.973 76.1547C148.973 77.4599 149.258 79.9043 148.639 80.901C147.925 82.0876 146.186 82.1113 145.424 80.8298C144.948 79.9992 145.139 77.104 145.139 75.9411L145.02 51.8061Z" fill="#FF5F5F"/>
<path fill-rule="evenodd" clip-rule="evenodd" d="M67.6279 1.59006V36.6416C67.6279 37.1637 68.5804 36.9739 69.6044 36.9739C70.3664 36.9739 71.1284 36.9739 71.9142 36.9739C72.2 35.7873 72.6762 34.6482 73.0334 33.4853L79.7248 12.6253C79.82 12.3642 79.8915 12.1032 80.0105 11.8184L80.6059 10.0148C80.6535 9.87239 80.6773 9.80119 80.7487 9.61134L80.9392 35.455C80.9392 37.3536 80.2725 36.9739 84.654 36.9739V1.59006C84.654 1.32902 84.5826 1.25782 84.3206 1.25782C79.4152 1.25782 80.2487 0.854386 79.6295 2.68172L71.6523 26.4845C71.5808 26.6981 71.5808 26.7693 71.5332 26.9117C71.438 27.1964 71.438 27.149 71.2951 27.3388V1.25782H68.0089C67.6994 1.25782 67.6279 1.32902 67.6279 1.59006Z" fill="#F05F5F"/>
<path fill-rule="evenodd" clip-rule="evenodd" d="M142.996 36.9738L143.305 36.8314L143.329 1.23403H138.828C138.566 2.34941 133.97 15.4018 133.304 17.3478C132.589 19.5311 130.946 25.0368 130.232 26.8404L130.041 27.1964C130.041 26.2709 130.137 1.61373 129.994 1.37642C129.803 1.06791 127.089 1.2103 126.422 1.2103V36.9026H130.589L138.495 12.4591C138.638 12.0319 139.447 9.27904 139.686 8.94679V36.9026L142.996 36.9738Z" fill="#313131"/>
<path fill-rule="evenodd" clip-rule="evenodd" d="M46.8154 1.59005V36.6416C46.8154 36.9027 46.8869 36.9739 47.1488 36.9739H50.6493C50.9112 36.9739 50.9827 36.9027 50.9827 36.6416V4.95994H59.6267V36.9501H63.6748V1.59005C63.6748 1.32901 63.6034 1.25781 63.3414 1.25781H47.1488C46.9107 1.25781 46.8154 1.32901 46.8154 1.59005Z" fill="#F05F5F"/>
<path fill-rule="evenodd" clip-rule="evenodd" d="M4.7627 35.5736L6.23908 35.6448C7.62022 35.8109 7.85835 36.2855 8.81086 36.6652V26.0572C8.81086 24.5146 8.92992 24.7994 10.0491 22.9246L10.8826 21.5719L17.4787 34.9565C17.8121 35.6448 18.0978 36.3092 18.4312 36.95H22.6222L15.0022 20.9786C14.6212 20.2192 14.1925 19.4598 13.8591 18.7241C13.8115 18.6292 13.3829 17.6325 13.3829 17.6087C13.3591 17.3002 14.2402 15.8763 14.4545 15.4729L16.3119 12.1742C17.4311 10.3469 18.7884 7.59402 19.9552 5.64803C20.3124 5.05474 22.2174 1.68486 22.3127 1.23396H18.2645L11.2398 13.9066C10.9302 14.4762 9.0728 17.9885 8.81086 18.1783V2.468C8.83467 0.877983 9.33474 1.25769 4.7627 1.25769V35.5736Z" fill="#F05F5F"/>
<path fill-rule="evenodd" clip-rule="evenodd" d="M107.49 36.9501H111.538V22.9722C116.42 22.9722 120.54 23.3044 122.683 18.5818C123.707 16.3273 123.373 12.1268 123.373 9.35023C123.373 4.05809 120.373 1.28149 115.039 1.28149H107.49V36.9501ZM114.944 19.27H111.538V4.95989C115.182 4.95989 119.325 4.12928 119.325 9.20784V15.0933C119.325 17.9648 117.825 19.27 114.944 19.27Z" fill="#313131"/>
<path fill-rule="evenodd" clip-rule="evenodd" d="M27.5509 33.3429H26.7889V36.9501C26.908 36.9738 27.0985 37.0687 27.1223 37.0687C34.6471 37.0687 35.4091 33.248 37.0046 27.054C37.2189 26.1997 37.4808 25.4165 37.6952 24.4673L39.8383 16.6596C40.3384 14.9746 40.8384 13.2422 41.2909 11.4624C41.7433 9.61129 42.291 8.04501 42.7435 6.24141L43.7912 2.37316C44.196 0.972994 44.7913 1.25777 40.1479 1.25777C39.6954 1.25777 39.4573 2.84779 39.243 3.63093C38.4572 6.28887 37.2665 11.2725 36.5521 14.144L34.9805 20.8601C34.8614 21.311 34.6948 21.8568 34.6948 22.3314C34.3376 22.0704 34.5281 22.2128 34.2661 21.1211L31.6467 11.7234C31.099 9.96727 30.6466 8.16366 30.0751 6.40753L28.9321 2.42062C28.5035 0.925531 29.2416 1.25777 24.8363 1.25777C24.3362 1.25777 24.6458 1.68494 24.7649 2.08838C24.8839 2.49182 24.9554 2.77659 25.0744 3.20376L27.1223 9.68249C28.2177 13.1473 29.4083 17.3241 30.5275 20.599L32.6231 27.1489C32.8374 27.8134 32.3373 28.5966 32.123 29.2373C31.361 31.3257 31.099 33.3429 27.5509 33.3429Z" fill="#F05F5F"/>
<path fill-rule="evenodd" clip-rule="evenodd" d="M87.3447 1.59005V4.65143C87.3447 4.91248 87.4162 4.98367 87.6781 4.98367H93.917V36.6416C93.917 36.9027 93.9885 36.9739 94.2504 36.9739H97.7509C98.0128 36.9739 98.0843 36.9027 98.0843 36.6416V4.95994H104.657V1.59005C104.657 1.32901 104.585 1.25781 104.323 1.25781H87.6781C87.4162 1.25781 87.3447 1.32901 87.3447 1.59005Z" fill="#313131"/>
<path fill-rule="evenodd" clip-rule="evenodd" d="M163.736 57.5728C163.76 60.3731 163.617 79.2872 163.903 80.2839C164.355 81.8976 166.546 82.1824 167.356 80.7348C167.951 79.6669 167.641 77.0089 167.641 75.5613C167.641 71.788 167.617 67.9909 167.594 64.2176C167.594 62.8175 167.641 42.3134 167.451 41.4828C167.022 39.7741 164.927 39.513 164.046 40.8657C163.403 41.8387 163.712 44.8526 163.712 46.2053C163.688 50.0024 163.688 53.7995 163.736 57.5728Z" fill="#FF5151"/>
<path fill-rule="evenodd" clip-rule="evenodd" d="M169.975 69.1539C169.999 70.7914 169.832 79.5484 170.142 80.4027C170.689 81.8978 172.714 82.1826 173.547 80.7587C174.095 79.8332 173.833 76.6531 173.833 75.3954C173.809 67.825 173.785 60.2546 173.761 52.6842C173.761 50.9043 173.928 42.3847 173.595 41.3642C173.118 39.8454 171.047 39.4895 170.166 40.9371C169.642 41.8151 169.856 45.1138 169.88 46.3479C169.999 53.942 169.904 61.5598 169.975 69.1539Z" fill="#FF5151"/>
<path fill-rule="evenodd" clip-rule="evenodd" d="M157.449 42.1948L157.521 62.3903C157.544 68.0622 157.425 73.9714 157.592 79.6432C157.664 81.7079 159.95 82.5385 161.093 80.8535C161.474 80.284 161.45 79.7381 161.426 78.9787L161.283 42.2897C161.283 39.2758 157.449 39.3232 157.449 42.1948Z" fill="#FF5151"/>
<path fill-rule="evenodd" clip-rule="evenodd" d="M145.019 51.8059L145.114 75.9409C145.114 77.1038 144.924 79.999 145.4 80.8296C146.162 82.1349 147.9 82.0874 148.615 80.9008C149.234 79.9041 148.948 77.4598 148.948 76.1545L148.829 45.256C148.829 43.8558 149.091 41.6013 148.281 40.7233C147.234 39.6079 145.472 40.1062 145.067 41.4589C144.805 42.4794 145.019 50.121 145.019 51.8059Z" fill="#FF5151"/>
<path fill-rule="evenodd" clip-rule="evenodd" d="M152.782 40.1063C150.901 40.6046 151.21 42.1709 151.234 44.2593L151.377 78.4328C151.377 79.3583 151.258 80.1889 151.71 80.8771C152.044 81.3992 152.734 81.9213 153.663 81.7077C155.425 81.328 155.211 79.4058 155.211 77.5547L155.068 43.2863C155.068 42.432 155.14 41.5302 154.687 40.9131C154.306 40.3436 153.592 39.8927 152.782 40.1063Z" fill="#FF5151"/>
<path fill-rule="evenodd" clip-rule="evenodd" d="M163.569 36.5466L167.403 36.5229C167.403 31.3257 167.403 26.1047 167.403 20.9075C167.403 18.3208 167.403 15.734 167.403 13.1473C167.403 11.7234 167.594 6.26511 167.332 5.29212C167.07 5.17346 163.879 5.17346 163.641 5.29212C163.379 6.59736 163.593 11.3674 163.593 13.0523C163.593 15.6628 163.593 18.297 163.593 20.9075C163.569 26.1285 163.569 31.3257 163.569 36.5466Z" fill="#313131"/>
<path fill-rule="evenodd" clip-rule="evenodd" d="M150.948 36.5229C151.234 36.7127 154.401 36.689 154.663 36.5229L154.711 5.24463L150.877 5.29209C150.877 10.4893 150.877 15.7103 150.877 20.9075C150.877 23.4942 150.877 26.081 150.877 28.6677C150.877 30.1865 150.663 35.4075 150.948 36.5229Z" fill="#313131"/>
<path fill-rule="evenodd" clip-rule="evenodd" d="M146.281 2.82402C150.615 2.96641 155.187 2.82402 159.545 2.82402C161.783 2.82402 163.998 2.82402 166.236 2.82402C167.856 2.82402 171.547 3.01388 172.928 2.75283C172.928 1.54252 172.309 0.735644 171.475 0.308476C170.594 -0.142425 168.903 0.0474281 167.665 0.0474281H151.663C149.544 0.0474281 146.281 -0.617056 146.281 2.82402Z" fill="#00A9AF"/>
<path fill-rule="evenodd" clip-rule="evenodd" d="M150.877 5.29216L154.711 5.2447L163.64 5.29216C163.879 5.1735 167.07 5.1735 167.331 5.29216C168.57 5.29216 170.237 5.43455 171.141 5.10231C172.213 4.69887 172.618 3.96319 172.88 2.77661C171.499 3.03766 167.808 2.84781 166.188 2.84781C163.95 2.84781 161.735 2.84781 159.497 2.84781C155.139 2.84781 150.567 2.9902 146.233 2.84781C146.233 3.91573 146.853 4.60394 147.543 4.98365C148.377 5.41082 149.639 5.31589 150.877 5.29216Z" fill="#00B2C0"/>
<path fill-rule="evenodd" clip-rule="evenodd" d="M4.92924 37.5908H5.0483C10.049 37.401 10.3347 44.0458 5.90556 44.6391L4.83398 44.5916L5.31024 44.7578C5.47693 44.7815 5.71505 44.7578 5.90556 44.7578L6.739 51.806C6.71519 51.9484 6.45325 51.9247 6.85806 51.9247C7.02475 51.5925 7.09619 51.4026 7.26288 51.0229C7.54863 50.3584 8.16776 49.338 8.57258 48.2938C10.0728 44.473 12.3826 40.6997 9.5489 37.3298C9.28696 36.9975 9.02502 36.9026 8.81071 36.6653C7.88201 36.2856 7.64388 35.8347 6.23893 35.6448L4.83398 35.6211C4.88161 36.2381 5.11974 36.9975 4.92924 37.5908Z" fill="#FE5454"/>
<path fill-rule="evenodd" clip-rule="evenodd" d="M6.73868 51.8061L5.90523 44.7579C5.71473 44.7579 5.50042 44.7816 5.30991 44.7579L4.83366 44.5917C3.2144 44.3781 1.88088 42.8356 1.9047 41.0083C1.95232 39.1335 3.28583 37.9469 4.9051 37.5909C5.11941 36.9976 4.85747 36.2619 4.80985 35.6212L6.2148 35.6449L4.73841 35.5737C4.00022 35.811 3.33346 35.7399 2.30951 36.4993C-0.238446 38.3741 -0.61945 40.9845 0.761687 43.7611C1.88088 45.9919 4.61935 49.4567 6.14336 51.379C6.4053 51.6875 6.38149 51.6637 6.73868 51.8061Z" fill="#FE5F5F"/>
<path fill-rule="evenodd" clip-rule="evenodd" d="M4.83423 44.5917L5.9058 44.6391L5.69149 42.6694C3.47691 42.6931 3.54835 40.1064 4.90567 39.7504C5.09617 39.5131 4.88186 39.6317 5.3343 39.5368L5.07236 37.5908H4.95329C3.33403 37.9468 1.97671 39.1334 1.95289 41.0082C1.88146 42.8118 3.23878 44.3781 4.83423 44.5917Z" fill="#FC4444"/>
<path fill-rule="evenodd" clip-rule="evenodd" d="M5.31017 39.513C6.23886 39.6791 6.90562 39.8927 7.02468 40.9131C7.14374 41.9336 6.5008 42.4557 5.66736 42.6455L5.88167 44.6153C10.3108 44.022 10.0251 37.3771 5.02441 37.567L5.31017 39.513Z" fill="#F93C3C"/>
<path fill-rule="evenodd" clip-rule="evenodd" d="M70.0332 42.1472C70.6285 44.0694 72.4383 43.2625 74.0099 42.8828C74.6529 42.7167 75.7482 42.5269 76.2721 42.2895C76.5579 42.1709 76.8913 41.9336 77.0579 41.6488C77.1056 41.5539 77.2484 41.1742 77.2723 41.0792C77.2961 40.9843 77.2961 40.8894 77.2961 40.7945L77.177 40.4385L70.0332 42.1472Z" fill="#313131"/>
<path fill-rule="evenodd" clip-rule="evenodd" d="M89.3216 40.5811L81.9873 40.2251C81.9873 42.3609 84.0114 41.8626 85.5116 42.0524C85.9164 42.0999 87.7024 42.1236 88.0834 42.0524C88.7263 41.9575 89.2978 41.3405 89.3216 40.5811Z" fill="#323232"/>
<path fill-rule="evenodd" clip-rule="evenodd" d="M127.112 64.6686C127.97 65.2144 129.375 65.8551 130.375 66.3535C131.28 66.8044 132.78 67.6587 133.685 67.991C134.494 66.045 132.232 65.4754 130.184 64.4787C128.851 63.8142 128.184 63.2447 127.112 64.6686Z" fill="#454545"/>
<path fill-rule="evenodd" clip-rule="evenodd" d="M101.252 44.4255C100.8 44.3781 94.7035 41.91 94.5606 41.7676C94.394 41.8625 94.013 41.9574 94.3463 42.8592C94.7511 43.9746 95.6084 43.9509 97.0848 44.6154C98.6564 45.2799 100.514 46.2528 101.252 44.4255Z" fill="#313131"/>
<path fill-rule="evenodd" clip-rule="evenodd" d="M23.003 65.1194L22.9553 65.7839L15.8115 64.2888C15.8115 66.4247 16.9783 66.1636 19.3834 66.6857C20.0264 66.8281 21.2884 67.2315 21.979 67.018C22.5981 66.8044 23.2887 65.95 23.003 65.1194Z" fill="#323232"/>
<path fill-rule="evenodd" clip-rule="evenodd" d="M48.3633 52.9452C48.6014 53.6097 49.5539 53.9894 50.435 53.6571C50.6969 53.5622 51.1494 53.2537 51.4113 53.0876C53.5783 51.6874 55.7214 51.3077 54.6737 49.1719C54.4355 49.5041 51.8637 50.928 51.5304 51.1179C50.554 51.6637 49.3634 52.4943 48.3633 52.9452Z" fill="#323232"/>
<path fill-rule="evenodd" clip-rule="evenodd" d="M110.681 52.8029C110.181 52.5656 109.61 52.0435 109.157 51.6875C108.633 51.2841 108.252 50.9756 107.729 50.5959C107.228 50.2161 105.157 48.7211 104.919 48.3176C103.561 49.9076 105.752 51.0705 106.752 51.9011C107.062 52.1621 107.3 52.3283 107.609 52.5656C107.895 52.7792 108.252 53.1114 108.538 53.2775C108.872 53.4674 109.253 53.6335 109.705 53.5148C110.11 53.3962 110.562 53.1589 110.681 52.8029Z" fill="#313131"/>
<path fill-rule="evenodd" clip-rule="evenodd" d="M36.957 59.7798C38.3144 61.5122 39.3621 60.3019 40.9814 59.4001L42.9102 58.261C43.4579 57.7864 43.7675 57.0744 43.4817 56.4337C43.3626 56.1726 43.4103 56.2675 43.315 56.1726C42.3863 56.576 41.0766 57.4541 40.1479 57.9999C39.5288 58.3797 37.5285 59.6612 36.957 59.7798Z" fill="#323232"/>
<path fill-rule="evenodd" clip-rule="evenodd" d="M58.8652 47.202C59.0319 47.914 59.913 48.3412 60.7226 48.1038L64.6994 46.1579C65.3661 45.7782 65.8186 44.9713 65.4376 43.9983L58.8652 47.202Z" fill="#313131"/>
<path fill-rule="evenodd" clip-rule="evenodd" d="M27.0039 64.8583C27.7421 66.8043 30.0996 65.2143 30.9568 64.7872C31.9808 64.2651 33.4095 63.9328 33.7429 62.9598C33.8143 62.7462 33.8382 62.5327 33.8382 62.2716C33.8382 62.0818 33.8382 62.0343 33.7667 61.8919C33.6477 61.5834 33.6953 61.7495 33.5762 61.6309C33.3619 62.0106 30.8616 63.0548 30.3377 63.2921C29.3852 63.743 27.9326 64.5973 27.0039 64.8583Z" fill="#323232"/>
<path fill-rule="evenodd" clip-rule="evenodd" d="M27.0033 64.8584C27.932 64.5973 29.3846 63.743 30.3371 63.2921C30.8609 63.0548 33.3613 62.0106 33.5756 61.6309C33.2898 60.9664 32.4802 60.6579 31.742 60.8715L29.7179 61.797C29.075 62.1055 28.3606 62.4378 27.7415 62.77C27.1462 63.1022 26.527 63.8617 27.0033 64.8584Z" fill="#454545"/>
<path fill-rule="evenodd" clip-rule="evenodd" d="M133.685 67.9909C132.78 67.6824 131.28 66.8043 130.375 66.3534C129.375 65.855 127.994 65.2143 127.113 64.6685C126.279 66.5907 128.208 67.0891 129.661 67.8248C131.351 68.6554 132.59 69.7233 133.685 67.9909Z" fill="#313131"/>
<path fill-rule="evenodd" clip-rule="evenodd" d="M121.231 61.5124C120.445 60.8242 119.135 60.0648 118.23 59.4478C117.73 59.1155 117.23 58.7595 116.73 58.4273C116.254 58.1188 115.635 57.7628 115.278 57.3594C114.825 57.7153 114.659 58.7121 115.516 59.5189L119.135 62.0108C119.874 62.4142 120.921 62.2481 121.231 61.5124Z" fill="#313131"/>
<path fill-rule="evenodd" clip-rule="evenodd" d="M12.216 61.5597C11.7873 61.4173 12.1683 61.6546 11.8112 61.2749L7.62012 55.9353C7.00099 56.1489 6.66761 57.2643 7.2153 58.0711L10.049 61.5834C10.692 62.2005 11.6445 62.1767 12.216 61.5597Z" fill="#313131"/>
<path fill-rule="evenodd" clip-rule="evenodd" d="M104.919 48.2938C105.181 48.6973 107.229 50.1923 107.729 50.5721C108.229 50.9518 108.634 51.2603 109.158 51.6637C109.61 52.0197 110.182 52.5418 110.682 52.7791C111.348 52.2333 110.991 51.0941 110.491 50.667C110.301 50.5009 110.301 50.5246 110.11 50.3822L108.8 49.3855C108.229 48.9583 107.753 48.5074 107.134 48.104C106.3 47.5344 105.61 47.6293 104.919 48.2938Z" fill="#454545"/>
<path fill-rule="evenodd" clip-rule="evenodd" d="M48.3633 52.9452C49.3634 52.5181 50.5541 51.6875 51.5066 51.1179C51.8399 50.9281 54.4355 49.5042 54.6498 49.1719C53.2687 47.8192 52.7925 48.5549 50.7446 49.7177C50.1492 50.0737 49.4349 50.4297 48.8872 50.8094C48.268 51.2603 47.8394 51.9722 48.3633 52.9452Z" fill="#454545"/>
<path fill-rule="evenodd" clip-rule="evenodd" d="M81.9873 40.2251L89.3216 40.5811C89.3216 38.7775 87.5595 38.8012 85.7021 38.825C84.9163 38.825 83.8447 38.6114 83.2256 38.7538C82.5826 38.8962 82.0111 39.442 81.9873 40.2251Z" fill="#454545"/>
<path fill-rule="evenodd" clip-rule="evenodd" d="M70.0333 42.1473L77.1533 40.4387C76.9866 38.4452 74.1053 39.5369 73.248 39.7267C72.0812 39.9878 70.7953 40.0827 70.2476 40.8896C69.9619 41.3642 70.0333 41.4117 70.0333 42.1473Z" fill="#454545"/>
<path fill-rule="evenodd" clip-rule="evenodd" d="M58.8648 47.2022L65.4371 44.0222C65.2228 43.7137 65.1276 43.5238 64.7704 43.3102C64.3894 43.0966 63.9846 43.0254 63.5559 43.1678C62.9844 43.3577 62.0319 43.9035 61.4842 44.1646C60.1507 44.829 59.1268 45.0426 58.7458 46.0156C58.6505 46.2292 58.6029 46.2767 58.6505 46.6564C58.6981 47.0124 58.7934 47.0835 58.8648 47.2022Z" fill="#454545"/>
<path fill-rule="evenodd" clip-rule="evenodd" d="M15.8359 64.2889L22.9797 65.784L23.0274 65.1195C22.8369 64.4075 22.4321 64.0278 21.7177 63.8617C20.9557 63.6956 17.86 63.0074 17.2885 63.0311C16.9075 63.0548 16.5741 63.1972 16.336 63.4108C16.0264 63.6719 15.9788 63.9329 15.8359 64.2889Z" fill="#454545"/>
<path fill-rule="evenodd" clip-rule="evenodd" d="M94.5838 41.7439C94.7028 41.91 100.823 44.3781 101.275 44.4018C101.537 43.5475 101.204 42.8356 100.608 42.5033C100.346 42.3609 99.9178 42.2423 99.5844 42.0999C99.2034 41.9338 98.8462 41.7914 98.5129 41.649L96.9174 41.0557C96.2745 40.8184 95.3458 40.5099 94.7028 41.2455C94.4409 41.5778 94.5599 41.649 94.5838 41.7439Z" fill="#454545"/>
<path fill-rule="evenodd" clip-rule="evenodd" d="M36.9569 59.7799C37.5284 59.6613 39.5287 58.356 40.124 58.0001C41.0527 57.4542 42.3624 56.5762 43.2911 56.1727C43.1959 55.7693 42.9577 55.6032 42.5767 55.4371C41.648 55.0336 41.1718 55.532 40.386 55.9829L37.5046 57.6916C36.8617 58.1425 36.6235 58.9731 36.9569 59.7799Z" fill="#454545"/>
<path fill-rule="evenodd" clip-rule="evenodd" d="M7.62012 55.9353L11.8112 61.2512C12.1683 61.6547 11.7873 61.3936 12.216 61.536C13.5019 60.207 12.0969 59.0442 11.0491 57.7389C10.6205 57.1931 9.81089 55.9828 9.23938 55.7217C9.14413 55.6743 8.81075 55.5556 8.66788 55.5556C8.23925 55.5082 7.83443 55.6505 7.62012 55.9353Z" fill="#454545"/>
<path fill-rule="evenodd" clip-rule="evenodd" d="M115.277 57.3594C115.635 57.7628 116.254 58.0951 116.73 58.4273C117.23 58.7595 117.73 59.1155 118.23 59.4478C119.111 60.0648 120.445 60.8242 121.231 61.5124C121.707 61.0852 121.707 60.0173 121.016 59.4003L119.206 58.1662C118.564 57.7865 118.087 57.3831 117.444 56.9797C116.944 56.6712 116.182 56.5288 115.635 56.9559C115.349 57.1458 115.444 57.0746 115.277 57.3594Z" fill="#454545"/>
<path fill-rule="evenodd" clip-rule="evenodd" d="M168.713 85.4099L163.569 85.4574C163.569 86.2168 163.688 86.6677 164.236 86.8338C164.498 86.905 164.736 86.905 164.95 86.9287C167.546 86.9762 168.713 87.4746 168.713 85.4099Z" fill="#2E2E2E"/>
<path fill-rule="evenodd" clip-rule="evenodd" d="M155.902 85.4811C155.355 85.3862 151.14 85.3624 150.783 85.5286C150.664 86.3117 150.878 86.6914 151.473 86.8576C151.64 86.905 152.378 86.9525 153.045 86.9525C154.831 86.9525 155.902 87.3322 155.902 85.4811Z" fill="#2F2F2F"/>
<path fill-rule="evenodd" clip-rule="evenodd" d="M5.66766 42.6458C6.47729 42.4559 7.14404 41.9338 7.02498 40.9133C6.90592 39.8929 6.23916 39.6793 5.31046 39.5132C4.88184 39.6081 5.07234 39.4657 4.88184 39.7268L5.28665 39.6793L5.66766 42.6458Z" fill="#FE5454"/>
<path fill-rule="evenodd" clip-rule="evenodd" d="M5.66777 42.6456L5.28677 39.6792L4.88195 39.7267C3.52463 40.0826 3.45319 42.6694 5.66777 42.6456Z" fill="#FE5F5F"/>
</g>
<defs>
<clipPath id="clip0">
<rect width="178" height="87" fill="white"/>
</clipPath>
</defs>
</svg>
