<svg width="21" height="21" viewBox="0 0 21 21" fill="none" xmlns="http://www.w3.org/2000/svg">
<path d="M18.1364 0H2.86364C1.28482 0 0 1.28482 0 2.86364V18.1364C0 19.7145 1.28482 21 2.86364 21H18.1364C19.7145 21 21 19.7145 21 18.1364V2.86364C21 1.28482 19.7145 0 18.1364 0ZM20.0455 18.1364C20.0455 19.1851 19.1864 20.0455 18.1364 20.0455H2.86364C1.81364 20.0455 0.954545 19.1851 0.954545 18.1364V2.86364C0.954545 1.81427 1.81364 0.954545 2.86364 0.954545H18.1364C19.1864 0.954545 20.0455 1.81427 20.0455 2.86364V18.1364Z" fill="#79C1CD"/>
<path d="M5.88641 3.84746C6.33381 3.84746 6.6965 3.48477 6.6965 3.03737C6.6965 2.58996 6.33381 2.22727 5.88641 2.22727C5.43901 2.22727 5.07632 2.58996 5.07632 3.03737C5.07632 3.48477 5.43901 3.84746 5.88641 3.84746Z" fill="#79C1CD"/>
<path d="M10.5 3.84746C10.9474 3.84746 11.3101 3.48477 11.3101 3.03737C11.3101 2.58996 10.9474 2.22727 10.5 2.22727C10.0526 2.22727 9.68994 2.58996 9.68994 3.03737C9.68994 3.48477 10.0526 3.84746 10.5 3.84746Z" fill="#79C1CD"/>
<path d="M15.1137 3.84746C15.5611 3.84746 15.9238 3.48477 15.9238 3.03737C15.9238 2.58996 15.5611 2.22727 15.1137 2.22727C14.6663 2.22727 14.3036 2.58996 14.3036 3.03737C14.3036 3.48477 14.6663 3.84746 15.1137 3.84746Z" fill="#79C1CD"/>
<path d="M9.43455 8.21037H7.66051C7.34276 8.21037 7.08517 8.46796 7.08517 8.78571V10.2365C7.08517 10.5542 7.34276 10.8118 7.66051 10.8118H9.43455C9.75231 10.8118 10.0099 10.5542 10.0099 10.2365V8.78571C10.0099 8.46796 9.75231 8.21037 9.43455 8.21037Z" fill="#79C1CD"/>
<path d="M13.3394 8.21037H11.566C11.2482 8.21037 10.9906 8.46796 10.9906 8.78571V10.2365C10.9906 10.5542 11.2482 10.8118 11.566 10.8118H13.3394C13.6571 10.8118 13.9147 10.5542 13.9147 10.2365V8.78571C13.9147 8.46796 13.6571 8.21037 13.3394 8.21037Z" fill="#79C1CD"/>
<path d="M17.2428 8.21037H15.4687C15.151 8.21037 14.8934 8.46796 14.8934 8.78571V10.2365C14.8934 10.5542 15.151 10.8118 15.4687 10.8118H17.2428C17.5605 10.8118 17.8181 10.5542 17.8181 10.2365V8.78571C17.8181 8.46796 17.5605 8.21037 17.2428 8.21037Z" fill="#79C1CD"/>
<path d="M5.53055 11.683H3.75714C3.43939 11.683 3.1818 11.9406 3.1818 12.2584V13.7078C3.1818 14.0256 3.43939 14.2832 3.75714 14.2832H5.53055C5.8483 14.2832 6.10589 14.0256 6.10589 13.7078V12.2584C6.10589 11.9406 5.8483 11.683 5.53055 11.683Z" fill="#79C1CD"/>
<path d="M9.43455 11.683H7.66051C7.34276 11.683 7.08517 11.9406 7.08517 12.2584V13.7078C7.08517 14.0256 7.34276 14.2832 7.66051 14.2832H9.43455C9.75231 14.2832 10.0099 14.0256 10.0099 13.7078V12.2584C10.0099 11.9406 9.75231 11.683 9.43455 11.683Z" fill="#79C1CD"/>
<path d="M13.3394 11.683H11.566C11.2482 11.683 10.9906 11.9406 10.9906 12.2584V13.7078C10.9906 14.0256 11.2482 14.2832 11.566 14.2832H13.3394C13.6571 14.2832 13.9147 14.0256 13.9147 13.7078V12.2584C13.9147 11.9406 13.6571 11.683 13.3394 11.683Z" fill="#79C1CD"/>
<path d="M17.2428 11.683H15.4687C15.151 11.683 14.8934 11.9406 14.8934 12.2584V13.7078C14.8934 14.0256 15.151 14.2832 15.4687 14.2832H17.2428C17.5605 14.2832 17.8181 14.0256 17.8181 13.7078V12.2584C17.8181 11.9406 17.5605 11.683 17.2428 11.683Z" fill="#79C1CD"/>
<path d="M5.53055 15.1556H3.75714C3.43939 15.1556 3.1818 15.4132 3.1818 15.731V17.1805C3.1818 17.4982 3.43939 17.7558 3.75714 17.7558H5.53055C5.8483 17.7558 6.10589 17.4982 6.10589 17.1805V15.731C6.10589 15.4132 5.8483 15.1556 5.53055 15.1556Z" fill="#79C1CD"/>
<path d="M9.43455 15.1556H7.66051C7.34276 15.1556 7.08517 15.4132 7.08517 15.731V17.1805C7.08517 17.4982 7.34276 17.7558 7.66051 17.7558H9.43455C9.75231 17.7558 10.0099 17.4982 10.0099 17.1805V15.731C10.0099 15.4132 9.75231 15.1556 9.43455 15.1556Z" fill="#79C1CD"/>
<path d="M13.3394 15.1556H11.566C11.2482 15.1556 10.9906 15.4132 10.9906 15.731V17.1805C10.9906 17.4982 11.2482 17.7558 11.566 17.7558H13.3394C13.6571 17.7558 13.9147 17.4982 13.9147 17.1805V15.731C13.9147 15.4132 13.6571 15.1556 13.3394 15.1556Z" fill="#79C1CD"/>
<path d="M17.2428 15.1556H15.4687C15.151 15.1556 14.8934 15.4132 14.8934 15.731V17.1805C14.8934 17.4982 15.151 17.7558 15.4687 17.7558H17.2428C17.5605 17.7558 17.8181 17.4982 17.8181 17.1805V15.731C17.8181 15.4132 17.5605 15.1556 17.2428 15.1556Z" fill="#79C1CD"/>
</svg>
