<svg width="28" height="28" viewBox="0 0 28 28" fill="none" xmlns="http://www.w3.org/2000/svg">
<path d="M2.17998 15.9381C1.90019 15.8677 1.60416 15.9496 1.4002 16.1536L0.240234 17.3136C-0.0800779 17.6339 -0.0800779 18.1532 0.240234 18.4735L2.85697 21.0902C2.34998 21.776 1.83627 22.4834 1.31266 23.2164C1.07962 23.5427 1.11663 23.9896 1.40015 24.2731L3.71997 26.5929C4.00354 26.8765 4.45044 26.9133 4.77665 26.6804C5.50968 26.1568 6.21707 25.6431 6.90286 25.1361L9.51965 27.7529C9.8398 28.073 10.3593 28.0731 10.6796 27.7529L11.8395 26.593C12.0434 26.389 12.1252 26.0929 12.055 25.8132L11.0759 21.9158C12.4441 20.8094 13.7447 19.7017 15.0202 18.557L23.8274 27.3642C24.1476 27.6845 24.667 27.6845 24.9873 27.3642L26.7272 25.6243C26.9934 25.3581 27.0442 24.945 26.8504 24.6222L23.6992 19.3729L26.1472 16.9248C26.4673 16.6048 26.4675 16.0851 26.1472 15.7649L23.8273 13.445C23.5071 13.1247 22.9877 13.1247 22.6674 13.445L21.0884 15.024L20.2182 13.5744L23.8273 9.96524C25.4485 8.3441 26.7253 6.55515 27.4227 4.92788C28.2211 3.06517 28.18 1.55864 27.3071 0.685792C26.4344 -0.187003 24.9278 -0.228013 23.0652 0.570254C21.438 1.26764 19.6489 2.54451 18.0279 4.16565L14.4188 7.77478L12.9691 6.9045L14.5481 5.32551C14.8684 5.0052 14.8684 4.48591 14.5481 4.1656L12.2282 1.84576C11.908 1.52545 11.3886 1.52545 11.0683 1.84576L8.62023 4.29388L3.37096 1.14258C3.04835 0.948855 2.63508 0.999597 2.36885 1.26583L0.628949 3.00573C0.308638 3.32605 0.308638 3.84534 0.628949 4.16565L9.43616 12.9729C8.29139 14.2484 7.18369 15.549 6.07731 16.9172L2.17998 15.9381ZM1.98013 17.8936L2.23127 17.6424L4.95649 18.3271C4.58943 18.7964 4.22111 19.2749 3.85033 19.7638L1.98013 17.8936ZM10.3508 25.7619L10.0996 26.013L8.22938 24.1428C8.71833 23.772 9.19677 23.4036 9.66614 23.0366L10.3508 25.7619ZM24.4074 25.6243L16.2332 17.4501C17.1631 16.5878 18.0873 15.6988 19.0224 14.7692L25.1145 24.9173L24.4074 25.6243ZM23.2475 15.185L24.4075 16.3449L22.829 17.9233L21.9588 16.4737L23.2475 15.185ZM19.1877 5.32557C20.6648 3.84846 22.2713 2.69516 23.7113 2.07799C24.846 1.59167 25.8021 1.50057 26.1473 1.84576C26.4925 2.19096 26.4014 3.14714 25.9151 4.28174C25.298 5.72167 24.1446 7.32821 22.6675 8.80532C22.0857 9.38717 18.8588 12.6141 18.1238 13.349C13.69 17.7828 9.62365 21.1686 4.38761 24.9407L3.05239 23.6055C7.0254 18.0906 10.4286 14.0847 14.644 9.86928C15.2795 9.23384 18.5299 5.98336 19.1877 5.32557ZM11.6483 3.58572L12.8082 4.74564L11.5195 6.03433L10.0699 5.1641L11.6483 3.58572ZM2.36885 3.58567L3.07585 2.87866L13.224 8.97078C12.2944 9.90586 11.4053 10.83 10.543 11.7599L2.36885 3.58567Z" fill="#127E90"/>
</svg>
