<svg width="31" height="22" viewBox="0 0 31 22" fill="none" xmlns="http://www.w3.org/2000/svg">
<path d="M27.1734 5.03039H13.5544C12.8272 5.03039 12.1312 5.23985 11.5292 5.62978C11.3619 3.60626 9.71687 2.01224 7.71773 2.01224C6.98075 2.01224 6.29215 2.22934 5.70757 2.60424V0.939277C5.70757 0.420546 5.30094 0 4.79937 0H0.908203C0.406633 0 0 0.420546 0 0.939277V21.0607C0 21.5794 0.406633 21.9999 0.908203 21.9999H4.79937C5.30094 21.9999 5.70757 21.5794 5.70757 21.0607V17.9757H25.2925V21.0607C25.2925 21.5795 25.6991 22 26.2007 22H30.0918C30.5934 22 31 21.5795 31 21.0607V8.98788C31 6.80206 29.29 5.03039 27.1734 5.03039ZM7.71773 3.89074C8.82616 3.89074 9.72789 4.82338 9.72789 5.96967C9.72789 7.11603 8.8261 8.0486 7.71773 8.0486C6.60936 8.0486 5.70757 7.11596 5.70757 5.96967C5.70757 4.82331 6.6093 3.89074 7.71773 3.89074ZM5.70757 9.33516C6.29215 9.71 6.98075 9.92716 7.71773 9.92716C8.45471 9.92716 9.1433 9.71006 9.72789 9.33516V12.0728H5.70757V9.33516ZM29.1836 20.1214H27.1088V17.0364C27.1088 16.5177 26.7022 16.0971 26.2006 16.0971H4.79937C4.2978 16.0971 3.89117 16.5177 3.89117 17.0364V20.1214H1.81641V1.87855H3.89117V13.0121C3.89117 13.5309 4.2978 13.9514 4.79937 13.9514H29.1836V20.1214ZM29.1836 12.0728H11.5443V8.98782C11.5443 7.83877 12.4428 6.90888 13.5544 6.90888H27.1734C28.2845 6.90888 29.1836 7.8382 29.1836 8.98782V12.0728Z" fill="#209FB4"/>
</svg>
